<?xml version="1.0" encoding="UTF-8" standalone="no"?>
<svg
   xmlns:dc="http://purl.org/dc/elements/1.1/"
   xmlns:cc="http://creativecommons.org/ns#"
   xmlns:rdf="http://www.w3.org/1999/02/22-rdf-syntax-ns#"
   xmlns:svg="http://www.w3.org/2000/svg"
   xmlns="http://www.w3.org/2000/svg"
   viewBox="0 0 5333.3335 5333.3335"
   height="5333.3335"
   width="5333.3335"
   xml:space="preserve"
   id="svg2"
   version="1.1"><metadata
     id="metadata8"><rdf:RDF><cc:Work
         rdf:about=""><dc:format>image/svg+xml</dc:format><dc:type
           rdf:resource="http://purl.org/dc/dcmitype/StillImage" /></cc:Work></rdf:RDF></metadata><defs
     id="defs6" /><g
     transform="matrix(1.3333333,0,0,-1.3333333,0,5333.3333)"
     id="g10"><g
       transform="scale(0.1)"
       id="g12"><g
         transform="scale(2.45399)"
         id="g14"><path
           id="path16"
           style="fill:#67e9ff;fill-opacity:1;fill-rule:nonzero;stroke:none"
           d="M 16300,0 H 0 V 16300 H 16300 V 0" /></g><g
         transform="scale(1.16478)"
         id="g18"><path
           id="path20"
           style="fill:#ff9a22;fill-opacity:1;fill-rule:nonzero;stroke:none"
           d="m 10880.7,11856.8 c 0,0 329.3,399.3 0,903.7 0,0 -881.81,-285.5 -519.9,-1474.8 257.8,-848.7 1035,-1285.3 1458.3,-1466.24 1.1,-0.52 1.6,-0.52 1.6,-0.52 168.6,-71.51 280.7,-102.51 280.7,-102.51 0,0 367.2,-1221.26 -1220.7,-1290.63 0,0 -2908.01,1147.6 -2945.89,3868.2 -37.9,2720.7 2112.19,4006 4166.59,3118.9 1538.4,-664.6 1857.6,-3975 -1220.7,-3556.1" /></g><g
         transform="scale(1.06647)"
         id="g22"><path
           id="path24"
           style="fill:#ffffff;fill-opacity:1;fill-rule:nonzero;stroke:none"
           d="m 12910.3,10724 c -8.1,-79.3 -150.6,-1030.64 -150.6,-1030.64 0,0 -2597.3,821.44 -2826.11,3567.74 -182.28,2188.7 1904.71,3038.9 2961.01,2223.5 1049.6,-810.3 532.3,-2743.4 -1010.9,-2534.8 0,0 359.7,436.1 0,987 0,0 -963.1,-311.9 -567.9,-1610.7 282.2,-928.1 1132.8,-1405 1594.5,-1602.1" /></g><g
         transform="scale(1.10889)"
         id="g26"><path
           id="path28"
           style="fill:#ffd7a7;fill-opacity:1;fill-rule:nonzero;stroke:none"
           d="m 8515.69,12747.6 c -3.27,55.5 -5.35,111.8 -6.14,168.7 -18.08,1292.9 467.87,2365.6 1333.27,2943.2 386.98,258.2 826.38,405.7 1288.78,440.5 126.7,-172.9 274.3,-333.7 439.1,-483.2 -79.1,6.3 -157.8,9.5 -235.8,9.5 -1479.37,0 -2741.16,-1130.3 -2819.21,-3078.7" /></g><path
         id="path30"
         style="fill:#ffffff;fill-opacity:1;fill-rule:nonzero;stroke:none"
         d="m 13344.9,11307.8 c -260.7,143.9 -559.2,351.3 -809.5,637.3 68.8,-40.2 136.8,-77.6 203.7,-112.4 243.9,-204.3 498.6,-356.8 717.6,-466.5 -35.7,-18.3 -73.1,-37.8 -111.8,-58.4" /><path
         id="path32"
         style="fill:#bfbfdc;fill-opacity:1;fill-rule:nonzero;stroke:none"
         d="m 12535.4,11945.1 c -706.1,413.5 -1477.7,1122.7 -1608.9,2279 -159.4,1407.3 691.6,1965 1433.8,1965 357.1,0 689,-129.1 871,-354.7 452.9,-561.6 366.1,-1494.3 -154.5,-1868.2 -32.8,1.7 -66.3,3.9 -100.2,6.5 88.2,256.4 106.1,618.4 -141,996.4 -36.6,55.8 -98.2,87.7 -162.3,87.7 -19.9,0 -40,-3 -59.7,-9.4 -12.1,-3.9 -1202.3,-409 -731.3,-1958.2 85.1,-280 213.7,-523.7 366.5,-734.8 82.4,-151.5 180.1,-287.5 286.6,-409.3" /><path
         id="path34"
         style="fill:#bfbfdc;fill-opacity:1;fill-rule:nonzero;stroke:none"
         d="m 12739.1,11832.7 c -66.9,34.8 -134.9,72.2 -203.7,112.4 -106.5,121.8 -204.2,257.8 -286.6,409.3 146.7,-202.8 315.7,-375.5 490.3,-521.7" /><path
         id="path36"
         style="fill:#000072;fill-opacity:1;fill-rule:nonzero;stroke:none"
         d="m 12510.2,14758.2 c 2.9,-4.1 -0.6,0.9 -2.4,3.3 -1.5,2.5 -4.9,6.2 -7.6,9.6 -5.3,6.8 -11.6,14.1 -18.4,21.3 -12.6,14.7 -28,28.6 -43.6,41.6 -16,13 -32.4,25.4 -50.3,36.3 -16.8,12.9 -36.4,20.9 -55.2,31 -76.5,37.8 -167.6,56.4 -265.4,57.1 -98.3,5.1 -201.6,-18.8 -307.7,-40.9 -52,-16.4 -106,-29.7 -160.2,-45.8 -53.2,-18.9 -108.1,-36.3 -165.1,-52.5 l -4.5,-1.3 c -27.9,-7.9 -57.1,8.3 -65.1,36.3 -5.5,19.4 0.7,39.5 14.3,52.6 44,41.9 90,82.7 137.7,121.9 49.3,36.9 102.6,69.5 155.8,102.9 27.7,15.1 56.8,28 85.7,41.6 29.4,12.6 57.1,29.2 88.9,37.6 l 94,29.8 c 31.2,10.7 65.4,14.1 98.4,21.3 133.2,22.8 280.2,20.5 421.4,-26.3 34.8,-12.6 70.2,-24.2 103.2,-42.1 16.6,-8.6 33.8,-16.2 49.9,-26 l 47.4,-30.7 c 31,-21.6 61.1,-44.6 89.3,-71.4 14.2,-13 28.4,-26.4 41.7,-42 6.8,-7.7 13.3,-14.6 20.4,-23.8 7.1,-9.2 12.7,-15.6 23.6,-31.8 57.9,-90.1 31.8,-210 -58.3,-267.9 -90.1,-57.9 -210,-31.8 -267.9,58.3" /><g
         transform="scale(1.14441)"
         id="g38"><path
           id="path40"
           style="fill:#000072;fill-opacity:1;fill-rule:nonzero;stroke:none"
           d="m 10995,15801.9 c -524.1,0 -1024.84,-145.7 -1457.64,-434.6 -838.54,-559.7 -1309.41,-1599.1 -1291.89,-2851.8 34.57,-2472.5 2543.13,-3632.8 2858.63,-3768.77 462.2,26.21 780.3,156.68 946.1,388.06 157.6,220.12 142.4,489.17 121.5,622.77 -343.4,117.36 -1452.9,575.34 -1788.7,1680.04 -411.62,1353.7 628.4,1707.7 639,1711.1 72.7,23.5 152.1,-4.6 194,-68.5 215.9,-330.3 200.2,-646.6 123.2,-870.6 1367.1,-105.5 1779.6,599.3 1903.9,1046.1 240.2,863 -233.4,1947.7 -993.4,2276 -418.2,180.6 -843.7,270.2 -1254.7,270.2 m 79.1,-7395.7 c -21.2,0 -42.3,4.02 -62.2,11.89 -31.3,12.32 -775,309.94 -1532.48,959.27 -1012.35,867.64 -1556.17,1951.14 -1572.69,3133.34 -19.18,1369.8 506.6,2513.7 1442.58,3138.4 869.49,580.4 1975.59,650.9 3034.69,193.6 918.1,-396.5 1472.1,-1647.8 1185.5,-2677.8 -115.9,-416.4 -531.9,-1304.4 -1965.7,-1304.5 -169.6,0 -353.2,12.4 -552.5,39.5 -60.9,8.2 -112.5,48.8 -134.9,106.1 -22.4,57.2 -12,122.1 27.1,169.5 8.3,10.6 198.4,256.5 58,590.3 -199.4,-122.2 -530.8,-452 -294.4,-1229.8 336.9,-1108.1 1641.7,-1479.9 1654.8,-1483.4 56.2,-15.6 100.4,-58.76 117.2,-114.51 6.8,-22.54 162.1,-555.92 -151,-997.11 -233.3,-328.64 -652.7,-508.56 -1246.5,-534.6 -2.5,-0.09 -5,-0.18 -7.5,-0.18" /></g><g
         transform="scale(1.96784)"
         id="g42"><path
           id="path44"
           style="fill:#ff9a22;fill-opacity:1;fill-rule:nonzero;stroke:none"
           d="M 14430.6,3005.07 H 6276.07 c -397.75,38.22 -713.73,200.27 -950.69,428.69 -0.61,0.36 -0.91,0.67 -0.91,0.67 -224.67,216.43 -378.52,491.9 -464.46,776.58 l -0.32,0.61 c -186.71,617.07 -55.6,1276.43 363.35,1470.75 370.3,171.56 714.33,-82.48 899.51,-266.69 0.61,-0.61 0.91,-1.27 1.57,-1.88 36.95,-36.64 67.29,-70.79 90.36,-97.62 0.91,-0.96 1.88,-1.88 2.84,-3.15 30.65,-36.33 47.37,-59.71 47.37,-59.71 1.27,1.27 2.23,2.19 3.5,3.46 59.36,60.67 124.81,116.88 192.09,168.41 296.01,226.18 627.13,357.65 627.13,357.65 h 0.31 c -0.31,9.8 -0.31,19.26 -0.31,29.06 -12.65,810.08 213.89,1605.32 388.3,2093.77 60.01,167.14 113.73,298.25 149.45,381.94 28.76,67.64 46.45,104.28 46.45,104.28 h 5381.09 c 0,0 86,-182.28 191.5,-479.92 175.7,-494.75 405,-1308.64 382.6,-2133.91 0,0 494.2,-194.27 815.2,-524.74 0,0 491.6,684 1041.6,429.05 816.4,-378.54 540.6,-2524.7 -1053,-2677.3" /></g><g
         transform="scale(1.60784)"
         id="g46"><path
           id="path48"
           style="fill:#ffffff;fill-opacity:1;fill-rule:nonzero;stroke:none"
           d="m 13208,7569.47 c 0,0 84.1,842.31 -539.1,842.31 -623.2,0 -539.2,-842.31 -539.2,-842.31 -541.7,514.6 -3091.93,679.92 -2880.4,-1603.83 211.53,-2283.75 3419.6,-2287.73 3419.6,-2287.73 0,0 3208,3.98 3419.6,2287.73 211.5,2283.75 -2338.7,2118.43 -2880.5,1603.83" /></g><path
         id="path50"
         style="fill:#ffffff;fill-opacity:1;fill-rule:nonzero;stroke:none"
         d="m 12521.9,6468 c -966.8,-541.5 -1994.5,251.2 -2042.4,289.1 -1.2,0.7 -1.8,1.3 -1.8,1.3 -1400.16,1349.8 -1404.51,3864.6 -199.6,4423.6 728.7,337.6 1405.7,-162.3 1770.1,-524.8 1.2,-1.2 1.8,-2.5 3.1,-3.7 54,-63.4 113.1,-128.1 177.8,-192.1 1.8,-1.9 3.7,-3.7 5.6,-6.2 34.2,-34.2 67.7,-70.9 100.1,-110.7 771.5,-923.9 1255.9,-3278.4 187.1,-3876.5" /><g
         transform="scale(1.9432)"
         id="g52"><path
           id="path54"
           style="fill:#ffffff;fill-opacity:1;fill-rule:nonzero;stroke:none"
           d="m 14525.2,3328.53 c 497.6,-278.67 1026.4,129.27 1051.1,148.77 0.6,0.36 0.9,0.67 0.9,0.67 720.6,694.63 722.8,1988.78 102.7,2276.45 -375,173.73 -723.4,-83.52 -910.9,-270.07 -0.6,-0.62 -0.9,-1.29 -1.6,-1.91 -27.8,-32.62 -58.2,-65.92 -91.5,-98.85 -0.9,-0.98 -1.9,-1.91 -2.9,-3.19 -17.6,-17.6 -34.8,-36.49 -51.5,-56.97 -397,-475.45 -646.3,-1687.11 -96.3,-1994.9" /></g><path
         id="path56"
         style="fill:#ff6687;fill-opacity:1;fill-rule:nonzero;stroke:none"
         d="m 11881.6,8456.4 c 123.2,-410.3 -27.9,-818.2 -337.6,-911.2 -309.6,-93 -660.5,164.2 -783.7,574.5 -123.2,410.3 28,818.2 337.6,911.2 309.6,93 660.5,-164.2 783.7,-574.5" /><path
         id="path58"
         style="fill:#ff6687;fill-opacity:1;fill-rule:nonzero;stroke:none"
         d="m 11980.8,9601.8 c 6.5,-261.9 -148.6,-478.2 -346.2,-483.1 -197.7,-4.8 -363.2,203.5 -369.6,465.5 -6.5,261.9 148.5,478.1 346.2,483 197.7,4.9 363.2,-203.5 369.6,-465.4" /><path
         id="path60"
         style="fill:#ff6687;fill-opacity:1;fill-rule:nonzero;stroke:none"
         d="m 10592,9138.3 c 103.3,-243.2 38.2,-503.6 -145.4,-581.5 -183.6,-77.9 -416.1,56.1 -519.33,299.3 -103.25,243.2 -38.14,503.6 145.43,581.5 183.6,77.9 416.1,-56.1 519.3,-299.3" /><path
         id="path62"
         style="fill:#ff6687;fill-opacity:1;fill-rule:nonzero;stroke:none"
         d="m 11084.6,9876.7 c 103.3,-243.2 38.1,-503.5 -145.4,-581.5 -183.6,-77.9 -416.1,56.1 -519.3,299.3 -103.3,243.2 -38.2,503.6 145.4,581.5 183.6,77.9 416.1,-56.1 519.3,-299.3" /><g
         transform="scale(1.84675)"
         id="g64"><path
           id="path66"
           style="fill:#ff6687;fill-opacity:1;fill-rule:nonzero;stroke:none"
           d="m 15626.1,4579.07 c -66.7,-222.17 15.1,-443.04 182.8,-493.4 167.7,-50.36 357.7,88.91 424.4,311.08 66.7,222.18 -15.2,443.05 -182.8,493.41 -167.7,50.36 -357.7,-88.91 -424.4,-311.09" /></g><g
         transform="scale(1.80863)"
         id="g68"><path
           id="path70"
           style="fill:#ff6687;fill-opacity:1;fill-rule:nonzero;stroke:none"
           d="m 15900.6,5308.89 c -3.6,-144.8 82.1,-264.4 191.5,-267.1 109.3,-2.66 200.8,112.51 204.3,257.37 3.6,144.81 -82.2,264.35 -191.4,267.05 -109.3,2.72 -200.8,-112.51 -204.4,-257.32" /></g><g
         transform="scale(1.89663)"
         id="g72"><path
           id="path74"
           style="fill:#ff6687;fill-opacity:1;fill-rule:nonzero;stroke:none"
           d="m 15895.1,4818.17 c -54.5,-128.22 -20.2,-265.52 76.6,-306.59 96.8,-41.08 219.4,29.58 273.8,157.8 54.5,128.23 20.2,265.53 -76.6,306.6 -96.8,41.07 -219.4,-29.58 -273.8,-157.81" /></g><g
         transform="scale(1.86641)"
         id="g76"><path
           id="path78"
           style="fill:#ff6687;fill-opacity:1;fill-rule:nonzero;stroke:none"
           d="m 15888.5,5291.81 c -55.3,-130.3 -20.5,-269.76 77.9,-311.56 98.4,-41.73 223,30.06 278.3,160.36 55.3,130.31 20.4,269.83 -78,311.57 -98.3,41.73 -222.9,-30.06 -278.2,-160.37" /></g><g
         transform="scale(1.58647)"
         id="g80"><path
           id="path82"
           style="fill:#bf7336;fill-opacity:1;fill-rule:nonzero;stroke:none"
           d="m 12841.8,9071.89 c -807.2,0 -1614.4,105.58 -2399.6,316.8 -358.3,96.19 -720.38,216.14 -1056.91,365.78 75.2,211.79 142.7,377.43 187.02,480.93 276.65,-95.2 562.79,-174 849.19,-241.91 v 0 0 c 2.3,-0.56 4.6,-1.07 6.9,-1.64 2.2,-0.56 4.6,-1.13 7,-1.64 v 0 c 4.4,-1.07 8.8,-2.07 13.3,-3.15 775.2,-181.47 1567.4,-272.11 2359.2,-272.11 0.1,0 0.2,0 0.3,0 v 0 0 c 1.6,0 3.2,0 4.8,0 0.3,0 0.5,0 0.9,0 1.3,0 2.6,0 4,0 0.4,0 0.8,0 1.2,0 1.3,0 2.6,0 3.9,0 0.4,0 0.7,0 1.2,0 1.2,0 2.6,0 3.8,0 0.4,0 0.9,0 1.3,0 1.3,0 2.7,0 4,0 0.3,0 0.6,0 1,0 1.3,0 2.9,0 4.2,0.06 0.3,0 0.4,0 0.7,0 3.3,0 6.6,0 9.9,0 v 0 h 0.7 c 13.6,-0.06 27.3,-0.06 40.9,-0.06 0.5,0 1,0 1.6,0 0.9,0 1.7,0 2.7,0 801.1,0 1602.6,92.72 2386.6,278.54 126.4,29.91 253.5,62.61 380.4,98.31 158.8,43.8 316.5,91.8 471,144.9 37.7,-88.8 92.5,-223.9 154.5,-394.8 4.2,-29.12 8.4,-57.99 12.5,-86.86 -337.1,-149.7 -699.7,-269.72 -1058.7,-366.35 -785.1,-211.22 -1592.3,-316.8 -2399.5,-316.8" /></g><g
         transform="scale(1.79104)"
         id="g84"><path
           id="path86"
           style="fill:#bf7336;fill-opacity:1;fill-rule:nonzero;stroke:none"
           d="m 15849.9,3409.92 h -1450.5 c 26.2,47.3 41.5,101.17 43.2,162.54 0.1,0.67 0.1,1.28 0.1,1.95 0.1,3.24 0.2,6.53 0.2,9.83 v 0 0 0 c 0.2,123.17 -28.8,223.95 -74.3,306.36 v 0 c -0.2,0.22 -0.3,0.39 -0.4,0.61 -0.1,0.22 -0.3,0.45 -0.4,0.61 0,0.06 0,0.12 -0.1,0.23 -84,150.86 -223.8,239.64 -341.6,290.56 -34.2,14.74 -66.5,26.35 -95,35.34 158.2,164.6 290.3,358.79 382.1,587.87 55.9,-83.86 125,-137.96 210,-150.97 23.6,-3.69 47,-5.42 70.1,-5.42 428.1,0.06 760.4,602.44 930,990.6 78.3,-66.33 133.6,-116.08 161.3,-141.48 -312.8,-607.86 -433.3,-1602.93 74.7,-1887.23 136.6,-76.5 275.4,-105.31 406.9,-105.31 45.6,0 90.3,3.47 133.8,9.61 -135.9,-52.88 -285.7,-89.51 -450.1,-105.7 m -7503.28,0 H 6900.86 c -164.43,16.19 -314.23,52.82 -450.13,105.7 43.5,-6.14 88.17,-9.61 133.78,-9.61 131.49,0 270.35,28.81 406.91,105.31 508.82,284.75 387.16,1282.49 73.2,1890.08 28.65,26.18 82.64,74.64 158.01,138.52 169.63,-388.27 501.84,-990.55 929.91,-990.49 23.12,0 46.51,1.73 70.18,5.42 84.98,13.01 154.1,67.22 210.11,151.14 91.73,-229.14 223.89,-423.39 382.18,-588.04 -27.58,-8.71 -58.63,-19.77 -91.46,-33.84 -0.05,0 -0.17,-0.05 -0.22,-0.11 -0.06,0 -0.11,0 -0.11,-0.05 -118.48,-50.7 -260.13,-139.7 -344.89,-292.01 h -0.05 c -0.11,-0.28 -0.28,-0.56 -0.45,-0.84 -0.06,-0.17 -0.11,-0.28 -0.22,-0.45 -0.06,-0.05 -0.12,-0.17 -0.12,-0.22 -45.56,-82.36 -74.48,-183.08 -74.25,-306.19 v 0 0 0 c 0.11,-66.28 15.63,-124.01 43.38,-174.32" /></g><g
         transform="scale(1.57272)"
         id="g88"><path
           id="path90"
           style="fill:#bfbfdc;fill-opacity:1;fill-rule:nonzero;stroke:none"
           d="m 13637.7,3883.26 h -1371.9 c 14.9,30.4 26.2,63.2 33.6,98.56 5.1,22.89 8.3,46.61 9.4,71.91 21.1,399.37 60.9,2208.78 80.5,3135.01 -1.9,-156.67 -3.6,-1564.04 562.3,-1564.04 599.3,0 562.2,1578.15 562.2,1578.15 l 0.1,0.07 c 19.4,-921.84 59.6,-2747.78 80.8,-3149.19 1.1,-25.3 4.3,-49.02 9.5,-71.91 7.3,-35.36 18.7,-68.16 33.5,-98.56 m -3599.1,920.19 c -180.23,187.51 -330.73,408.72 -435.2,669.66 231.76,347.62 265.66,1143.69 251.48,1768.78 28.23,-232.46 59.64,-482.41 91.36,-730.26 54.16,-501.1 123.46,-1052.12 210.36,-1597.1 7,-51.12 10.8,-79.22 10.8,-79.22 -10.4,-1.72 -60.2,-10.24 -128.8,-31.86 m 5826.3,0 c -68.6,21.62 -118.3,30.14 -128.8,31.86 0,0 3.9,28.1 10.8,79.28 87,544.86 156.2,1095.75 210.4,1596.85 31.6,246.9 62.9,496.15 91,727.91 -14,-624.84 20.1,-1419.45 251.7,-1766.42 -104.5,-260.89 -255,-482.04 -435.1,-669.48" /></g><path
         id="path92"
         style="fill:#bfbfdc;fill-opacity:1;fill-rule:nonzero;stroke:none"
         d="m 11793.1,6279.4 c -81.7,0 -161.7,6.2 -239.6,17.2 -741.6,288.3 -1251.5,845.9 -1564.13,1455.6 353.33,-384.9 885.53,-836.3 1439.03,-836.2 152.4,0 306.4,34.2 458.7,113.5 820.3,427.1 1188.1,1799.9 482,3118.8 5.1,1.1 10.1,2.4 15.1,3.9 l 226.5,-338 c 0,0 14.5,13.7 42.3,39 562.3,-1088.2 780.2,-2875.2 -131.1,-3385.2 -244.6,-137 -493.3,-188.6 -728.8,-188.6" /><g
         transform="scale(1.88767)"
         id="g94"><path
           id="path96"
           style="fill:#bfbfdc;fill-opacity:1;fill-rule:nonzero;stroke:none"
           d="m 15338.7,3326.54 c -124.9,0 -256.6,27.33 -386.1,99.91 -482.1,269.75 -367.7,1213.88 -70.9,1790.62 12.8,-11.71 19.4,-17.96 19.4,-17.96 l 120.8,180.22 c 2.5,-0.84 5,-1.59 7.5,-2.22 -374.8,-699.06 -180,-1426.84 254.9,-1653.2 80.6,-42.01 162.2,-60.13 242.9,-60.13 298.8,0 585.8,248.13 772.8,454.42 -165.1,-327.49 -436.9,-627.97 -834.4,-782.55 -41.3,-5.83 -83.7,-9.11 -126.9,-9.11" /></g><path
         id="path98"
         style="fill:#ffd7a7;fill-opacity:1;fill-rule:nonzero;stroke:none"
         d="m 12936,10101.3 c -65.7,150.2 -117.7,282.5 -155,382.1 534.4,421.5 1158,683.5 1230.6,713.3 27.9,9.8 53.5,25.9 74.5,47.4 36.5,37.4 56.4,87.8 55.2,139.9 -0.5,24 -0.9,48.2 -1.3,72.1 l 353.4,84.5 c 0.3,0 0.6,0 0.8,0.1 6.4,0.8 12.6,1.2 18.6,1.2 125.6,0 178.7,-171.2 65.3,-241.6 -715.4,-444.2 -1301,-909.9 -1642.1,-1199" /><path
         id="path100"
         style="fill:#e5c7af;fill-opacity:1;fill-rule:nonzero;stroke:none"
         d="m 12653,9853.2 c -62.9,121.7 -130,234.6 -200.4,336 5,4.2 9.8,8.7 14.4,13.4 97.1,100 203.7,193.8 314,280.8 37.3,-99.6 89.3,-231.9 155,-382.1 -135,-114.4 -231.7,-201.2 -283,-248.1" /><path
         id="path102"
         style="fill:#e5e5f1;fill-opacity:1;fill-rule:nonzero;stroke:none"
         d="m 12610.7,9814.2 -226.5,338 c 24.9,7.6 48.2,20.1 68.4,37 70.4,-101.4 137.5,-214.3 200.4,-336 -27.8,-25.3 -42.3,-39 -42.3,-39" /><g
         transform="scale(1.71532)"
         id="g104"><path
           id="path106"
           style="fill:#ffd7a7;fill-opacity:1;fill-rule:nonzero;stroke:none"
           d="m 16208.5,5888.99 c -198.8,168.6 -540.2,439.98 -957.1,698.88 -66.1,41.04 -35.2,140.85 38.1,140.85 3.5,0 7.1,-0.23 10.7,-0.7 l 220.7,-52.7 c -0.2,-14.52 -0.6,-29.03 -1,-43.55 -1.3,-47.51 27.4,-90.77 71.6,-108.2 4.5,-1.81 382.3,-152.57 708.5,-408.73 -21.8,-58.47 -52.5,-136.71 -91.5,-225.85" /></g><g
         transform="scale(1.73588)"
         id="g108"><path
           id="path110"
           style="fill:#e5c7af;fill-opacity:1;fill-rule:nonzero;stroke:none"
           d="m 16183,5673.27 c -28.6,26.21 -85.7,77.54 -166.4,145.98 38.5,88.08 68.8,165.39 90.4,223.17 64.8,-50.93 127.4,-106 184.7,-164.93 2.7,-2.71 5.4,-5.3 8.3,-7.72 -41.1,-59.22 -80.3,-125.3 -117,-196.5" /></g><g
         transform="scale(1.73966)"
         id="g112"><path
           id="path114"
           style="fill:#e5e5f1;fill-opacity:1;fill-rule:nonzero;stroke:none"
           d="m 16168.9,5641.46 c 0,0 -7.1,6.78 -21.1,19.49 36.7,71.04 75.8,136.98 116.8,196.07 10.5,-8.85 22.5,-15.58 35.4,-20.01 l -131.1,-195.55" /></g><path
         id="path116"
         style="fill:#ffd7a7;fill-opacity:1;fill-rule:nonzero;stroke:none"
         d="m 14140,11462.6 c -18.9,1515.5 398.9,3014.8 732.1,3963.5 C 14552,13153.8 14494,11540.7 14494,11540.7 l -0.6,-0.1 c -100.4,-13 -218.1,-37 -353.4,-78" /><path
         id="path118"
         style="fill:#ffefdc;fill-opacity:1;fill-rule:nonzero;stroke:none"
         d="m 14140,11456.1 c 0,2.2 0,4.4 0,6.5 135.3,41 253,65 353.4,78 l -353.4,-84.5" /><g
         transform="scale(1.63496)"
         id="g120"><path
           id="path122"
           style="fill:#ffd7a7;fill-opacity:1;fill-rule:nonzero;stroke:none"
           d="m 16283.8,7006.39 c -89.3,27.9 -166.4,43.86 -231.6,52.3 v 0 0 c 0,0 -36.1,1001.25 -235.6,2407.03 5.2,2.32 10.4,4.65 15.6,6.97 203.9,-578.54 467.8,-1517.04 451.6,-2466.3" /></g><g
         transform="scale(1.58804)"
         id="g124"><path
           id="path126"
           style="fill:#e5c7af;fill-opacity:1;fill-rule:nonzero;stroke:none"
           d="m 16283.9,9745.43 c -4.1,28.84 -8.2,57.68 -12.4,86.77 9.4,-25.69 18.9,-52.26 28.5,-79.59 -5.4,-2.39 -10.7,-4.79 -16.1,-7.18" /></g><g
         transform="scale(1.63334)"
         id="g128"><path
           id="path130"
           style="fill:#ffefdc;fill-opacity:1;fill-rule:nonzero;stroke:none"
           d="m 16299.9,7010.37 -231.7,55.35 v 0 c 65.3,-8.45 142.4,-24.43 231.8,-52.35 -0.1,-0.98 -0.1,-2.02 -0.1,-3" /></g><path
         id="path132"
         style="fill:#000072;fill-opacity:1;fill-rule:nonzero;stroke:none"
         d="m 12471.1,10468.4 c 17.2,-19.2 28,-32.2 40.7,-47.8 12.5,-15 23.6,-30.2 35,-45.2 23.1,-30 43.4,-60.9 64.3,-91.6 40.1,-62.1 78.8,-124.6 112.4,-189.6 69.1,-128.8 127.5,-262.1 175.3,-398.6 47.3,-136.6 86.9,-275.3 111.9,-416.7 26.8,-140.7 39.9,-283.8 40.3,-426.2 0,-18.6 -15,-33.7 -33.6,-33.7 -13.2,-0.1 -24.6,7.5 -30.2,18.5 l -0.8,1.7 c -31.8,63.4 -57.3,127.3 -86.8,189.7 -30.2,62 -56.3,124.7 -88,185.1 -57.5,122.8 -123.1,240.4 -187.5,356.7 -66.1,115.7 -137.8,226.9 -211.4,334.9 -37.1,54 -75.2,106.7 -113.9,158.1 l -58.6,75.5 -29.3,36.2 -26.1,31.5 -7.3,8.8 c -68.2,82.3 -56.8,204.4 25.5,272.7 80.4,66.7 199,57.1 268.1,-20" /><g
         transform="scale(1.75682)"
         id="g134"><path
           id="path136"
           style="fill:#000072;fill-opacity:1;fill-rule:nonzero;stroke:none"
           d="m 16258.2,5809.88 -14.9,-17.92 -16.7,-20.61 -33.3,-42.97 c -22.1,-29.26 -43.7,-59.26 -64.9,-90 -41.9,-61.47 -82.7,-124.77 -120.3,-190.63 -36.7,-66.2 -74,-133.14 -106.7,-203.03 -18.1,-34.38 -32.9,-70.07 -50.1,-105.37 -16.8,-35.51 -31.3,-71.89 -49.4,-107.98 l -0.5,-0.96 c -4.8,-9.45 -16.3,-13.27 -25.7,-8.54 -6.7,3.36 -10.6,10.19 -10.6,17.19 0.2,81.06 7.7,162.51 22.9,242.6 14.3,80.48 36.8,159.43 63.7,237.19 27.3,77.7 60.5,153.57 99.8,226.88 19.2,37 41.2,72.58 64,107.93 11.9,17.47 23.5,35.06 36.6,52.14 6.5,8.54 12.8,17.19 19.9,25.73 7.3,8.88 13.4,16.28 23.2,27.21 40.6,45.36 110.3,49.29 155.7,8.71 44.3,-39.62 49.1,-106.96 11.5,-152.38 l -4.2,-5.19" /></g><path
         id="path138"
         style="fill:#000072;fill-opacity:1;fill-rule:nonzero;stroke:none"
         d="m 13889,11564.7 c 52.3,16.7 106.6,26.7 161.6,34.2 54.9,7.8 110.8,12 167.1,14.7 112.8,3.9 226.7,2.8 344.9,-17.9 21.5,-3.8 35.9,-24.3 32.2,-45.8 -1.6,-9.1 -6.2,-16.9 -12.5,-22.6 l -1,-0.9 c -90.1,-81.1 -184.6,-142.7 -280.1,-199.2 -48,-27.6 -96.2,-53.6 -145.5,-76 -49.2,-22.8 -99,-43 -150.9,-56.5 l -7.9,-2.1 c -103.6,-27 -209.4,35.2 -236.4,138.7 -26,99.9 31.5,202.1 128.5,233.4" /><g
         transform="scale(1.65745)"
         id="g140"><path
           id="path142"
           style="fill:#000072;fill-opacity:1;fill-rule:nonzero;stroke:none"
           d="m 16134.7,6754.15 c -31.3,8.15 -61.3,20.34 -91,34.09 -29.7,13.52 -58.8,29.2 -87.8,45.86 -57.6,34.09 -114.6,71.25 -169,120.18 l -0.5,0.48 c -9.9,8.87 -10.6,23.95 -1.8,33.79 3.7,4.1 8.5,6.64 13.6,7.54 71.3,12.49 140,13.15 208.1,10.8 34,-1.63 67.6,-4.16 100.8,-8.87 33.2,-4.52 66,-10.56 97.5,-20.63 61.5,-19.67 95.4,-85.49 75.7,-146.97 -19,-59.31 -80.9,-92.98 -140.4,-77.59 l -5.2,1.32" /></g><g
         transform="scale(1.94446)"
         id="g144"><path
           id="path146"
           style="fill:#000072;fill-opacity:1;fill-rule:nonzero;stroke:none"
           d="m 6356.37,3140.87 h 8242.93 c 871.6,85.84 1297.2,795.8 1396.9,1378.59 90.5,529.19 -61,998.27 -368.3,1140.78 -474.6,220.06 -926.9,-395.8 -931.4,-402.07 -17.3,-23.86 -44.3,-38.93 -73.6,-41.09 -29.4,-2.16 -58.3,8.79 -78.8,29.93 -305.4,314.48 -785.2,505.9 -789.9,507.8 -39.1,15.38 -64.3,53.54 -63.2,95.45 31.2,1143.4 -430.8,2278.89 -545.9,2542.87 H 7828.19 c -115.61,-263.21 -581.24,-1397.25 -555.58,-2538.55 0.62,-26.79 -9.62,-52.71 -28.39,-71.95 -10.8,-11.05 -23.96,-19.33 -38.31,-24.37 -45.05,-18.47 -502.61,-210.86 -794.36,-511.25 -20.57,-21.19 -49.47,-32.09 -78.89,-29.98 -29.42,2.21 -56.37,17.28 -73.6,41.24 -4.42,6.17 -456.68,621.92 -931.31,401.97 -307.31,-142.51 -458.76,-611.59 -368.29,-1140.78 99.63,-582.79 525.25,-1292.75 1396.91,-1378.59 M 14604.1,2941.49 H 6351.53 c -3.19,0 -6.32,0.15 -9.51,0.46 -986.86,94.47 -1467.43,890.73 -1579.1,1543.87 -107.28,627.53 86,1172.2 480.95,1355.34 498.75,231.12 937.69,-185.04 1105.4,-377.53 261,235.43 586.95,393.93 723.03,454.36 -9.05,1319.55 576.2,2564.47 601.55,2617.64 16.51,34.77 51.53,56.88 90,56.88 h 5445.85 c 38.6,0 73.7,-22.26 90.1,-57.13 25.2,-53.38 607,-1301.44 591.8,-2622.32 135.3,-59.87 455.6,-215.49 714.8,-449.43 167.7,192.54 606.7,608.65 1105.3,377.53 395,-183.14 588.3,-727.81 481,-1355.34 -111.6,-653.14 -592.2,-1449.4 -1579.1,-1543.87 -3.2,-0.31 -6.3,-0.46 -9.5,-0.46" /></g><g
         transform="scale(1.19648)"
         id="g148"><path
           id="path150"
           style="fill:#ff9a22;fill-opacity:1;fill-rule:nonzero;stroke:none"
           d="m 16300,10171.9 c 0,0 -0.6,-35.9 -2.1,-102.4 l -1.1,-55.6 c -15.5,-763.3 -84.1,-4056.2 -117.4,-4685.46 -1.5,-33.26 -5.7,-64.43 -12.5,-94.52 -128.8,-619.99 -1189.9,-637.12 -1737.6,-637.12 -574.2,0 -1999,-10.87 -2000.1,768.5 0,116.93 17.2,220.4 47.4,311.83 183.4,557.55 840.7,670.8 888,678.66 1.6,0.5 2.6,0.5 2.6,0.5 -382.5,2346.12 -512.4,4815.81 -512.4,4815.81 0,0 1130.3,296.2 2093.1,0 379.3,-116.9 669.3,-296.7 881.8,-472.3 h 0.5 c 261.4,-215.6 405.4,-423.9 452.1,-498.8 11.9,-18.7 17.7,-29.1 17.7,-29.1" /></g><g
         transform="scale(1.18672)"
         id="g152"><path
           id="path154"
           style="fill:#ffffff;fill-opacity:1;fill-rule:nonzero;stroke:none"
           d="m 16300,5276.99 c -129.9,-625.08 -1199.8,-642.36 -1752,-642.36 -578.9,0 -2015.4,-10.95 -2016.5,774.83 -1.6,835.67 887.5,989.7 943.1,998.64 1.6,0.5 2.6,0.5 2.6,0.5 0,0 2258.6,189.6 2822.8,-1131.61" /></g><g
         transform="scale(1.15635)"
         id="g156"><path
           id="path158"
           style="fill:#4dafdc;fill-opacity:1;fill-rule:nonzero;stroke:none"
           d="m 14879.7,4756.35 c -9.8,0 -19.7,0 -30,0 10.3,0 20.2,0 30,0 v 0 m 0.4,0 c 17.2,0 34,0 50,0 369.1,0 963.4,7.52 1369.9,189.91 v 0 c -406.5,-182.39 -1000.8,-189.91 -1369.9,-189.91 -16,0 -32.7,0 -50,0" /></g><g
         transform="scale(1.19518)"
         id="g160"><path
           id="path162"
           style="fill:#bf7336;fill-opacity:1;fill-rule:nonzero;stroke:none"
           d="m 16300,10212.1 c -28.1,45 -91.3,138.1 -193.9,252.1 82.4,-27.7 152.8,-92.5 181.7,-197.9 4.8,-17.4 8.9,-35.5 12.2,-54.2" /></g><g
         transform="scale(1.19633)"
         id="g164"><path
           id="path166"
           style="fill:#bf7336;fill-opacity:1;fill-rule:nonzero;stroke:none"
           d="m 16169,5234.59 c -140.5,329 -386.8,563.55 -677.1,730.31 0,0.09 0,0.25 0,0.34 -3.7,293.31 138.1,3050.58 199.2,4222.36 9.4,182.6 156.5,282.2 302,282.2 33.1,0 66.2,-5.1 97.6,-15.7 102.5,-113.8 165.6,-206.9 193.7,-251.8 v 0 c 7.7,-40.6 13,-84.2 15.6,-131.5 l -1.1,-55.6 c -15.5,-763.41 -84.2,-4056.73 -117.4,-4686.08 -1.5,-33.26 -5.7,-64.44 -12.5,-94.53 v 0" /></g><g
         transform="scale(1.18672)"
         id="g168"><path
           id="path170"
           style="fill:#bfbfdc;fill-opacity:1;fill-rule:nonzero;stroke:none"
           d="m 14498.9,4634.63 c -9.5,0 -19.2,0 -29.2,0 -620.1,0.51 -1937.1,22.41 -1938.2,774.83 v 0 c 0,117.89 17.3,222.21 47.7,314.4 h 0.5 c 0,0 91.7,-584.72 1426.7,-584.72 1335,0 1615.5,496.91 1611,874.08 292.6,-168.11 541,-404.55 682.6,-736.23 v 0 c -9.8,-46.85 -24.8,-90.33 -44.5,-130.61 -71.9,-147.13 -206,-251.96 -372.6,-326.7 -396.1,-177.71 -975.2,-185.05 -1334.9,-185.05 -15.6,0 -31.9,0 -48.7,0 -0.1,0 -0.2,0 -0.4,0" /></g><path
         id="path172"
         style="fill:#e5e5f1;fill-opacity:1;fill-rule:nonzero;stroke:none"
         d="m 15990.5,7604.6 c 0,0 -6,44.2 -16.9,124.6 6.6,-41.3 13.3,-82.7 20,-124 0,0 -1.2,0 -3.1,-0.6 v 0 0" /><path
         id="path174"
         style="fill:#ffd7a7;fill-opacity:1;fill-rule:nonzero;stroke:none"
         d="m 15448.7,11809.5 c -73,621 -123.3,1108 -123.3,1269.6 0,5.8 0,11.6 0.1,17.4 0.9,67.2 24.9,119.8 61.6,157.2 6.2,-105.9 17.2,-282.6 33.5,-516.2 h -0.2 c 0,0 0.2,-1.9 0.6,-5.6 13.4,-191.5 30.3,-420.8 51.3,-680.4 3.7,-64.8 7.2,-132.9 10.6,-203.9 -11.6,-12.6 -22.9,-25.2 -34.2,-38.1" /><path
         id="path176"
         style="fill:#ffffff;fill-opacity:1;fill-rule:nonzero;stroke:none"
         d="m 15499,11389.5 c -17.7,145 -34.5,285.6 -50.3,420 11.3,12.9 22.6,25.5 34.2,38.1 6.7,-142.6 12.4,-296.7 16.1,-458.1" /><path
         id="path178"
         style="fill:#e5c7af;fill-opacity:1;fill-rule:nonzero;stroke:none"
         d="m 15482.9,11847.6 c -3.4,71 -6.9,139.1 -10.6,203.9 5.1,-64.1 10.5,-130.2 16.2,-197.9 -1.8,-1.9 -3.8,-4.1 -5.6,-6 m -61.9,884.3 c -0.4,3.7 -0.6,5.6 -0.6,5.6 h 0.2 c 0.1,-1.8 0.2,-3.8 0.4,-5.6" /><path
         id="path180"
         style="fill:#e5e5f1;fill-opacity:1;fill-rule:nonzero;stroke:none"
         d="m 15642.7,10241 c -49.9,389.8 -99.3,782.9 -143.7,1148.5 -3.7,161.4 -9.4,315.5 -16.1,458.1 1.8,1.9 3.8,4.1 5.6,6 39.1,-467.6 89.8,-1017.7 154.2,-1612.6" /><g
         transform="scale(1.01226)"
         id="g182"><path
           id="path184"
           style="fill:#ffd7a7;fill-opacity:1;fill-rule:nonzero;stroke:none"
           d="m 15796.8,7512.47 v 0 c 1.8,0.59 3,0.59 3,0.59 -6.6,40.8 -13.2,81.7 -19.7,122.5 -47.5,351.39 -189,1403.19 -326.9,2481.34 -63.6,587.7 -113.7,1131.2 -152.3,1593.1 -5.7,66.9 -11,132.2 -16.1,195.5 -20.7,256.4 -37.4,483 -50.6,672.1 -0.2,1.8 -0.3,3.8 -0.4,5.6 -16.1,230.8 -27,405.3 -33.1,509.9 43.5,44.7 105.4,67.4 167.2,67.4 104.2,0 208.5,-64.7 225.9,-198.7 l 706.2,-5437.68 -44.2,-1.08 c -39.5,0.79 -76.9,1.08 -112.2,1.08 -212,0 -343.8,-11.06 -343.8,-11.06 0,0 -1.2,0 -3,-0.59 v 0" /></g><g
         transform="scale(1.00952)"
         id="g186"><path
           id="path188"
           style="fill:#ffffff;fill-opacity:1;fill-rule:nonzero;stroke:none"
           d="m 15839.7,7532.88 v 0 0 0 c 1.9,0.59 3.1,0.59 3.1,0.59 0,0 132.1,11.09 344.7,11.09 35.3,0 72.9,-0.29 112.5,-1.08 l -460.3,-10.6" /></g><g
         transform="scale(1.06656)"
         id="g190"><path
           id="path192"
           style="fill:#000072;fill-opacity:1;fill-rule:nonzero;stroke:none"
           d="m 14965.8,7310.01 c 37,5.72 62.6,8.16 92.8,9.85 29.2,1.87 57.9,3.19 86.4,3.84 57.1,0.94 113.6,-0.09 169.8,-4.31 112.3,-6.94 223.2,-22.6 332.4,-43.69 109,-22.13 216.5,-49.32 321.2,-85.14 52.5,-16.78 103.8,-38.06 154.9,-58.5 50.6,-22.41 100.7,-45.47 149.6,-71.07 19.5,-10.22 27.1,-34.22 16.9,-53.82 -7.1,-13.69 -21.1,-21.47 -35.6,-21.37 h -0.8 c -108.8,0.75 -215.1,4.31 -320.3,5.9 -105,3.28 -209.3,1.69 -312.3,1.69 -103.1,-2.06 -205.4,-6.66 -306.2,-13.32 -50.5,-3.65 -100.5,-7.5 -149.8,-12.47 -24.8,-1.96 -49.3,-4.68 -73.2,-7.59 l -66,-8.53 -8.6,-1.13 c -99.5,-12.94 -190.7,57.2 -203.6,156.68 -12.8,97.97 55.4,187.89 152.4,202.98" /></g><path
         id="path194"
         style="fill:#000072;fill-opacity:1;fill-rule:nonzero;stroke:none"
         d="m 16079.2,6780.6 c -23.5,-208.7 -39.2,-410.4 -33.1,-602.2 1.8,-96.1 14.7,-188.8 29.2,-277.7 15,-89.5 42.1,-171.8 66.9,-253.6 l 3.9,-12.7 c 31,-102.3 -26.8,-210.5 -129.1,-241.5 -99.6,-30.2 -204.8,24.1 -239,121.3 -40.2,114.8 -63.1,234.7 -65.1,352.2 -2.2,117.2 8.8,232.7 34.4,342.6 24.5,110.2 60.5,215.9 106.4,316 46.7,99.9 101.4,194.4 173.1,280 10.6,12.7 29.5,14.3 42.1,3.8 7.9,-6.7 11.5,-16.5 10.5,-26.1 l -0.2,-2.1" /><g
         transform="scale(1.08194)"
         id="g196"><path
           id="path198"
           style="fill:#000072;fill-opacity:1;fill-rule:nonzero;stroke:none"
           d="m 16209.5,6267.05 c -21.7,-192.9 -36.2,-379.32 -30.7,-556.59 1.8,-88.82 13.6,-174.5 27,-256.67 13.9,-82.72 39,-158.79 61.9,-234.39 l 3.6,-11.74 c 28.7,-94.55 -24.7,-194.56 -119.3,-223.21 -92,-27.91 -189.3,22.28 -220.9,112.11 -37.1,106.11 -58.3,216.93 -60.1,325.53 -2.1,108.32 8.1,215.07 31.7,316.65 22.7,101.85 56,199.55 98.4,292.07 43.2,92.33 93.7,179.67 160,258.79 9.8,11.74 27.2,13.22 38.9,3.51 7.3,-6.19 10.6,-15.25 9.7,-24.12 l -0.2,-1.94" /></g><g
         transform="scale(1.20706)"
         id="g200"><path
           id="path202"
           style="fill:#000072;fill-opacity:1;fill-rule:nonzero;stroke:none"
           d="m 12809.9,11077.7 c 39.9,-197.2 70,-395.5 96.4,-593.6 26.9,-198.2 48.9,-396.7 69.2,-595.24 39.1,-397.25 84.2,-793.91 128.5,-1190.33 l 70,-594.18 74.4,-593.34 78,-592.6 c 12.9,-98.84 26.5,-197.42 41.4,-295.85 l 41,-295.92 2,-14.25 c 11.5,-82.27 -46,-158.16 -128.2,-169.59 -2.9,-0.41 -6.3,-0.74 -9.3,-0.99 v 0 c -16.2,-2.74 -43.7,-8.62 -66.2,-14.5 -23.7,-6.13 -47.6,-12.67 -71.1,-20.38 -47.2,-14.91 -93.6,-32.56 -138.4,-52.61 -90,-39.93 -173.1,-90.55 -244.9,-150.12 -72.1,-59.73 -131,-129.73 -175.1,-207.36 -42.4,-78.46 -71.1,-164.28 -82.9,-256.08 -1.7,-23.28 -5.7,-45.98 -6,-69.59 l -1,-35.37 -0.6,-17.57 1.2,-15 1.8,-29.9 c 0.5,-10.02 3.5,-18.97 4.9,-28.5 2.2,-19.39 9.1,-36.7 14.5,-54.51 24.4,-69.76 75.3,-130.07 143.9,-183.42 70.5,-52.03 157.4,-94.28 250.8,-127.75 93.5,-33.97 193.8,-59.57 296.4,-79.62 413.2,-79.12 854.2,-76.3 1294.4,-73.15 217.5,3.39 432.6,16.07 639.5,49.79 204.9,34.21 407,92.29 553,193.61 34.9,26.1 67.3,53.35 93.1,83.84 24.6,30.98 47.3,62.47 61.3,98.26 14.4,35.45 25.6,72.9 29,114.24 0.9,11.1 2.7,18.23 3.2,32.73 l 2,41.09 3.9,82.18 c 9.5,220.37 17.1,442.57 24.4,664.43 l 39.8,1332.67 c 27.6,888.6 33.9,1777.87 120.7,2665.38 5,51 50.3,88.2 101.1,83.2 46.1,-4.4 81,-42.1 83.5,-86.9 50.5,-890.68 18.5,-1779.54 4.3,-2668.98 l -27.9,-1334.4 c -5.3,-222.61 -10.8,-444.89 -18.5,-668.82 l -3.3,-84.42 -1.7,-42.25 c -0.2,-13.26 -2.7,-33.72 -4.2,-50.21 -5.7,-69.59 -24.1,-140.67 -51.4,-207.86 -26.8,-68.1 -67.8,-129.4 -112.5,-184.74 -45.8,-54.85 -98.3,-100.17 -152.4,-140.68 -109.6,-77.38 -226.4,-130.81 -342.8,-169.01 -116.5,-38.6 -233.3,-64.95 -349.3,-84.58 -232.2,-38.11 -462.2,-51.2 -689.1,-55.17 -447.4,-3.16 -902,-9.53 -1364.6,77.54 -115.6,22.45 -231.6,51.44 -347.1,93.12 -115.3,42.25 -231,97.01 -339.2,177.95 -106.4,81.85 -206.8,197.26 -255.5,338.68 -11.5,35.12 -23,70.42 -28.1,106.37 -2.9,17.9 -7.2,35.96 -8.3,53.77 l -3.3,53.27 -1.3,26.68 0.7,24.02 1.7,47.97 c 0.9,31.98 6,64.29 9,96.35 17.3,128.74 59.8,257.49 124.5,373.72 66.2,115.57 154.1,216.97 253.9,298.49 99.7,82.02 209.9,145.32 323.6,194.45 57,24.68 114.9,45.81 173.9,63.7 29.4,9.12 59.3,16.99 89.5,24.36 31.4,7.45 58.4,13.42 97,19.47 l 0.3,0.08 -135.5,-184.83 c -34.9,198.01 -69.9,396.17 -99,595 l -45.4,298.08 -40.1,298.66 c -51.9,398.5 -97.3,797.57 -133.8,1197.38 -38.5,399.65 -68.3,799.97 -94.9,1200.36 l -15.9,300.58 c -2.6,100.4 -6.8,200.6 -7,301.2 -2,201.1 1.5,402.1 19.2,604.5 3.2,37.5 36.3,65.2 73.8,61.9 30.8,-2.6 55.1,-25.4 61,-54.2 l 0.1,-0.7" /></g><g
         transform="scale(1.58698)"
         id="g204"><path
           id="path206"
           style="fill:#ff9a22;fill-opacity:1;fill-rule:nonzero;stroke:none"
           d="m 13381.7,7668.99 c 0,0 0.4,-27.03 1.6,-77.19 l 0.8,-41.9 c 11.7,-575.5 63.4,-3058.15 88.5,-3532.57 1.1,-25.08 4.3,-48.59 9.4,-71.27 97.2,-467.43 897.1,-480.35 1310,-480.35 433,0 1507.2,-8.19 1508,579.41 0,88.15 -13,166.16 -35.7,235.1 -138.3,420.36 -633.9,505.74 -669.5,511.66 -1.2,0.38 -1.9,0.38 -1.9,0.38 288.3,1768.84 386.2,3630.87 386.2,3630.87 0,0 -852.1,223.32 -1578,0 -286,-88.15 -504.6,-223.7 -664.8,-356.09 h -0.4 c -197.1,-162.57 -305.6,-319.66 -340.9,-376.12 -9,-14.05 -13.3,-21.93 -13.3,-21.93" /></g><g
         transform="scale(1.58709)"
         id="g208"><path
           id="path210"
           style="fill:#ffffff;fill-opacity:1;fill-rule:nonzero;stroke:none"
           d="m 13481.1,3945.79 c 97.1,-467.4 897,-480.32 1309.9,-480.32 432.9,0 1507,-8.19 1507.9,579.36 1.1,624.86 -663.6,740.04 -705.2,746.72 -1.2,0.38 -1.9,0.38 -1.9,0.38 0,0 -1688.8,141.77 -2110.7,-846.14" /></g><g
         transform="scale(1.44587)"
         id="g212"><path
           id="path214"
           style="fill:#4dafdc;fill-opacity:1;fill-rule:nonzero;stroke:none"
           d="m 16276.1,3803.95 v 0 c 7.8,0 15.7,0 23.9,0 -8.2,0 -16.1,0 -23.9,0 m -0.4,0 c -13.8,0 -27.2,0 -40,0 -295.1,0 -770.4,6.02 -1095.6,151.88 v 0 c 325.2,-145.86 800.5,-151.88 1095.6,-151.88 12.8,0 26.3,0 40,0" /></g><g
         transform="scale(1.31836)"
         id="g216"><path
           id="path218"
           style="fill:#bf7336;fill-opacity:1;fill-rule:nonzero;stroke:none"
           d="m 16124.3,9257.93 c 3,16.99 6.7,33.37 11,49.15 26.1,95.57 90.1,154.28 164.7,179.39 -93.1,-103.31 -150.3,-187.73 -175.7,-228.54" /></g><g
         transform="scale(1.36258)"
         id="g220"><path
           id="path222"
           style="fill:#bf7336;fill-opacity:1;fill-rule:nonzero;stroke:none"
           d="m 15702.2,4595.9 v 0 c -5.9,26.42 -9.6,53.8 -10.9,83.01 -29.2,552.55 -89.5,3444.05 -103.1,4114.32 l -1,48.8 c 2.3,41.54 6.9,79.85 13.8,115.44 v 0 c 24.6,39.49 80,121.17 170,221.13 27.5,9.24 56.5,13.8 85.6,13.8 127.8,0 256.9,-87.48 265.3,-247.77 53.6,-1028.85 178.1,-3449.7 174.9,-3707.23 0,-0.07 0,-0.21 0,-0.29 -254.9,-146.41 -471.2,-352.34 -594.6,-641.21" /></g><g
         transform="scale(1.58698)"
         id="g224"><path
           id="path226"
           style="fill:#bfbfdc;fill-opacity:1;fill-rule:nonzero;stroke:none"
           d="m 14828.8,3465.71 c -0.1,0 -0.2,0 -0.3,0 -12.5,0 -24.7,0 -36.5,0 -268.8,0 -701.9,5.49 -998.1,138.38 -158.7,71.2 -278,178.89 -311.9,341.97 v 0 c 105.9,248.02 291.6,424.83 510.5,550.54 -3.4,-282.04 206.3,-653.63 1204.6,-653.63 998.3,0 1066.9,437.25 1066.9,437.25 h 0.3 c 22.7,-68.94 35.7,-146.95 35.7,-235.1 v 0 c 0,-3.72 -0.1,-7.44 -0.2,-11.1 0,-0.75 0,-1.44 -0.1,-2.2 -16.1,-549.54 -989,-565.73 -1449.1,-566.11 -7.4,0 -14.6,0 -21.8,0" /></g><g
         transform="scale(1.55912)"
         id="g228"><path
           id="path230"
           style="fill:#ffd7a7;fill-opacity:1;fill-rule:nonzero;stroke:none"
           d="m 16220.9,7574.32 c -7.3,8.34 -14.7,16.55 -22.2,24.7 2,41.75 4.1,82.03 6.2,120.38 30.5,377.14 48.1,656.27 55.5,781.34 23.5,-23.99 38.9,-57.72 39.5,-100.83 0,-3.71 0.1,-7.43 0.1,-11.15 0,-103.65 -32.3,-416.07 -79.1,-814.44" /></g><g
         transform="scale(1.55156)"
         id="g232"><path
           id="path234"
           style="fill:#ffffff;fill-opacity:1;fill-rule:nonzero;stroke:none"
           d="m 16267.3,7338.11 c 2.3,105.05 6.1,205.21 10.4,297.96 7.5,-8.19 15,-16.44 22.3,-24.82 -10.3,-87.39 -21.3,-178.79 -32.7,-273.14" /></g><g
         transform="scale(1.55003)"
         id="g236"><path
           id="path238"
           style="fill:#e5c7af;fill-opacity:1;fill-rule:nonzero;stroke:none"
           d="m 16293.7,7643.59 c -1.1,1.23 -2.2,2.52 -3.3,3.68 3.3,40.19 6.5,79.22 9.6,117.41 -2.2,-38.57 -4.3,-79.09 -6.3,-121.09" /></g><g
         transform="scale(1.54944)"
         id="g240"><path
           id="path242"
           style="fill:#e5e5f1;fill-opacity:1;fill-rule:nonzero;stroke:none"
           d="m 15972.7,4907.98 v 0 0 c -1.3,0.39 -2,0.39 -2,0.39 4.3,26.65 8.6,53.37 12.9,80.09 -7.1,-51.95 -10.9,-80.48 -10.9,-80.48 m 224.4,1701.33 c 41.5,383.95 74.3,739.04 99.5,1040.89 1.1,-1.16 2.3,-2.45 3.4,-3.67 -4.3,-92.88 -8.1,-193.17 -10.5,-298.37 -28.5,-235.25 -60.3,-488.24 -92.4,-738.85" /></g><g
         transform="scale(1.55534)"
         id="g244"><path
           id="path246"
           style="fill:#ffd7a7;fill-opacity:1;fill-rule:nonzero;stroke:none"
           d="m 15912,4889.36 v 0 c -1.2,0.38 -1.9,0.38 -1.9,0.38 0,0 -85.8,7.2 -223.8,7.2 -22.9,0 -47.3,-0.19 -73,-0.7 l -28.8,0.7 459.7,3539.04 c 11.3,87.19 79.1,129.3 146.9,129.3 40.3,0 80.5,-14.79 108.9,-43.85 -7.4,-125.37 -25.1,-405.18 -55.6,-783.24 -3.1,-38.06 -6.3,-76.96 -9.6,-117.01 -25.1,-300.71 -57.8,-654.46 -99.1,-1036.95 -89.8,-701.78 -181.9,-1386.06 -212.8,-1614.7 -4.2,-26.61 -8.5,-53.23 -12.8,-79.79 0,0 0.7,0 1.9,-0.38 v 0" /></g><g
         transform="scale(1.51832)"
         id="g248"><path
           id="path250"
           style="fill:#ffffff;fill-opacity:1;fill-rule:nonzero;stroke:none"
           d="m 16300,5008.57 -306.1,7.04 c 26.4,0.53 51.3,0.73 74.9,0.73 141.3,0 229.2,-7.38 229.2,-7.38 0,0 0.7,0 2,-0.39 v 0 0 0" /></g><g
         transform="scale(1.531)"
         id="g252"><path
           id="path254"
           style="fill:#000072;fill-opacity:1;fill-rule:nonzero;stroke:none"
           d="m 16141.9,4842.72 -45.9,5.94 c -16.7,2.02 -33.8,3.92 -51,5.29 -34.4,3.46 -69.2,6.14 -104.4,8.69 -70.3,4.64 -141.4,7.84 -213.3,9.27 -71.7,0 -144.4,1.12 -217.6,-1.17 -73.3,-1.11 -147.3,-3.59 -223.1,-4.12 h -0.5 c -15.4,-0.13 -27.9,12.22 -28,27.57 -0.1,10.77 6,20.11 14.9,24.82 34.1,17.83 69,33.9 104.3,49.51 35.6,14.24 71.3,29.06 107.9,40.75 72.9,24.96 147.8,43.9 223.7,59.31 76.1,14.7 153.3,25.61 231.6,30.44 39.1,2.94 78.5,3.66 118.3,3.01 19.8,-0.46 39.8,-1.38 60.1,-2.68 21.1,-1.18 39,-2.88 64.7,-6.86 69,-10.65 116.4,-75.31 105.8,-144.35 -10.6,-68.06 -73.4,-115.02 -141.3,-106.27 l -6.2,0.85" /></g><g
         transform="scale(1.53548)"
         id="g256"><path
           id="path258"
           style="fill:#000072;fill-opacity:1;fill-rule:nonzero;stroke:none"
           d="m 16094.1,4431.84 c 46.8,-55.75 82.4,-117.29 112.8,-182.35 29.9,-65.19 53.4,-134.03 69.3,-205.8 16.7,-71.57 23.8,-146.79 22.4,-223.12 -1.3,-76.53 -16.2,-154.61 -42.4,-229.38 -23,-65.71 -95,-100.36 -160.7,-77.3 -64,22.4 -98.5,91.11 -79.1,155.32 l 2.6,8.54 c 16.1,53.27 33.8,106.87 43.6,165.16 9.5,57.89 17.9,118.27 19,180.85 4,124.91 -6.2,256.27 -21.5,392.19 l -0.2,1.24 c -1.1,10.68 6.5,20.32 17.2,21.49 6.7,0.78 13,-2.02 17,-6.84" /></g><g
         transform="scale(1.446)"
         id="g260"><path
           id="path262"
           style="fill:#000072;fill-opacity:1;fill-rule:nonzero;stroke:none"
           d="m 16081.4,4706.09 c 49.6,-59.2 87.4,-124.56 119.7,-193.64 31.7,-69.23 56.6,-142.33 73.6,-218.54 17.7,-76 25.3,-155.87 23.8,-236.93 -1.4,-81.26 -17.2,-164.17 -45,-243.56 -24.5,-69.78 -100.9,-106.57 -170.7,-82.09 -67.9,23.79 -104.6,96.75 -84,164.94 l 2.8,9.06 c 17.1,56.56 35.9,113.48 46.3,175.37 10,61.49 18.9,125.59 20.1,192.05 4.3,132.64 -6.6,272.13 -22.8,416.46 l -0.2,1.32 c -1.2,11.34 6.9,21.57 18.2,22.82 7.1,0.83 13.9,-2.15 18.2,-7.26" /></g><g
         transform="scale(1.59935)"
         id="g264"><path
           id="path266"
           style="fill:#000072;fill-opacity:1;fill-rule:nonzero;stroke:none"
           d="m 15906.3,8355.21 c 13.3,-152.75 16,-304.44 14.5,-456.19 -0.2,-75.9 -3.4,-151.56 -5.3,-227.34 l -12,-226.84 c -20.1,-302.19 -42.6,-604.31 -71.7,-905.93 -27.5,-301.75 -61.8,-602.93 -101,-903.68 l -30.2,-225.41 -34.3,-224.96 c -21.9,-150.06 -48.3,-299.62 -74.6,-449.06 l -102.3,139.49 0.2,-0.06 c 29.1,-4.56 49.5,-9.06 73.2,-14.69 22.8,-5.57 45.4,-11.51 67.6,-18.38 44.5,-13.51 88.2,-29.45 131.2,-48.08 85.8,-37.08 169,-84.85 244.2,-146.75 75.3,-61.53 141.7,-138.06 191.7,-225.28 48.7,-87.72 80.9,-184.89 93.9,-282.06 2.3,-24.19 6.1,-48.58 6.8,-72.71 l 1.3,-36.2 0.5,-18.14 -1,-20.13 -2.4,-40.2 c -0.9,-13.45 -4.2,-27.08 -6.4,-40.58 -3.8,-27.14 -12.5,-53.77 -21.1,-80.28 -36.8,-106.73 -112.7,-193.83 -192.9,-255.61 -81.6,-61.09 -169,-102.42 -256,-134.3 -87.2,-31.45 -174.8,-53.34 -261.9,-70.28 -349.2,-65.72 -692.3,-60.9 -1030,-58.52 -171.2,3 -344.8,12.87 -520,41.64 -87.6,14.81 -175.7,34.7 -263.7,63.83 -87.7,28.83 -176,69.16 -258.6,127.56 -40.8,30.57 -80.5,64.77 -115.1,106.17 -33.7,41.76 -64.6,88.03 -84.9,139.43 -20.5,50.7 -34.5,104.35 -38.7,156.87 -1.2,12.45 -3,27.89 -3.3,37.89 l -1.2,31.89 -2.5,63.72 c -5.8,169 -10,336.76 -14,504.76 l -21,1007.1 c -10.7,671.27 -34.9,1342.11 3.2,2014.32 2.2,38.58 35.2,68.03 73.7,65.84 34.9,-2 62.4,-29.27 65.7,-63.03 65.4,-669.83 70.2,-1340.98 91,-2011.63 l 30.1,-1005.78 c 5.5,-167.45 11.2,-335.14 18.4,-501.46 l 3,-62.02 1.5,-31.01 c 0.3,-10.95 1.7,-16.32 2.4,-24.7 2.5,-31.2 11,-59.46 21.9,-86.22 10.5,-27.02 27.6,-50.78 46.3,-74.16 19.4,-23.01 43.8,-43.58 70.2,-63.28 110.2,-76.46 262.7,-120.3 417.3,-146.12 156.2,-25.45 318.5,-35.01 482.7,-37.58 332.2,-2.37 665,-4.5 976.9,55.22 77.4,15.13 153.1,34.45 223.7,60.08 70.5,25.26 136.1,57.15 189.2,96.42 51.7,40.26 90.3,85.78 108.6,138.43 4.2,13.44 9.4,26.51 11,41.14 1,7.19 3.4,13.94 3.7,21.51 l 1.3,22.57 0.9,11.32 -0.4,13.25 -0.7,26.7 c -0.3,17.82 -3.3,34.95 -4.6,52.52 -8.8,69.28 -30.5,134.06 -62.5,193.27 -33.4,58.58 -77.8,111.42 -132.2,156.5 -54.2,44.96 -117,83.16 -184.8,113.3 -33.8,15.13 -68.8,28.45 -104.5,39.7 -17.7,5.82 -35.7,10.75 -53.6,15.38 -17,4.44 -37.7,8.88 -50,10.94 v 0 c -62.5,4.75 -109.3,59.28 -104.5,121.74 0.1,2.25 0.4,4.5 0.7,6.69 l 1.5,11.07 31,223.34 c 11.2,74.28 21.5,148.68 31.2,223.28 l 58.9,447.24 56.1,447.81 52.8,448.43 c 33.5,299.18 67.6,598.55 97.1,898.36 15.3,149.88 31.9,299.63 52.2,449.25 20,149.5 42.7,299.18 72.8,447.99 v 0.44 c 5.7,27.83 32.9,45.83 60.7,40.2 22.9,-4.62 39.1,-23.82 41.1,-45.95" /></g><g
         transform="scale(2.11953)"
         id="g268"><path
           id="path270"
           style="fill:#ff9a22;fill-opacity:1;fill-rule:nonzero;stroke:none"
           d="M 13467.8,8609.7 C 13040.1,7971.68 12237.2,7670.2 11435.2,7480.16 10838.4,7338.71 10228,7269.31 9618.13,7271.71 h -0.52 c -609.85,-2.4 -1220.22,67 -1817.05,208.45 -802.07,190.04 -1601.73,494.73 -2032.62,1129.54 -854.96,1259.05 -75.78,2179.4 -75.78,2179.4 31.9,531.9 121.21,993.7 252.56,1394.1 v 0.2 c -0.8,6.4 -143.85,1037.1 -145.98,2022.6 -1.55,799.1 89.36,1568.4 424.06,1737.8 703.13,356.2 2321.84,-1296.5 2321.84,-1296.5 609.33,168.2 1073.21,155.7 1073.21,155.7 0,0 0.56,0 1.6,0 30.86,0.6 483.55,6.7 1071.65,-155.7 h 0.2 c 24.5,25.2 1623.8,1650 2321.9,1296.5 748.4,-378.9 278.1,-3759.3 277.8,-3760.6 131.3,-400.4 220.6,-862.2 252.6,-1394.1 0,0 745.1,-955.21 -75.8,-2179.4" /></g><g
         transform="scale(1.80606)"
         id="g272"><path
           id="path274"
           style="fill:#ffffff;fill-opacity:1;fill-rule:nonzero;stroke:none"
           d="m 16196.7,11984.1 -51,-0.3 -0.3,0.3 c 0,0 -351,748.1 -1055.4,744.4 -704.2,-3.8 -1048.9,-659.9 -1753.4,-685.7 -704.1,-25.9 -943.4,664.5 -2047.5,664.5 -1104.1,0 -1343.45,-690.4 -2047.58,-664.5 -704.46,25.8 -1049.19,681.9 -1753.32,685.7 -704.47,3.7 -1114.42,-803.3 -1114.42,-803.3 -103.26,-483 -53.65,-1111.7 395.28,-1821.1 446.44,-705.44 1444.14,-1102.6 2385.42,-1325.63 700.42,-166 1416.72,-247.45 2132.42,-244.62 h 2.2 2.1 c 715.7,-2.83 1432.1,78.62 2132.5,244.62 941.3,223.03 1939,620.19 2385.4,1325.63 448.9,709.4 490.9,1397 387.6,1880" /></g><g
         transform="scale(1.73683)"
         id="g276"><path
           id="path278"
           style="fill:#ffffff;fill-opacity:1;fill-rule:nonzero;stroke:none"
           d="m 10307.4,14953.8 c 207.2,-0.3 376.6,171 371.9,378.2 -4,178.5 -65.1,397.2 -284.1,581.4 -459.56,386.6 -935.89,-151.9 -818.55,-566.1 84.81,-299.2 429.05,-393.1 730.75,-393.5" /></g><g
         transform="scale(1.73683)"
         id="g280"><path
           id="path282"
           style="fill:#ffffff;fill-opacity:1;fill-rule:nonzero;stroke:none"
           d="m 13167.2,14953.8 c -207.3,-0.3 -376.6,171 -372,378.2 4.1,178.5 65.2,397.2 284.2,581.4 459.5,386.6 935.9,-151.9 818.5,-566.1 -84.8,-299.2 -429,-393.1 -730.7,-393.5" /></g><g
         transform="scale(1.34523)"
         id="g284"><path
           id="path286"
           style="fill:#bf7336;fill-opacity:1;fill-rule:nonzero;stroke:none"
           d="m 8497.86,15334.1 c -16.95,98.3 -28.18,193.8 -34.5,286.5 17.99,258.5 71.59,486.3 137.38,679.4 14.49,-44.9 30.18,-90.2 47.2,-136 -59.84,-92.9 -90.76,-153.8 -90.76,-153.8 -44.16,-206.4 -67.5,-432.8 -59.32,-676.1" /></g><g
         transform="scale(1.80089)"
         id="g288"><path
           id="path290"
           style="fill:#4dafdc;fill-opacity:1;fill-rule:nonzero;stroke:none"
           d="m 16299.8,11653.4 c -12.9,193.5 -51.1,365.7 -98.1,511.8 0.1,0 0.1,0 0.1,0 46.9,-145.2 84.8,-316.6 98.2,-509.1 -0.1,-0.9 -0.1,-1.8 -0.2,-2.7" /></g><g
         transform="scale(1.80087)"
         id="g292"><path
           id="path294"
           style="fill:#bf7336;fill-opacity:1;fill-rule:nonzero;stroke:none"
           d="m 16290.3,11547.2 c 1,171.5 -16.8,330.2 -46.9,471.4 l -51.2,-0.3 -0.3,0.3 c 0,0 -8,17 -23.9,45.9 12.2,33.9 23.5,67.5 33.9,100.8 47,-146.1 85.2,-318.3 98.1,-511.8 -2.3,-34.9 -5.6,-70.4 -9.7,-106.3" /></g><g
         transform="scale(1.79991)"
         id="g296"><path
           id="path298"
           style="fill:#bfbfdc;fill-opacity:1;fill-rule:nonzero;stroke:none"
           d="m 11361.9,8844.64 c -12,0 -23.9,0 -35.9,0.06 h -0.6 c -11.9,-0.06 -24,-0.06 -35.9,-0.06 -706.2,0 -1412.64,81.73 -2103.78,245.52 -944.49,223.78 -1886.15,582.58 -2393.56,1330.14 -255.46,376.2 -386.91,726.6 -440.97,1040.2 -6.11,181.9 11.34,351.1 44.34,505.3 0,0 23.11,45.5 67.83,115 73.9,-199.1 180.24,-408.9 328.8,-627.5 507.41,-747.5 1449.07,-1106.3 2393.56,-1330.1 691.09,-163.78 1397.58,-245.51 2103.78,-245.51 12,0 23.9,0.06 35.9,0.06 h 0.6 c 11.9,0 24,-0.06 35.9,-0.06 706.2,0 1412.7,81.73 2103.9,245.51 944.4,223.8 1889.8,578.8 2393.5,1330.1 143.4,213.7 246.1,420.5 317.2,617.6 16,-28.9 24,-45.9 24,-45.9 l 0.3,-0.3 51.2,0.3 c 30.2,-141.3 48,-300.1 46.9,-471.7 -39.4,-339.6 -165.1,-723.6 -439.6,-1133 -503.7,-751.34 -1449.1,-1106.36 -2393.5,-1330.14 -691.2,-163.79 -1397.7,-245.52 -2103.9,-245.52" /></g><g
         transform="scale(1.41431)"
         id="g300"><path
           id="path302"
           style="fill:#bfbfdc;fill-opacity:1;fill-rule:nonzero;stroke:none"
           d="m 14402.7,13013.4 c -346.8,0 -523.1,233.1 -612.7,464.9 128.3,-174.8 327.7,-313.8 623.8,-313.8 262.4,0 448.7,109 577.1,255.4 -96,-211 -270.6,-406.5 -588.2,-406.5 m 915.1,906.3 c -31.4,0 -62.7,1 -93.5,3 4.7,26.5 8.1,51.8 10.4,75.3 5.6,59.8 -34,114.6 -92.7,127.9 -583.9,132.1 -608,803.5 -608.7,831.7 -1.3,64.2 -53.1,115.8 -117.3,117 -63.7,-0.4 -117.8,-48.7 -121.5,-112.8 -40.9,-724.9 -580.1,-830.6 -602.3,-834.6 -61.8,-10.5 -105,-66.8 -99.1,-129.2 2.2,-23.1 5.5,-47.8 10.1,-73.7 -38,-3.1 -76.6,-4.6 -115.7,-4.6 -380.1,0 -791.5,151.1 -908.9,573.9 -73.2,263.6 11,452.3 107.6,572.2 28.5,35.4 68.7,52.1 108.3,52.1 55,0 109,-32.3 129.4,-91.8 66,-193.5 205.3,-457.3 473.8,-457.3 6.2,0 12.5,0.2 18.8,0.5 439.8,19.8 405,734.2 405,734.2 h 581.2 581.2 c 0,0 -34.9,-714.4 405,-734.2 6.3,-0.3 12.6,-0.5 18.8,-0.5 268.5,0.1 407.8,263.8 473.9,457.3 20.3,59.5 74.3,91.8 129.3,91.8 39.6,0 79.8,-16.8 108.2,-52.1 96.7,-119.9 180.9,-308.6 107.6,-572.2 -117.4,-422.8 -528.7,-573.9 -908.9,-573.9" /></g><g
         transform="scale(2.07977)"
         id="g304"><path
           id="path306"
           style="fill:#c2f6ff;fill-opacity:1;fill-rule:nonzero;stroke:none"
           d="m 13697.1,14477.5 c -1,14.3 -2.1,28.6 -3.1,42.9 -1.7,798.8 -97.1,1558.6 -432,1728.2 -68.2,34.5 -144.8,50.5 -227.7,51.2 84,-0.3 161.7,-16.3 230.6,-51.2 341.1,-172.6 433.8,-956.7 432.2,-1771.1 m -2801.4,449.8 h -0.3 c -541.7,149.6 -970.74,158.9 -1071.37,158.9 -6.35,0 -11.4,0 -15.05,-0.1 3.75,0.1 10.14,0.2 18.99,0.2 101.6,0 528.83,-9.7 1068.43,-158.4 -0.3,-0.2 -0.5,-0.5 -0.7,-0.6 m -2187.71,0 c 0.82,0.2 1.64,0.4 2.45,0.7 -0.81,-0.3 -1.63,-0.5 -2.45,-0.7 m -0.86,0.9 c -38.47,39.1 -1355.01,1371.8 -2132.12,1371.6 v 0 c 777.11,0 2093.65,-1332.5 2132.12,-1371.6 m 16.73,3.4 c 1.01,0.3 2.07,0.6 3.08,0.9 -1.01,-0.3 -2.07,-0.6 -3.08,-0.9 m 3.12,0.9 c 2.07,0.5 4.09,1.1 6.16,1.6 -2.07,-0.5 -4.09,-1.1 -6.16,-1.6 m 9.43,2.5 c 0.91,0.3 1.82,0.5 2.74,0.8 -0.92,-0.3 -1.83,-0.5 -2.74,-0.8 m 5.33,1.5 c 0.68,0.1 1.35,0.3 1.98,0.5 -0.63,-0.2 -1.3,-0.4 -1.98,-0.5 m 3.08,0.8 c 511.45,136.6 915.92,148.5 1026.7,148.9 -110.83,-0.4 -515.29,-12.3 -1026.7,-148.9 m 1033.92,149 v 0 0 0 M 6342.58,16249 c 69.53,35 147.76,50.8 232.38,50.8 -84.57,0 -162.9,-15.8 -232.38,-50.8" /></g><g
         transform="scale(2.07977)"
         id="g308"><path
           id="path310"
           style="fill:#ffd7a7;fill-opacity:1;fill-rule:nonzero;stroke:none"
           d="m 5909.6,14477.5 v 0 c 0,7.2 0,14.4 0,21.5 0.05,806.7 94.05,1578.5 432.16,1749.6 0.29,0.1 0.53,0.3 0.82,0.4 69.48,35 147.81,50.8 232.38,50.8 h 0.05 c 777.11,0.2 2093.65,-1332.5 2132.12,-1371.6 0.57,-0.6 0.86,-0.9 0.86,-0.9 v 0 c 0.82,0.2 1.64,0.4 2.45,0.7 4.47,1.2 8.95,2.4 13.42,3.6 1.01,0.3 2.07,0.6 3.08,0.9 h 0.04 c 2.07,0.5 4.09,1.1 6.16,1.6 1.1,0.3 2.16,0.6 3.27,0.9 0.91,0.3 1.82,0.5 2.74,0.8 0.86,0.2 1.73,0.4 2.59,0.7 0.68,0.1 1.35,0.3 1.98,0.5 0.38,0.1 0.72,0.2 1.1,0.3 511.41,136.6 915.87,148.5 1026.7,148.9 2.55,0.1 4.96,0.1 7.22,0.1 v 0 c 15.09,0 22.98,-0.3 22.98,-0.3 0,0 0.58,0 1.63,0 1.11,0 1.64,0 1.64,0 0,0 1.35,0.1 3.99,0.1 3.65,0.1 8.7,0.1 15.05,0.1 100.63,0 529.67,-9.3 1071.37,-158.9 h 0.3 c 0.2,0.1 0.4,0.4 0.7,0.6 0.7,-0.2 1.5,-0.4 2.3,-0.6 0,0 1344.3,1372.5 2133,1372.5 0.9,0 1.8,0 2.6,0 82.9,-0.7 159.5,-16.7 227.7,-51.2 334.9,-169.6 430.3,-929.4 432,-1728.2 -55.7,740.6 -204.9,1498 -583.3,1498 -9.5,0 -19.3,-0.5 -29.1,-1.5 -772.4,-77.2 -1882.2,-1190.1 -1882.2,-1190.1 172.7,-53.6 256.6,-108.6 294.6,-155.9 35.6,-44.2 -1,-105.5 -52.1,-105.5 -6.8,0 -13.8,1.1 -21,3.4 -563.6,183.7 -1364.4,228.7 -1568.41,237.4 -107.99,-61.2 -322.77,-114.7 -573.04,-135.8 -73.37,-6.2 -144.2,-9.1 -210.65,-9.1 -140.21,0 -260.8,13.1 -343.98,36.4 -186.08,-32.7 -372.88,-74.7 -539,-128.9 -7.17,-2.3 -14.19,-3.4 -20.97,-3.4 -51.11,0 -87.7,61.3 -52.12,105.5 37.99,47.3 121.84,102.3 294.55,155.9 0,0 -1109.74,1112.9 -1882.13,1190.1 -9.9,1 -19.62,1.5 -29.18,1.5 -385.67,0 -533.24,-787 -586.37,-1540.9" /></g><g
         transform="scale(1.35374)"
         id="g312"><path
           id="path314"
           style="fill:#ff8095;fill-opacity:1;fill-rule:nonzero;stroke:none"
           d="m 11646.3,15583.8 c 0,-395.6 -473.9,-716.3 -1058.6,-716.3 -584.7,0 -1058.63,320.7 -1058.63,716.3 0,395.5 473.93,716.2 1058.63,716.2 584.7,0 1058.6,-320.7 1058.6,-716.2" /></g><g
         transform="scale(1.71028)"
         id="g316"><path
           id="path318"
           style="fill:#ff8095;fill-opacity:1;fill-rule:nonzero;stroke:none"
           d="m 14624.1,12335.1 c 0,-313.1 375.2,-566.9 838,-566.9 462.8,0 837.9,253.8 837.9,566.9 0,313.1 -375.1,566.9 -837.9,566.9 -462.8,0 -838,-253.8 -838,-566.9" /></g><g
         transform="scale(1.31155)"
         id="g320"><path
           id="path322"
           style="fill:#ff6687;fill-opacity:1;fill-rule:nonzero;stroke:none"
           d="m 16300,15107 c 0,0 -74.4,-782.2 -756.8,-782.2 -682.4,0 -756.8,782.2 -756.8,782.2 0,0 705.9,118.8 756.8,1019.8 0,0 17.8,-852.7 756.8,-1019.8" /></g><g
         transform="scale(1.32236)"
         id="g324"><path
           id="path326"
           style="fill:#000072;fill-opacity:1;fill-rule:nonzero;stroke:none"
           d="m 14810.7,14894.1 c 43.3,-185.6 182.8,-558.6 605.4,-558.6 421.1,0 561.1,370.4 604.9,556.8 -305.8,106.5 -493.9,332 -602.8,564.8 -164,-350.8 -445.7,-502.3 -607.5,-563 m 605.4,-814.3 c -627.3,0 -848.5,583.1 -877.9,891.4 -6.3,66.8 40,127.1 106.1,138.3 23.7,4.3 600.4,117.3 644.1,892.6 3.9,68.5 61.9,120.3 129.9,120.6 68.7,-1.2 124.1,-56.4 125.6,-125.1 0.7,-30.2 26.4,-748.2 651,-889.6 62.7,-14.1 105.1,-72.7 99.1,-136.8 -29.4,-308.3 -250.6,-891.4 -877.9,-891.4" /></g><g
         transform="scale(1.29972)"
         id="g328"><path
           id="path330"
           style="fill:#bf4c82;fill-opacity:1;fill-rule:nonzero;stroke:none"
           d="m 15684.6,14585.2 c -430,0 -571.9,379.5 -615.9,568.3 40.4,15.2 88.2,35.9 139.8,63.9 49.9,-167.5 177.8,-444.7 478.4,-444.7 296.5,0 425,270 476.3,438 42.8,-22.3 88.3,-42.2 136.8,-59 -44.5,-189.7 -187,-566.5 -615.4,-566.5" /></g><g
         transform="scale(1.31191)"
         id="g332"><path
           id="path334"
           style="fill:#000072;fill-opacity:1;fill-rule:nonzero;stroke:none"
           d="m 15541.2,14320.8 c 0,0 -683.9,107.1 -758.9,782 l 256.6,96.5 c 0,0 7,-51.4 28.3,-123.2 -51.1,-27.8 -98.4,-48.3 -138.5,-63.3 43.6,-187.1 184.2,-563.1 610.2,-563.1 424.5,0 565.6,373.4 609.7,561.3 -48,16.7 -93.1,36.3 -135.5,58.4 22.9,75.3 30.3,129.9 30.3,129.9 l 256.6,-96.5 c -75,-674.9 -758.8,-782 -758.8,-782" /></g><g
         transform="scale(1.33807)"
         id="g336"><path
           id="path338"
           style="fill:#000072;fill-opacity:1;fill-rule:nonzero;stroke:none"
           d="m 15361.2,16184 c 3.6,-41.5 5.1,-76.3 6.2,-114 1.2,-36.9 1,-73.6 0,-110.5 -2.3,-73.5 -7,-147.1 -16.7,-220.7 -9.6,-73.5 -22.3,-147.1 -39.8,-220.3 -18,-73.2 -41,-145.9 -69.1,-217.7 -29.3,-71.5 -63.6,-142.1 -105.9,-209.7 -43.8,-66.9 -94.6,-130.6 -153.4,-188.3 -60.5,-56 -127.6,-106.4 -201.3,-145.3 -74.4,-36.5 -152.5,-67.1 -232.2,-82.2 -79.4,-18.3 -159.1,-23.1 -237.6,-24.4 -38.4,0.6 -75.5,1.9 -113.3,4.3 -37.9,4.4 -75.6,6.4 -113.5,13.1 -75.9,10.6 -151.8,29.6 -226.6,53.8 -74.7,26.2 -147.9,60.2 -216.2,104.1 -68.3,43.9 -130.5,99.2 -181.6,162.9 -50.9,63.8 -90.6,135.3 -117.5,209.8 -14.1,37 -23.6,75.1 -31.9,113 -6.6,38.3 -12.1,76.3 -14.2,114.4 -2.7,76.7 1.4,150.3 23.3,225.7 5.9,20 26.9,31.6 47,25.7 13.9,-4 23.8,-15.4 26.5,-28.7 l 0.8,-3.8 c 26.6,-130.1 70.2,-256.9 133.8,-360.1 63.5,-104 146.2,-186.2 247.1,-244.2 50.3,-29.2 105.2,-52 162.9,-69.5 58.7,-15.8 118.8,-28.7 181.5,-34.5 30.8,-4.3 63,-4.2 94.4,-6.8 31.8,-0.1 64.4,-1.2 95.7,-0.8 60.6,2.8 120.8,7.5 176.9,22.3 113.7,26.3 212.5,81.9 295.3,159.7 40.5,40.5 76.9,86.1 109.5,135.8 31.3,50.9 59.7,104.9 84,162.1 46.8,115.4 80.2,240.5 101.1,369.2 10.4,64.4 19.2,129.6 24.3,195.2 2.3,32.8 4.9,65.7 6.3,98.4 1.6,32 2.3,67 2.1,95 l -0.1,5 c -0.6,69.8 55.5,126.8 125.2,127.4 66.3,0.6 121.2,-50.4 127,-115.4" /></g><g
         transform="scale(1.33979)"
         id="g340"><path
           id="path342"
           style="fill:#000072;fill-opacity:1;fill-rule:nonzero;stroke:none"
           d="m 15359,16154.7 c -0.5,-70 -2.9,-139.9 -5,-209.8 -1.8,-70 -4.4,-139.9 -7.6,-209.8 -6.2,-140 -13.6,-279.9 -22.4,-419.7 -8.6,-140 -18.4,-279.9 -29.6,-419.7 -12.5,-140 -29.2,-279.8 -61.4,-419.7 -2.3,-9.6 -11.8,-15.7 -21.5,-13.5 -6.9,1.6 -12,7.1 -13.5,13.5 -32.2,139.9 -48.8,279.7 -61.4,419.7 -11.1,139.8 -21,279.7 -29.5,419.7 -8.8,139.8 -16.3,279.7 -22.4,419.7 -3.2,69.9 -5.9,139.8 -7.7,209.8 -2,69.9 -4.5,139.8 -5,209.8 -0.6,79.2 63.1,144 142.4,144.7 79.2,0.6 144,-63.1 144.6,-142.5 v -2.2" /></g><g
         transform="scale(1.55973)"
         id="g344"><path
           id="path346"
           style="fill:#000072;fill-opacity:1;fill-rule:nonzero;stroke:none"
           d="m 11662.6,15180.4 c 53.7,-636 -281.1,-1183.5 -747.6,-1222.9 -466.5,-39.4 -888.3,444.3 -941.93,1080.2 -53.66,636 281.03,1183.5 747.53,1222.9 466.6,39.4 888.3,-444.3 942,-1080.2" /></g><g
         transform="scale(1.4993)"
         id="g348"><path
           id="path350"
           style="fill:#ffffff;fill-opacity:1;fill-rule:nonzero;stroke:none"
           d="m 11783.8,15889.5 c 19.6,-233.1 -103.1,-433.9 -274.1,-448.3 -171.1,-14.5 -325.7,162.9 -345.4,396.1 -19.6,233.1 103.1,433.8 274.1,448.3 171.1,14.4 325.7,-163 345.4,-396.1" /></g><g
         transform="scale(1.40529)"
         id="g352"><path
           id="path354"
           style="fill:#4d4d9d;fill-opacity:1;fill-rule:nonzero;stroke:none"
           d="m 11762.7,15933.4 c -70.7,0 -133,74.8 -141.2,171.9 -8.5,101.1 44.7,188.1 118.8,194.3 2.8,0.3 5.7,0.4 8.5,0.4 70.7,0 133,-74.8 141.1,-172 8.6,-101 -44.6,-188 -118.7,-194.3 -2.8,-0.2 -5.6,-0.3 -8.5,-0.3" /></g><g
         transform="scale(1.38212)"
         id="g356"><path
           id="path358"
           style="fill:#000072;fill-opacity:1;fill-rule:nonzero;stroke:none"
           d="m 14749.5,16271.6 c 0,0 -932.6,28.4 -939.6,-318.8 -7.1,-347.2 625.1,-708.6 939.6,-708.6 314.5,0 946.7,361.4 939.6,708.6 -7.1,347.2 -939.6,318.8 -939.6,318.8" /></g><g
         transform="scale(1.41001)"
         id="g360"><path
           id="path362"
           style="fill:#000072;fill-opacity:1;fill-rule:nonzero;stroke:none"
           d="m 14577.4,15342.1 c -0.3,-26.6 0.4,-59.8 1.9,-90.2 1.4,-31 3.8,-62.2 6.1,-93.3 4.8,-62.3 13.2,-124.1 22.9,-185.3 19.9,-122.2 51.6,-240.8 96,-350.3 23,-54.3 50,-105.6 79.8,-153.8 30.9,-47.3 65.5,-90.5 103.8,-128.9 78.6,-73.9 172.5,-126.7 280.3,-151.6 53.3,-14 110.3,-18.5 167.9,-21.2 29.7,-0.3 60.6,0.7 90.8,0.8 29.7,2.4 60.3,2.4 89.6,6.5 59.5,5.5 116.6,17.7 172.2,32.7 54.7,16.6 106.8,38.3 154.6,66 95.7,55 174.2,133 234.5,231.7 60.4,97.9 101.8,218.2 127,341.7 l 0.7,3.5 c 4,19.5 23,32 42.4,28.1 13.5,-2.7 23.7,-12.8 27.3,-25.2 20.8,-71.4 24.8,-141.4 22.2,-214.1 -2,-36.1 -7.2,-72.2 -13.5,-108.6 -7.8,-35.9 -16.8,-72.1 -30.3,-107.3 -25.5,-70.6 -63.2,-138.5 -111.5,-199 -48.5,-60.5 -107.5,-112.9 -172.3,-154.6 -64.8,-41.7 -134.3,-73.9 -205.1,-98.8 -71,-22.9 -143.1,-41 -215.1,-51 -36,-6.4 -71.7,-8.2 -107.7,-12.4 -35.9,-2.3 -71.2,-3.6 -107.6,-4.1 -74.4,1.2 -150,5.8 -225.4,23.1 -75.7,14.3 -149.7,43.4 -220.4,78 -70,36.9 -133.6,84.7 -191,137.9 -55.8,54.8 -104.1,115.2 -145.6,178.7 -40.2,64.1 -72.7,131.1 -100.5,199 -26.6,68.1 -48.4,137.1 -65.6,206.6 -16.6,69.5 -28.6,139.3 -37.7,209.1 -9.3,69.7 -13.7,139.6 -15.8,209.4 -1,35 -1.1,69.8 0,104.9 1,35.7 2.5,68.7 5.9,108.1 5.6,66 63.7,114.8 129.7,109.1 62.7,-5.4 109.9,-58.1 109.6,-120 l -0.1,-5.2" /></g><g
         transform="scale(1.65964)"
         id="g364"><path
           id="path366"
           style="fill:#000072;fill-opacity:1;fill-rule:nonzero;stroke:none"
           d="m 7494.35,15588 c 16.44,66.4 38.32,128.1 62.18,190.4 24.46,61.9 51.33,122.8 80.92,182.5 29.83,59.7 61.03,118.9 98.51,175 37.6,55.9 78.88,110.2 129.79,157.7 6.99,6.4 17.9,6 24.34,-1 3.74,-3.9 5.19,-9.1 4.46,-14.1 v -0.4 c -10.06,-68 -25.48,-131.2 -41.03,-194.4 -15,-63.4 -33.92,-124.7 -51.16,-186.7 l -53.68,-185 c -18.74,-61 -37.72,-123.2 -58.99,-181.7 l -0.6,-1.7 c -19.23,-52.9 -77.73,-80.2 -130.63,-61 -49.35,18 -76.29,70.5 -64.11,120.4" /></g><g
         transform="scale(1.91613)"
         id="g368"><path
           id="path370"
           style="fill:#000072;fill-opacity:1;fill-rule:nonzero;stroke:none"
           d="m 9473.31,16116.5 c -51.93,-13.8 -108.45,-29.8 -162.83,-45.7 -55.01,-15.8 -110.06,-32.2 -164.86,-49.6 -110.07,-34.3 -217.99,-73.3 -333.28,-103.3 l -0.52,-0.1 c -15.86,-4.1 -32.09,5.4 -36.22,21.3 -2.97,11.3 1.1,22.9 9.5,30.1 46.24,39.2 95.45,74.6 147.07,105.2 51.3,31.5 104.9,58.5 158.86,84.7 54.17,26 109.34,49.8 165.44,71.6 56.67,21.5 112.1,40.7 173.58,56.9 47.07,12.4 95.34,-15.7 107.76,-62.8 12.43,-47.1 -15.7,-95.4 -62.83,-107.8 l -1.67,-0.5" /></g><g
         transform="scale(1.73959)"
         id="g372"><path
           id="path374"
           style="fill:#000072;fill-opacity:1;fill-rule:nonzero;stroke:none"
           d="m 16100.7,14816.5 c -20.3,55.8 -38.5,115.2 -56.3,173.4 l -51.2,176.5 c -16.5,59.2 -34.5,117.6 -48.9,178.1 -14.7,60.3 -29.4,120.6 -39,185.5 l -0.1,0.3 c -1.3,8.9 4.9,17.3 13.9,18.7 5.1,0.7 10.1,-1.1 13.6,-4.3 48.5,-45.2 87.9,-97 123.9,-150.4 35.6,-53.5 65.5,-110 93.9,-166.9 28.3,-57 53.9,-115.2 77.2,-174.1 22.7,-59.5 43.6,-118.3 59.4,-181.7 12.9,-52.1 -18.9,-104.9 -71,-117.8 -48.6,-12.1 -97.8,14.7 -114.7,60.7 l -0.7,2" /></g><g
         transform="scale(1.91615)"
         id="g376"><path
           id="path378"
           style="fill:#000072;fill-opacity:1;fill-rule:nonzero;stroke:none"
           d="m 11847.5,16287.4 c 61.4,-16.2 116.9,-35.3 173.5,-56.9 56.1,-21.7 111.2,-45.6 165.4,-71.5 54,-26.3 107.6,-53.3 158.9,-84.7 51.6,-30.7 100.9,-66 147,-105.3 12.6,-10.6 14.1,-29.3 3.5,-41.8 -7.6,-9 -19.4,-12.3 -30.1,-9.6 l -0.5,0.2 c -115.3,30 -223.3,69 -333.3,103.2 -54.8,17.5 -109.9,33.8 -164.9,49.6 -54.4,15.9 -110.9,31.9 -162.8,45.8 l -2,0.5 c -47.1,12.6 -75,60.9 -62.5,108 12.6,47.1 60.7,75.1 107.8,62.5" /></g><g
         transform="scale(1.36762)"
         id="g380"><path
           id="path382"
           style="fill:#ffffff;fill-opacity:1;fill-rule:nonzero;stroke:none"
           d="m 15420.1,16196.8 c 0,-57.1 -231.2,-103.3 -516.3,-103.3 -285.2,0 -516.4,46.2 -516.4,103.3 0,57 231.2,103.2 516.4,103.2 285.1,0 516.3,-46.2 516.3,-103.2" /></g><g
         transform="scale(1.55973)"
         id="g384"><path
           id="path386"
           style="fill:#000072;fill-opacity:1;fill-rule:nonzero;stroke:none"
           d="m 14546.8,15180.4 c -53.7,-636 281,-1183.5 747.5,-1222.9 466.6,-39.4 888.3,444.3 942,1080.2 53.6,636 -281,1183.5 -747.6,1222.9 -466.6,39.4 -888.2,-444.3 -941.9,-1080.2" /></g><g
         transform="scale(1.4993)"
         id="g388"><path
           id="path390"
           style="fill:#ffffff;fill-opacity:1;fill-rule:nonzero;stroke:none"
           d="m 15482,15889.5 c -19.7,-233.1 103,-433.9 274,-448.3 171.1,-14.5 325.7,162.9 345.4,396.1 19.6,233.1 -103.1,433.8 -274.1,448.3 -171.1,14.4 -325.7,-163 -345.3,-396.1" /></g><g
         transform="scale(1.50674)"
         id="g392"><path
           id="path394"
           style="fill:#4d4d9d;fill-opacity:1;fill-rule:nonzero;stroke:none"
           d="m 16160.4,14860.5 c -2.7,0 -5.3,0.1 -7.9,0.4 -69.2,5.8 -118.8,86.9 -110.8,181.2 7.6,90.6 65.8,160.4 131.7,160.4 2.6,0 5.2,-0.2 7.9,-0.4 69.1,-5.8 118.7,-87 110.7,-181.2 -7.6,-90.6 -65.7,-160.4 -131.6,-160.4" /></g><g
         transform="scale(2.00504)"
         id="g396"><path
           id="path398"
           style="fill:#ff6687;fill-opacity:1;fill-rule:nonzero;stroke:none"
           d="m 8007.07,15178.1 c 0,0 -1021.73,1121.9 -1308.85,821.4 -287.13,-300.5 -60.1,-2220.3 -60.1,-2220.3 0,0 380.64,784.6 1368.95,1398.9" /></g><g
         transform="scale(1.90091)"
         id="g400"><path
           id="path402"
           style="fill:#bf7336;fill-opacity:1;fill-rule:nonzero;stroke:none"
           d="m 7236.65,14903.4 c 0,0.1 0,0.2 -0.05,0.3 154.03,209.1 389.18,482.8 720.86,755.8 -331.79,-273.1 -566.83,-547 -720.81,-756.1 m 721.07,756.3 c 0.69,0.6 1.37,1.1 2,1.7 -0.68,-0.6 -1.31,-1.1 -2,-1.7 m 3.27,2.7 c 0.26,0.2 0.52,0.4 0.73,0.6 -0.21,-0.2 -0.47,-0.4 -0.73,-0.6 m 379.34,279.7 c 0.47,0.3 0.89,0.6 1.37,0.9 -0.42,-0.3 -0.95,-0.6 -1.37,-0.9 m 2.58,1.7 c 33.56,22.1 67.81,44 102.79,65.8 0,0 -117.52,129 -285.76,290.4 168.29,-161.4 285.81,-290.4 285.81,-290.4 -35.03,-21.7 -69.28,-43.7 -102.84,-65.8" /></g><g
         transform="scale(1.97275)"
         id="g404"><path
           id="path406"
           style="fill:#bf4c82;fill-opacity:1;fill-rule:nonzero;stroke:none"
           d="m 6973.05,14360.9 c -48.51,520.8 -125.86,1628.1 57.74,1939.1 246.1,-66.1 592.42,-363.9 831.98,-593.6 162.11,-155.5 275.35,-279.8 275.35,-279.8 -33.71,-21 -66.7,-42.1 -99.05,-63.5 -0.4,-0.2 -0.76,-0.5 -1.16,-0.7 -0.46,-0.3 -0.86,-0.6 -1.32,-0.9 -133.06,-87.8 -254.47,-178.3 -364.82,-268.9 -0.2,-0.2 -0.46,-0.4 -0.71,-0.6 -0.4,-0.3 -0.81,-0.6 -1.22,-1 -0.6,-0.5 -1.26,-1.1 -1.92,-1.6 -0.1,-0.1 -0.15,-0.1 -0.25,-0.2 -319.61,-263.1 -546.2,-526.8 -694.62,-728.3" /></g><g
         transform="scale(1.98485)"
         id="g408"><path
           id="path410"
           style="fill:#000072;fill-opacity:1;fill-rule:nonzero;stroke:none"
           d="m 6897.31,16128.8 c -40.4,0 -58.95,-14.4 -69.37,-25.3 -170.4,-178.4 -135.89,-1183.5 -64.9,-1919.8 180.97,274 555.92,748.9 1193.34,1165.6 -257.7,270 -794.52,776.3 -1057,779.5 -0.71,0 -1.41,0 -2.07,0 z m -191.6,-2294.6 c -4.74,0 -9.47,0.4 -14.26,1.2 -37.28,6.3 -65.9,36.4 -70.38,73.9 -0.56,4.9 -57.94,494.2 -78.95,1014.2 -43.58,1081.8 111.64,1244.2 162.68,1297.6 49.63,52 117.95,78.9 196.59,78 414.79,-5 1165.83,-816.7 1250.12,-909.2 17.03,-18.7 24.84,-44 21.36,-69 -3.47,-25.1 -17.88,-47.3 -39.39,-60.7 -963.45,-598.9 -1347.46,-1370.4 -1351.24,-1378.1 -14.46,-29.6 -44.39,-47.9 -76.53,-47.9" /></g><g
         transform="scale(2.00504)"
         id="g412"><path
           id="path414"
           style="fill:#ff6687;fill-opacity:1;fill-rule:nonzero;stroke:none"
           d="m 12327,15178.1 c 0,0 1021.7,1121.9 1308.9,821.4 287.1,-300.5 60,-2220.3 60,-2220.3 0,0 -380.6,784.6 -1368.9,1398.9" /></g><g
         transform="scale(1.9021)"
         id="g416"><path
           id="path418"
           style="fill:#bf7336;fill-opacity:1;fill-rule:nonzero;stroke:none"
           d="m 14202.4,14894 c -154.7,210.1 -391.3,485.6 -725.6,759.9 334.3,-274.2 570.9,-549.5 725.6,-759.6 0,-0.1 0,-0.2 0,-0.3 m -726.3,760.6 c -0.4,0.3 -0.8,0.6 -1.2,0.9 0.4,-0.3 0.8,-0.7 1.2,-0.9 m -374,275.7 c -0.2,0.2 -0.4,0.3 -0.7,0.4 0.3,-0.1 0.5,-0.2 0.7,-0.4 m -2.3,1.5 c -0.7,0.5 -1.4,1 -2.1,1.4 0.7,-0.5 1.4,-0.9 2.1,-1.4 m -2.6,1.8 c -33.7,22.1 -68,44.1 -103.1,65.9 0,0 122.1,134.1 295.6,299.8 -173.5,-165.7 -295.6,-299.8 -295.6,-299.8 35.1,-21.8 69.4,-43.8 103.1,-65.9 m 192.8,366 c 0.2,0.2 0.3,0.3 0.4,0.4 -0.1,-0.1 -0.3,-0.2 -0.4,-0.4" /></g><g
         transform="scale(1.97275)"
         id="g420"><path
           id="path422"
           style="fill:#bf4c82;fill-opacity:1;fill-rule:nonzero;stroke:none"
           d="m 13693.8,14360.9 c -149.2,202.6 -377.3,468 -699.6,732.4 -0.2,0.2 -0.5,0.4 -0.7,0.6 -0.4,0.3 -0.8,0.6 -1.1,1 -108.9,89.2 -228.6,178.4 -359.5,264.9 -0.2,0.2 -0.4,0.3 -0.6,0.4 -0.6,0.4 -1.1,0.7 -1.6,1.1 -0.7,0.4 -1.4,0.9 -2.1,1.3 -0.2,0.1 -0.3,0.2 -0.5,0.3 -32.4,21.4 -65.5,42.6 -99.3,63.7 0,0 117.6,129.2 285,289 0,0.1 0.2,0.2 0.3,0.3 0.1,0.1 0.2,0.2 0.3,0.4 239.1,228.2 579.1,518.6 821.7,583.7 183.6,-311 106.3,-1418.3 57.7,-1939.1" /></g><g
         transform="scale(1.98482)"
         id="g424"><path
           id="path426"
           style="fill:#000072;fill-opacity:1;fill-rule:nonzero;stroke:none"
           d="m 12584.8,15349.5 c 637.4,-416.7 1012.4,-891.6 1193.3,-1165.6 71,736.3 105.5,1741.5 -64.9,1919.8 -10.6,11.1 -28.5,25.8 -71.4,25.3 -262.5,-3.1 -799.3,-509.5 -1057,-779.5 z m 1250.7,-1515.1 c -32.2,0 -62.2,18.2 -76.6,48 -3.8,7.6 -387.8,779.1 -1351.3,1378 -21.4,13.4 -35.9,35.6 -39.4,60.7 -3.5,25 4.4,50.3 21.4,69 84.3,92.5 835.4,904.2 1250.1,909.2 79.3,0.7 147,-26 196.7,-78 51,-53.4 206.2,-215.8 162.6,-1297.6 -21,-520 -78.3,-1009.3 -78.9,-1014.2 -4.5,-37.6 -33.1,-67.7 -70.4,-74 -4.8,-0.7 -9.6,-1.1 -14.2,-1.1" /></g><g
         transform="scale(2.10361)"
         id="g428"><path
           id="path430"
           style="fill:#000072;fill-opacity:1;fill-rule:nonzero;stroke:none"
           d="m 9690.16,7407.04 c 610.94,-3.14 1220.54,67.5 1813.04,207.88 642.6,152.31 1549,432.49 1999.8,1104.72 328.8,490.21 442.5,992.06 338,1491.56 -78.3,374.3 -256.6,607.9 -258.4,610.2 -9.9,12.8 -15.8,28.4 -16.8,44.6 -30.1,503.7 -114.5,969.4 -250.5,1384.2 -3.9,11.7 -5,24.1 -3.3,36.3 1.2,8.4 118.6,857.3 142.3,1747.4 40.3,1517.1 -220.1,1878.5 -379,1958.9 -537.2,272 -1800.1,-836.5 -2244,-1289.1 -18.7,-20.3 -46.9,-30 -74.9,-24.4 -2.5,0.5 -5.1,1.1 -7.6,1.9 -595.6,163.9 -1051.32,153.6 -1055.97,153.5 -1.43,0 -2.9,0 -4.33,0 -4.47,0.1 -463.96,10 -1057.8,-154 -28.1,-7.9 -58.33,0.3 -78.77,21.2 -442.29,451.4 -1707.83,1563.3 -2245.81,1290.9 -158.87,-80.4 -419.33,-441.9 -378.97,-1959.1 23.58,-886 141.05,-1738.6 142.19,-1747.1 1.75,-12.5 0.52,-25.3 -3.57,-37.2 -135.86,-414.3 -220.1,-879.9 -250.33,-1383.5 -1.05,-17.3 -7.65,-33.8 -18.87,-47.1 -1.76,-2.1 -187.63,-226.7 -269.54,-595.7 -109.43,-493.15 8.7,-998.9 351.02,-1503.13 457.73,-674.08 1360.71,-953.5 2000.08,-1105.05 592.51,-140.38 1202.22,-210.78 1812.03,-207.88 z m 32,-160.77 c -10.6,0 -21.11,0 -31.66,0.05 -622.51,-2.38 -1244.63,68.92 -1849.45,212.25 -665.47,157.68 -1606.76,450.7 -2095.97,1171.18 -461.16,679.16 -457.4,1264.82 -373.07,1636.55 77.34,340.9 232.36,565.9 284.56,634.5 31.9,500.9 116.32,965.7 251.09,1382.2 -17.35,130.2 -119.27,924.3 -141.18,1746.4 -33.04,1241.8 119.74,1931 467,2106.8 323.45,163.8 834.81,-13.2 1519.96,-526 414.43,-310.2 771.58,-655.3 879.82,-762.4 581.05,154.1 1018.49,148.5 1057.38,147.6 38.74,0.9 476.36,6.6 1057.56,-147.6 108.2,107.1 465.3,452.2 879.8,762.4 685.1,512.8 1196.6,689.7 1519.9,526 347.7,-176 500.4,-866.6 466.9,-2111.1 -22.4,-830.8 -123.5,-1612.2 -141.1,-1742.4 134.9,-416.9 219.3,-882.1 251.1,-1383.5 48.6,-68.9 197.9,-300.9 271.8,-647.1 80.2,-375.4 82.8,-961.54 -360.1,-1621.97 -482.3,-719.15 -1427.4,-1013.07 -2096.3,-1171.56 -594.5,-140.9 -1206,-212.3 -1818.04,-212.3" /></g></g></g></svg>