<?xml version="1.0" encoding="UTF-8" standalone="no"?>
<svg
   xmlns:dc="http://purl.org/dc/elements/1.1/"
   xmlns:cc="http://creativecommons.org/ns#"
   xmlns:rdf="http://www.w3.org/1999/02/22-rdf-syntax-ns#"
   xmlns:svg="http://www.w3.org/2000/svg"
   xmlns="http://www.w3.org/2000/svg"
   viewBox="0 0 5333.3335 5333.3335"
   height="5333.3335"
   width="5333.3335"
   xml:space="preserve"
   id="svg2"
   version="1.1"><metadata
     id="metadata8"><rdf:RDF><cc:Work
         rdf:about=""><dc:format>image/svg+xml</dc:format><dc:type
           rdf:resource="http://purl.org/dc/dcmitype/StillImage" /></cc:Work></rdf:RDF></metadata><defs
     id="defs6"><clipPath
       id="clipPath304"
       clipPathUnits="userSpaceOnUse"><path
         id="path302"
         d="m 18380.3,6640.8 c -345.3,41.4 -687,96.3 -1025.1,164.5 -21.2,184.5 -62.6,479.4 -138,813.3 -65.3,287.7 -155.9,604.4 -280.7,904 -0.1,0.3 -0.2,0.7 -0.4,0.9 0,0.1 -0.1,0.3 -0.1,0.4 -31.5,75.4 -65.1,149.8 -101,222.3 247.8,-202.7 573.2,-309.9 896.3,-309.9 223.5,0 445.9,51.4 640.6,157.8 107,-565.1 134.5,-1219.9 8.4,-1953.3 m -4290.6,1291.8 c -282.2,141.9 -558.8,293.9 -829.8,455.8 9.9,91.2 14.7,184 14.7,277.4 0,0.7 0,1.5 0,2.2 0,0 0,0 0,0.1 -0.3,972.7 -515.6,2014.9 -1127.8,2106.6 -35.1,5.3 -69.8,9.4 -103.9,12.5 -51.8,4.7 -102.3,6.9 -151.6,6.9 -555.7,0 -947.9,-279.9 -1139,-455.2 -554.2,551.6 -1062.46,1156.5 -1517.02,1809.9 56.58,80 112.13,159.8 166.62,239.3 357.29,-502.9 875.3,-894.8 1464.9,-1082.4 571.6,-181.6 1214.7,-190.3 1707,-532.9 501.1,-348.4 749.4,-981.8 1257.7,-1320.5 189.7,-126.2 396.8,-201.3 614.4,-242.8 -238.1,-349.5 -351.8,-819.2 -356.2,-1276.9" /></clipPath></defs><g
     transform="matrix(1.3333333,0,0,-1.3333333,0,5333.3333)"
     id="g10"><g
       transform="scale(0.1)"
       id="g12"><g
         transform="scale(2.45399)"
         id="g14"><path
           id="path16"
           style="fill:#ffffff;fill-opacity:1;fill-rule:nonzero;stroke:none"
           d="M 16300,0 H 0 V 16300 H 16300 V 0" /></g><g
         transform="scale(2.03613)"
         id="g18"><path
           id="path20"
           style="fill:#02daff;fill-opacity:1;fill-rule:nonzero;stroke:none"
           d="m 16300,9599.61 c 0,-1113.43 -279.8,-2161.35 -773.1,-3077.55 -945.4,-1756.51 -2675.1,-3028.19 -4720.4,-3346.63 h -0.2 c -328.7,-51.27 -665.4,-77.84 -1008.32,-77.84 -234.47,0 -466.08,12.32 -693.87,36.78 -1946.82,206.42 -3637.08,1271.92 -4684.3,2810.32 -709.29,1041.78 -1123.86,2299.9 -1123.86,3654.92 0,3591.09 2910.96,6501.99 6502.03,6501.99 3591.02,0 6502.02,-2910.9 6502.02,-6501.99" /></g><g
         transform="scale(1.96968)"
         id="g22"><path
           id="path24"
           style="fill:#ff9331;fill-opacity:1;fill-rule:nonzero;stroke:none"
           d="M 16300,7280.19 C 16039.2,6700.75 15592.5,6008 15311.9,5668.5 14670.2,4891.87 13857.5,4261.67 12931,3836.06 c -14.2,-6.85 -28.5,-13.25 -42.7,-19.59 -4.4,-1.98 -8.6,-3.96 -13,-5.69 -426.1,-191.3 -875.5,-339.5 -1343.3,-438.6 -31.4,-6.85 -63.3,-13.25 -94.9,-19.6 -36.4,-7.1 -72.4,-14.01 -109,-20.61 -51.7,-9.34 -104,-17.92 -156.3,-26.25 h -0.2 c -21.8,1.22 -1059.2,60.57 -1496.35,667.47 -95.9,133.43 -172.46,349.1 -213.89,618.43 -127.59,827.9 74.07,2162.13 1044.74,3168.14 165.6,171.7 353.7,333.61 566.4,482.01 l 3286.9,565.21 c 0,0 295.1,-13.24 660.8,-220.28 442.1,-249.99 829.7,-411.39 1279.8,-1306.51" /></g><g
         transform="scale(1.95671)"
         id="g26"><path
           id="path28"
           style="fill:#ffd4ad;fill-opacity:1;fill-rule:nonzero;stroke:none"
           d="m 9588.59,5057.31 c -2.1,166.2 7.92,346.3 33.52,536.67 105.64,784.99 447.69,1522.35 965.89,2086.15 62.6,-43.23 129.8,-84.07 200.9,-122.35 -44.8,-42.06 -88.1,-84.83 -129.9,-128.27 C 9960.33,6705.43 9657.43,5812.25 9588.59,5057.31 m 6703.81,2246.01 c -371.9,595.09 -710.6,744.57 -1089.4,958.86 -51.3,29.03 -101.2,54.22 -149.2,76.2 44.5,55.76 86.2,113.15 125,172.38 328.3,-153.78 755.3,-483.41 1121.2,-1188.32 -2.5,-6.39 -5,-12.73 -7.6,-19.12" /></g><g
         transform="scale(1.85028)"
         id="g30"><path
           id="path32"
           style="fill:#f2d4d4;fill-opacity:1;fill-rule:nonzero;stroke:none"
           d="M 16300,6034.29 C 15269.6,4786.85 13824.2,3894.55 12175.1,3568.93 c -131.7,337.14 -204.8,711.3 -204.8,1105.35 0,1485.61 1040.7,2689.7 2324.2,2689.7 854.6,0 1601.8,-533.97 2005.5,-1329.69" /></g><g
         transform="scale(1.98193)"
         id="g34"><path
           id="path36"
           style="fill:#000072;fill-opacity:1;fill-rule:nonzero;stroke:none"
           d="m 11042.2,8098.41 c -192.9,-136.18 -371.4,-288.96 -530.9,-454.36 -544.16,-563.99 -903.45,-1317.3 -1011.63,-2121.26 -97.08,-721.62 32.95,-1292.32 194.86,-1517.2 386.57,-536.6 1292.47,-614.71 1403.57,-622.33 87.6,13.88 169.2,28.36 249.3,44.2 1480.3,292.34 2828,1097.82 3794.6,2268.09 274,331.5 756.7,1037.52 950.6,1533.71 -404.7,779.69 -885.2,1094.33 -1219.4,1220.83 -318.6,120.64 -542,184.77 -607.2,202.68 l -3223.8,-554.36 m 60.6,-4910.66 c -1.9,0 -3.9,0.05 -5.8,0.15 -44.8,2.52 -1103.57,69.07 -1560.7,703.71 -228.26,316.96 -320.65,982.98 -229.93,1657.22 113.73,844.78 491.79,1636.99 1064.53,2230.65 173.1,179.47 367.4,344.76 577.3,491.29 11.8,8.22 25.2,13.72 39.3,16.14 l 3266.6,561.68 c 13.5,2.37 27.4,1.81 40.7,-1.62 10.3,-2.67 256.4,-66.4 647.4,-214.49 372,-140.77 907,-489.87 1343.9,-1353.27 12.2,-24.17 13.9,-52.27 4.6,-77.65 -192.7,-524.59 -699.8,-1269.12 -998.4,-1630.23 -995.1,-1204.83 -2382.8,-2034.18 -3907.1,-2335.15 -85.7,-17 -173.2,-32.44 -267.3,-47.27 -5,-0.76 -10.1,-1.16 -15.1,-1.16" /></g><g
         transform="scale(1.81264)"
         id="g38"><path
           id="path40"
           style="fill:#42f4d2;fill-opacity:1;fill-rule:nonzero;stroke:none"
           d="m 16300,9213.61 c -460.7,-685.68 -1592.8,-1336.55 -2775,-1336.89 -823.9,-0.16 -1558.4,128.55 -2108.7,555.22 179.9,186.63 384.3,362.61 615.4,523.93 l 3571.7,613.96 c 0,0 321.2,-96.71 696.6,-356.22" /></g><g
         transform="scale(1.83137)"
         id="g42"><path
           id="path44"
           style="fill:#000072;fill-opacity:1;fill-rule:nonzero;stroke:none"
           d="m 11462.3,8359.65 c 420,-276.62 1142.2,-512.4 1917,-458.18 1203,84.2 2163.8,555.82 2656.3,1299.03 -283,164.03 -541.1,166.87 -581.1,166.21 l -3504.6,-602.39 c -174.4,-123.24 -337.9,-258.99 -487.6,-404.67 m 1703,-676.6 c -711.5,0 -1463.5,221.75 -1929.9,578.86 -23.8,18.29 -38.7,45.92 -41,75.9 -2.3,29.98 8.4,59.52 29.2,81.14 187.3,194.28 397.4,373.22 624.6,531.9 12.8,8.85 27.3,14.85 42.6,17.47 l 3535.2,607.69 c 4.2,0.71 8.4,1.15 12.6,1.37 16.5,0.82 405.8,16.76 802.3,-257.3 45.7,-31.61 59.1,-93.26 30.6,-140.93 -509.7,-853.46 -1558.5,-1395.9 -2877.4,-1488.23 -75.5,-5.24 -152,-7.87 -228.8,-7.87" /></g><g
         transform="scale(1.61076)"
         id="g46"><path
           id="path48"
           style="fill:#ffb012;fill-opacity:1;fill-rule:nonzero;stroke:none"
           d="m 16300,8549 c 0,-298.18 -241.7,-539.93 -539.9,-539.93 -298.2,0 -540,241.75 -540,539.93 0,298.19 241.8,539.94 540,539.94 298.2,0 539.9,-241.75 539.9,-539.94" /></g><g
         transform="scale(1.61075)"
         id="g50"><path
           id="path52"
           style="fill:#ffd4ad;fill-opacity:1;fill-rule:nonzero;stroke:none"
           d="m 16300,8568.25 c -0.1,0.13 -0.1,0.25 -0.2,0.37 -3,82.82 -24.4,161.05 -60.8,230.21 -16.6,31.91 -36.4,61.96 -58.9,89.71 0.1,0 0,0 0.1,0 71.3,-88.1 115.5,-199.16 119.8,-320.29" /></g><g
         transform="scale(1.57071)"
         id="g54"><path
           id="path56"
           style="fill:#b3fbed;fill-opacity:1;fill-rule:nonzero;stroke:none"
           d="m 16299.9,9303.36 c -44.1,11.34 -90.2,17.32 -137.9,17.32 0,0 0,0 0.1,0 47.6,0 93.8,-5.98 137.9,-17.32 h -0.1" /></g><g
         transform="scale(1.59891)"
         id="g58"><path
           id="path60"
           style="fill:#9999c7;fill-opacity:1;fill-rule:nonzero;stroke:none"
           d="m 16299.9,8954.36 c -72.4,89.44 -172.6,155.48 -287.4,184.94 h 0.1 c 114.8,-29.46 215,-95.44 287.4,-184.94 -0.1,0 0,0 -0.1,0" /></g><g
         transform="scale(1.60472)"
         id="g62"><path
           id="path64"
           style="fill:#ffdfa0;fill-opacity:1;fill-rule:nonzero;stroke:none"
           d="m 15372.2,8551.25 c -34.2,34.34 -63.8,73.23 -87.9,115.72 -0.3,-1.99 -0.6,-3.99 -0.9,-6.04 38.6,261.48 263.9,462.2 536,462.2 46.7,0 91.9,-5.86 135.1,-16.95 114.4,-29.35 214.2,-95.16 286.4,-184.27 22.5,-27.86 42.4,-58.02 59.1,-90.05 -2.9,5.42 -5.8,10.78 -8.8,16.08 -6,-38.2 -16.1,-75.03 -29.7,-110.11 -98.2,98.52 -233.9,159.46 -383.9,159.46 -230.2,0 -426.9,-143.57 -505.4,-346.04" /></g><g
         transform="scale(1.5167)"
         id="g66"><path
           id="path68"
           style="fill:#cc763e;fill-opacity:1;fill-rule:nonzero;stroke:none"
           d="m 16299.9,8708.45 c -83.6,98.57 -134.5,225.89 -135.9,365 1.4,-139.11 52.3,-266.37 136,-365 -0.1,-0.07 0,0 -0.1,0" /></g><g
         transform="scale(1.55741)"
         id="g70"><path
           id="path72"
           style="fill:#c2aac0;fill-opacity:1;fill-rule:nonzero;stroke:none"
           d="m 16300,8283.46 c -170.9,0 -323.7,76.6 -426.1,197.38 0.1,0 0,-0.07 0.1,0 102.4,-120.78 255.3,-197.38 426,-197.38 v 0 0" /></g><g
         transform="scale(1.61076)"
         id="g74"><path
           id="path76"
           style="fill:#cc763e;fill-opacity:1;fill-rule:nonzero;stroke:none"
           d="m 16300,8549 c 0,0.5 0,1.06 0,1.56 0,-0.5 0,-1.06 0,-1.56 m -1079.9,0 c 0,0.5 0,1.06 0,1.56 0,-0.5 0,-1.06 0,-1.56 m 1079.9,1.93 c 0,0.56 0,1.05 0,1.55 0,-0.5 0,-1.06 0,-1.55 m -1079.9,0.37 c 0,0.25 0,0.44 0,0.68 0,-0.24 0,-0.43 0,-0.68 m 1079.9,1.24 c 0,0.5 0,1.12 0,1.62 0,-0.56 0,-1.06 0,-1.62 m 0,1.74 c -0.1,4.78 -0.2,9.56 -0.3,14.34 v -0.06 c 0.1,-4.72 0.2,-9.5 0.3,-14.28" /></g><g
         transform="scale(1.61076)"
         id="g78"><path
           id="path80"
           style="fill:#cc8d25;fill-opacity:1;fill-rule:nonzero;stroke:none"
           d="m 15760.1,8009.07 c -165.1,0 -312.9,74.07 -412,190.84 -78.7,92.88 -126.7,212.7 -128,343.69 0,1.8 0,3.6 0,5.4 v 0 0 c 0,0.5 0,1.06 0,1.56 0,0.24 0,0.49 0,0.74 0,0.25 0,0.44 0,0.68 0.2,25.95 2.3,51.47 6,76.49 -3.9,-25.89 -5.8,-52.46 -5.8,-79.47 0,-87.91 21,-170.66 58.2,-243.86 -0.3,6.27 -0.3,12.61 -0.3,18.88 0,68.84 12.8,134.65 36.4,195.18 97.7,-98.15 233,-158.87 382.5,-158.87 229.3,0 425.3,142.98 503.4,344.75 39.8,-39.86 73.4,-85.86 99.2,-136.46 0.1,-4.78 0.2,-9.56 0.3,-14.34 0,0 0,-0.06 0,-0.12 0,-0.5 0,-1.12 0,-1.62 v -0.06 c 0,-0.5 0,-0.99 0,-1.55 0,-0.13 0,-0.25 0,-0.37 0,-0.5 0,-1.06 0,-1.56 v 0 0 c 0,-298.18 -241.8,-539.93 -539.9,-539.93 v 0" /></g><g
         transform="scale(1.61073)"
         id="g82"><path
           id="path84"
           style="fill:#ccaaa1;fill-opacity:1;fill-rule:nonzero;stroke:none"
           d="m 16300,8568.72 v 0.06 c -3,82.83 -24.6,160.86 -60.8,230.15 36.4,-69.16 57.8,-147.39 60.8,-230.21" /></g><g
         transform="scale(1.61073)"
         id="g86"><path
           id="path88"
           style="fill:#ccb297;fill-opacity:1;fill-rule:nonzero;stroke:none"
           d="m 15278.8,8305.3 c -37.2,73.2 -58.2,155.96 -58.2,243.87 0,27 1.9,53.57 5.8,79.46 0.3,2.05 0.6,4.04 0.9,6.03 24,-42.34 53.5,-81.09 87.6,-115.29 -23.6,-60.53 -36.4,-126.35 -36.4,-195.19 0,-6.27 0,-12.61 0.3,-18.88 m 1021.2,263.48 c -25.8,50.6 -59.4,96.61 -99.1,136.47 13.5,34.95 23.5,71.64 29.6,109.7 2.9,-5.28 5.9,-10.62 8.7,-16.02 36.2,-69.29 57.8,-147.32 60.8,-230.15" /></g><g
         transform="scale(1.62262)"
         id="g90"><path
           id="path92"
           style="fill:#000072;fill-opacity:1;fill-rule:nonzero;stroke:none"
           d="m 15644.9,8903.44 c -229.9,0 -416.9,-187.04 -416.9,-416.92 0,-229.87 187,-416.85 416.9,-416.85 229.9,0 416.9,186.98 416.9,416.85 0,229.88 -187,416.92 -416.9,416.92 z m 0,-1072.03 c -361.2,0 -655.1,293.91 -655.1,655.11 0,361.21 293.9,655.12 655.1,655.12 361.3,0 655.1,-293.91 655.1,-655.12 0,-361.2 -293.8,-655.11 -655.1,-655.11" /></g><g
         transform="scale(1.5722)"
         id="g94"><path
           id="path96"
           style="fill:#ff9331;fill-opacity:1;fill-rule:nonzero;stroke:none"
           d="m 15968.4,3760.34 c -450.6,-440.97 -1386,-381.95 -1776.3,414.01 -67,136.75 -118,295 -147.2,476.66 l -0.3,0.64 c -7.7,46.05 -13.8,93.37 -18.5,142.54 l -1137.1,645.4 c 0,0 53.2,16.92 146.3,41.79 564.6,150.93 2596.6,597.44 3089,-639.24 7.9,-19.65 15.3,-39.94 22.3,-60.55 v -0.25 c 153.4,-447.53 49.5,-798.19 -178.2,-1021" /></g><g
         transform="scale(1.5731)"
         id="g98"><path
           id="path100"
           style="fill:#cccce3;fill-opacity:1;fill-rule:nonzero;stroke:none"
           d="m 15246.9,3484.34 c -368.9,0 -758.8,178.3 -1000.7,574.08 v 0 c 242,-395.65 631.8,-574.08 1000.7,-574.08 271.2,0 531.1,96.43 712.4,273.85 v 0 0 c 153.3,150.09 250.5,358.14 250.6,614.71 0.1,55.05 -4.3,112.26 -13.6,171.64 103.7,-663.73 -399.4,-1060.2 -949.4,-1060.2" /></g><g
         transform="scale(1.36398)"
         id="g102"><path
           id="path104"
           style="fill:#cc763e;fill-opacity:1;fill-rule:nonzero;stroke:none"
           d="m 16126.1,4916.05 c -161.4,11.07 -1477.8,124.56 -2039.5,904.26 -87.1,121.12 -167.9,311.15 -228,555.8 272,-399.27 880.2,-1031.54 2003,-1031.54 104.5,0 213.3,5.5 326.9,17.16 l 0.4,-0.73 v 0 c 24.5,-152.72 62.4,-291.06 111.1,-415.92 -56.5,-9.97 -114.2,-19.57 -173.9,-29.03" /></g><g
         transform="scale(1.37489)"
         id="g106"><path
           id="path108"
           style="fill:#000072;fill-opacity:1;fill-rule:nonzero;stroke:none"
           d="m 16300,4643.5 c -25.2,41.24 -49,84.52 -71.3,129.9 -74.1,-13.38 -148.9,-25.67 -223.9,-37.6 h -0.2 c -31.3,1.74 -1517.5,86.77 -2143.8,956.22 -67.3,93.53 -127.8,215.29 -179.1,360.47 -25.4,206.99 -65.2,400.61 -114.4,579.68 1.1,3.27 2.2,6.54 3.2,9.74 0,0 53.6,-133.6 178.2,-316.39 59.5,-242.7 139.7,-431.23 226.2,-551.38 557.2,-773.52 1863.1,-886.11 2023.3,-897.1 59.2,9.39 116.4,18.92 172.5,28.81 17.9,-45.97 37.3,-90.12 58,-132.45 22.3,-45.38 46.1,-88.66 71.3,-129.9 v 0" /></g><g
         transform="scale(1.56309)"
         id="g110"><path
           id="path112"
           style="fill:#cccce3;fill-opacity:1;fill-rule:nonzero;stroke:none"
           d="m 16300,4573.9 c -0.1,0.64 -0.2,1.28 -0.3,1.92 0.1,-0.64 0.2,-1.28 0.3,-1.92 m -0.4,2.56 c -0.1,0.51 -0.2,1.09 -0.2,1.6 0,-0.58 0.1,-1.09 0.2,-1.6 m -0.4,2.43 c -0.1,0.45 -0.1,0.77 -0.2,1.22 0,-0.39 0.2,-0.83 0.2,-1.22 m -0.4,2.43 c 0,0.19 0,0.32 -0.1,0.51 0.1,-0.19 0.1,-0.25 0.1,-0.51" /></g><g
         transform="scale(1.56256)"
         id="g114"><path
           id="path116"
           style="fill:#000072;fill-opacity:1;fill-rule:nonzero;stroke:none"
           d="m 16247.8,4806.07 v 0 0 m -0.8,2.31 c -0.2,0.83 -0.6,1.6 -0.8,2.43 0.3,-0.83 0.6,-1.6 0.8,-2.43 m -0.8,2.43 v 0 0.26 0 c -7.1,20.73 -14.5,41.14 -22.5,60.92 l 76.3,-36.48 c -17.9,-8.64 -35.9,-16.7 -53.8,-24.7" /></g><g
         transform="scale(1.55741)"
         id="g118"><path
           id="path120"
           style="fill:#cc763e;fill-opacity:1;fill-rule:nonzero;stroke:none"
           d="m 15400.6,3519.45 c -372.7,0 -766.4,180.23 -1010.8,579.87 -22.3,36.41 -43.3,74.61 -63,114.68 -18.3,37.37 -35.4,76.34 -51.2,116.92 -42.6,109.35 -75.8,230.51 -97.3,364.26 8.6,-12.39 158.2,-228.33 406.3,-430.33 223.6,-181.78 526.8,-352 878.8,-352 41.4,0 83.4,2.38 126.2,7.33 344.1,39.87 520.5,216.25 609.5,407.85 7.8,-160.46 -16.9,-337.48 -79,-531.97 v 0 c -183.1,-179.21 -445.6,-276.61 -719.5,-276.61 M 16300,4827 c -7.1,20.81 -14.6,41.29 -22.6,61.13 v 0 c 8,-19.84 15.5,-40.32 22.6,-61.13 v 0" /></g><g
         transform="scale(1.56309)"
         id="g122"><path
           id="path124"
           style="fill:#ffd4ad;fill-opacity:1;fill-rule:nonzero;stroke:none"
           d="m 16140.1,4312.29 c -20.7,425.82 -271.7,734.25 -663.3,940.38 -471.1,247.9 -1108.6,306.12 -1603.1,306.12 -437.1,0 -762.4,-45.49 -762.4,-45.49 263,70.31 843.2,204.53 1439.1,204.53 690.4,0 1402,-179.9 1667.8,-847.48 v 0 c 0,0 3.9,-25.66 6.1,-68.33 5.6,-102.3 2.4,-303.24 -84.2,-489.73 m 159.9,261.34 c -0.1,0.06 -0.1,0.19 -0.1,0.25 0,-0.06 0,-0.19 0.1,-0.25 m -0.4,2.17 c 0,0.26 0,0.39 0,0.64 0,-0.19 0,-0.45 0,-0.64 m -0.3,2.24 c -0.1,0.26 -0.1,0.58 -0.1,0.83 0,-0.25 0,-0.57 0.1,-0.83 m -0.3,2.05 c -0.1,0.38 -0.2,0.89 -0.3,1.21 0.1,-0.38 0.2,-0.83 0.3,-1.21 m -0.3,1.73 c -11.7,71.2 -30.2,145.48 -56.4,222.63 26.2,-77.15 44.7,-151.43 56.4,-222.63 m -56.4,222.63 c -0.3,0.77 -0.5,1.6 -0.8,2.31 0.3,-0.77 0.5,-1.54 0.8,-2.31" /></g><g
         transform="scale(1.56441)"
         id="g126"><path
           id="path128"
           style="fill:#ebc8b2;fill-opacity:1;fill-rule:nonzero;stroke:none"
           d="m 16047.9,3779.06 c 61.8,193.62 86.4,369.85 78.6,529.59 86.5,186.33 89.8,387.11 84.1,489.32 -2.1,42.64 -6.1,68.27 -6.1,68.27 8,-19.75 15.4,-40.14 22.5,-60.85 v -0.26 0 0 0 c 0.3,-0.83 0.6,-1.6 0.8,-2.43 0.3,-0.7 0.5,-1.53 0.8,-2.3 v 0 c 26.1,-77.09 44.7,-151.3 56.3,-222.45 0.1,-0.19 0.1,-0.32 0.1,-0.51 0,-0.32 0.2,-0.83 0.2,-1.21 0.1,-0.45 0.1,-0.77 0.2,-1.22 0,-0.25 0.1,-0.58 0.2,-0.83 0,-0.51 0.1,-1.09 0.2,-1.6 0,-0.25 0.1,-0.38 0.1,-0.64 0.1,-0.64 0.2,-1.28 0.3,-1.91 0,-0.07 0,-0.2 0.1,-0.26 9.3,-59.7 13.7,-117.23 13.6,-172.59 -0.1,-257.99 -97.8,-467.2 -252,-618.12" /></g><g
         transform="scale(1.57766)"
         id="g130"><path
           id="path132"
           style="fill:#000072;fill-opacity:1;fill-rule:nonzero;stroke:none"
           d="m 12838.7,5438.7 c 142.7,71.69 291.2,126.64 442.2,175.26 75.6,23.64 151.8,46.27 228.9,65.1 76.9,19.71 154.5,37.46 232.6,52.48 156.3,30.3 315,51.03 475.3,60.66 160.1,9 321.8,4.82 483.3,-10.4 161.4,-16.47 323.1,-41.51 482.7,-84.93 159.2,-43.1 317,-103.89 462.2,-193.2 145,-88.61 277.2,-205.24 378.6,-345.51 101,-140.02 173.6,-299.62 214,-462.97 42.9,-163.4 61.5,-339.62 31.7,-515.13 -27.9,-175.13 -107.1,-345.7 -226.3,-480.52 -118.6,-135.96 -275.1,-231.99 -440.1,-291.13 -165.7,-59.33 -342.9,-79.68 -516.7,-65.35 -173.6,15.65 -344.8,66.05 -497.2,151.36 -152.6,84.62 -286.7,201.51 -390.1,338.86 -103.9,136.79 -183.3,290.18 -225.7,452 -9,40.82 -17.6,81.51 -24.9,122.21 -5.9,40.94 -7.5,82.53 -9.9,123.47 l -2.1,61.36 c 1.5,20.66 2.7,41.2 4.8,61.67 4.1,41.01 8.9,81.64 16.9,121.83 2.1,10.65 12.4,17.56 23,15.4 6.3,-1.2 11.3,-5.39 13.9,-10.78 l 0.5,-1.01 c 69.5,-148 116.2,-289.99 182.1,-421.51 64.1,-130.83 130.5,-257.09 221.1,-364.59 90.1,-106.87 198,-196.69 319.9,-260.71 121.7,-63.76 255.5,-104.64 392.4,-116.37 136.7,-13.25 276,2.09 404.9,44.31 128.5,42.72 248.2,112.69 337.2,210.56 89.2,97.3 148.8,219 172.3,351.09 23.2,132.29 11.3,273.19 -24.6,410.55 -34.3,139.44 -94.1,268.31 -175.3,381.26 -81.5,112.76 -187.4,206.63 -308.2,280.61 -242.8,147.68 -539.2,216.33 -837,233 -149.5,8.24 -300.1,6.91 -451.4,1.14 -151.3,-4.69 -303.3,-13.94 -455.9,-26.18 -305.4,-23.32 -612.1,-62.05 -923.7,-99.7 l -0.5,-0.07 c -10.4,-1.26 -19.9,6.15 -21.2,16.61 -1,8.11 3.4,15.72 10.3,19.27" /></g><g
         transform="scale(1.89829)"
         id="g134"><path
           id="path136"
           style="fill:#ff9331;fill-opacity:1;fill-rule:nonzero;stroke:none"
           d="m 16275.6,6392.74 c -43.6,-73.28 -171,-272.82 -398.9,-524.58 0,0 423.3,-1566.61 -620.3,-1770.27 -150.9,-29.5 -280.7,-8.9 -389.9,49.41 -395.6,210.24 -518.2,915.3 -386.6,1525.63 13.2,61.11 29,121.43 47.3,180.22 v 0.53 l 0.3,0.47 c 96.7,310.07 264.1,576.78 499.9,712.69 593.8,342.63 1140.7,-45.3 1247.2,-128.8 12.2,-9.37 18.6,-15.01 18.6,-15.01 0,0 -5.6,-10.43 -17.6,-30.29" /></g><g
         transform="scale(1.8975)"
         id="g138"><path
           id="path140"
           style="fill:#ffd4ad;fill-opacity:1;fill-rule:nonzero;stroke:none"
           d="m 14679,4315.42 c -0.1,0.16 -0.2,0.37 -0.4,0.53 0.2,-0.16 0.3,-0.37 0.4,-0.53 m -0.6,0.85 c -45.8,58.55 -85.1,126.53 -117.9,201.58 -27.2,62.45 -50.1,129.85 -68.4,200.89 -38,147.36 -56.9,310.31 -56.9,477.37 -0.1,159.31 16.9,322.37 50.8,479.21 13.2,61.13 29,121.47 47.3,180.29 v 0.53 l 0.3,0.47 c 96.7,310.2 264.3,577.02 500.1,712.99 176.4,101.77 348.7,139.13 506.5,139.13 373.7,0 666.4,-209.22 741.2,-267.98 12.2,-9.38 18.6,-15.02 18.6,-15.02 v 0 c 0,0 -6.4,5.64 -18.6,15.02 -15,-10.96 -30.5,-22.08 -46.2,-33.25 -160.9,43.05 -394.9,120.05 -634,120.05 -155.2,0 -312.7,-32.52 -453.7,-127.85 -317.5,-214.6 -717.3,-1087.76 -468.6,-1859.35 -367.9,319.1 -155,1273.26 -145.6,1314.73 l -47.3,-179.76 c -106.8,-495.76 -46.1,-1053.86 192.4,-1359.05 m 1616.1,2099.66 c 3.6,6.37 5.4,9.69 5.5,9.8 -0.1,-0.05 -1.8,-3.43 -5.5,-9.8 m 5.5,9.8 v 0 0" /></g><g
         transform="scale(1.75302)"
         id="g142"><path
           id="path144"
           style="fill:#cccce3;fill-opacity:1;fill-rule:nonzero;stroke:none"
           d="m 16300,4427.68 c -169.3,20.53 -306.1,109.35 -411.2,243.41 59.6,-76.04 129.5,-137.48 209.7,-180.09 v 0 0 c 61.2,-32.69 128.3,-54.42 201.5,-63.32 m -411.6,243.98 c -0.1,0.11 -0.2,0.23 -0.3,0.34 0.1,-0.11 0.2,-0.23 0.3,-0.34" /></g><g
         transform="scale(1.8975)"
         id="g146"><path
           id="path148"
           style="fill:#000072;fill-opacity:1;fill-rule:nonzero;stroke:none"
           d="m 15883.4,5870.63 v 0 c 66.3,73.25 124.1,142.08 173.8,204.69 -49.7,-62.61 -107.5,-131.44 -173.8,-204.69 m 174,204.9 c 0,0 0,0.05 0.1,0.11 -0.1,-0.06 -0.1,-0.11 -0.1,-0.11 m 193.9,269.41 c 13,20.55 23.4,37.52 31.1,50.49 v 0 c 5.2,8.64 9.2,15.49 12.1,20.5 -7.2,-12.6 -21.5,-36.9 -43.2,-70.99 m 48.7,80.79 v 0 0" /></g><g
         transform="scale(1.89545)"
         id="g150"><path
           id="path152"
           style="fill:#cc763e;fill-opacity:1;fill-rule:nonzero;stroke:none"
           d="m 15146.3,4090.7 c -24.3,0 -48.1,1.42 -71.1,4.27 -67.7,8.23 -129.8,28.33 -186.4,58.56 v 0 c -87.1,124.72 -150.5,256.72 -194,391.73 74.2,-64.42 172.1,-102.93 300.1,-102.93 39.8,0 82.2,3.69 127.9,11.5 939.4,160.33 622.8,1718.59 622.8,1718.59 2.8,-0.11 5.7,-0.16 8.5,-0.16 126.7,0 331.1,123.51 498.7,242.16 16.5,-4.38 32.3,-8.49 47.2,-12.08 -7.7,-12.98 -18.1,-29.97 -31.2,-50.54 -39.3,-61.57 -103.1,-155.16 -194,-269.6 0,-0.05 0,-0.1 -0.1,-0.1 0,-0.05 -0.1,-0.11 -0.1,-0.21 -49.8,-62.68 -107.7,-131.58 -174,-204.91 v 0 0 c 0,0 85,-314.55 85,-680.27 0.1,-451.08 -129.1,-980.03 -706.3,-1092.67 v 0 c -46.2,-9.02 -90.6,-13.34 -133,-13.34" /></g><g
         transform="scale(1.8975)"
         id="g154"><path
           id="path156"
           style="fill:#ccaaa1;fill-opacity:1;fill-rule:nonzero;stroke:none"
           d="m 14872.8,4149.05 c -74.1,39.36 -138.7,96.12 -193.8,166.37 -0.1,0.16 -0.2,0.37 -0.4,0.53 -0.1,0.1 -0.2,0.21 -0.2,0.32 -238.5,305.19 -299.2,863.29 -192.4,1359.05 l 47.3,179.76 c -9.4,-41.47 -222.3,-995.63 145.6,-1314.73 43.5,-134.86 106.8,-266.72 193.9,-391.3 m 1409.6,2246.38 c -14.9,3.58 -30.7,7.69 -47.2,12.07 15.7,11.17 31.2,22.29 46.2,33.25 12.2,-9.38 18.6,-15.02 18.6,-15.02 v 0 0 0 c -0.1,-0.11 -1.9,-3.43 -5.5,-9.8 -2.9,-5.01 -6.9,-11.86 -12.1,-20.5 v 0" /></g><g
         transform="scale(1.91057)"
         id="g158"><path
           id="path160"
           style="fill:#000072;fill-opacity:1;fill-rule:nonzero;stroke:none"
           d="m 15436.9,6562.28 c -141.9,0 -296.8,-33.65 -455.6,-125.25 -497.8,-287.19 -666.2,-1276.58 -449.7,-1855.1 84.2,-225.17 257.9,-479.28 607.4,-411.08 208,40.56 359.4,141.21 463.1,307.6 298.6,479.44 77.1,1317.25 74.9,1325.68 -9,33.24 -0.5,68.72 22.7,94.27 181.4,200.35 297.2,367.16 355.2,457.87 -108.7,75.16 -338.1,206.01 -618,206.01 z m -410,-2605.09 c -305.7,0 -550.7,195.39 -684.8,553.87 -249.6,667.13 -65.2,1753.14 538.2,2101.21 711.7,410.66 1368,-148.55 1374.6,-154.25 35.7,-31.04 45.1,-82.75 22.6,-124.41 -5.2,-9.58 -124.9,-228.63 -391.9,-530.79 47.8,-206.95 188.8,-948.77 -111.8,-1431.3 -133.1,-213.7 -333.6,-348.06 -596,-399.25 -51.7,-10.05 -102.1,-15.08 -150.9,-15.08" /></g><g
         transform="scale(1.86267)"
         id="g162"><path
           id="path164"
           style="fill:#000072;fill-opacity:1;fill-rule:nonzero;stroke:none"
           d="m 16073.3,5930.68 c -5.1,38.61 -12,79.62 -19,119.51 -7.2,40.1 -14.9,80.26 -23.6,120.15 -17.7,79.89 -37.5,159.24 -67.4,236.76 59.1,-58.79 111.6,-125.79 161.8,-193.81 25.1,-34.09 49.3,-68.77 73.1,-103.88 23.9,-35.44 46.9,-70.06 70.1,-107.81 l 1,-1.61 c 30.7,-50.03 15,-115.47 -35,-146.18 -50,-30.71 -115.5,-14.98 -146.2,35.05 -8,13 -12.9,27.6 -14.8,41.82" /></g><g
         transform="scale(1.97842)"
         id="g166"><path
           id="path168"
           style="fill:#ae531e;fill-opacity:1;fill-rule:nonzero;stroke:none"
           d="m 16300,11074.2 c 0,-19.5 -0.3,-39.6 -0.8,-59.8 -24.4,-952.5 -854.7,-1465.33 -1440.9,-1587.45 l -1978.1,4127.35 v 73.3 c 132.1,168.2 369.7,281.6 623.9,324.8 262.6,44.9 542.9,15.3 743.7,-105.1 488.4,-293 512.8,-830.3 928,-1098.9 290.2,-187.6 1118.1,-658.5 1124.2,-1674.2" /></g><g
         transform="scale(1.96655)"
         id="g170"><path
           id="path172"
           style="fill:#dfbaa5;fill-opacity:1;fill-rule:nonzero;stroke:none"
           d="m 16281.2,11130.4 c -24.5,0 -49,1.4 -73.2,4.2 -76.7,925.7 -846.6,1364.5 -1124.9,1544.4 -417.6,270.3 -442.2,810.8 -933.6,1105.6 -98.3,59 -215.5,96.2 -340.3,113.8 -28.2,19.3 -56.8,38.1 -85.9,56.5 31.9,2.4 63.8,3.6 95.5,3.6 171.4,0 337.2,-35.5 464.4,-111.8 236.6,-142 354,-344.4 478.4,-558.7 115.3,-198.7 234.5,-404.2 452.4,-545.2 15.5,-10 32.5,-20.8 50.8,-32.5 311.6,-198.3 1034.3,-658.3 1035.2,-1579.6 -6.3,-0.2 -12.6,-0.3 -18.8,-0.3" /></g><g
         transform="scale(1.95619)"
         id="g174"><path
           id="path176"
           style="fill:#8b422f;fill-opacity:1;fill-rule:nonzero;stroke:none"
           d="m 15787.3,9997.08 c 9.2,69.82 15.2,140.72 17.9,212.62 v 0 c 7.9,218.6 -2,429.2 -29.5,626 -112.2,797.7 -494.5,1256.8 -773.6,1592 -116.4,139.8 -217,260.6 -268.1,371.1 -42.7,92.6 -377.4,772.9 -1152.5,1179.4 41.9,3.8 84,5.8 125.8,5.8 59.3,0 117.9,-3.9 175,-11.9 88.9,-60.7 173,-125 251,-190.4 411,-344 678,-825.7 1020.4,-1238.2 147.4,-177.3 310.4,-344.3 425.3,-544.2 134.3,-233.8 206.2,-516.9 416.9,-685.4 85.4,-68.2 189.8,-108 297.9,-120.3 3.8,-45.7 5.9,-92.6 6.2,-140.6 0,-19.8 -0.3,-40 -0.8,-60.5 -5.3,-209.9 -49.4,-398.7 -121.2,-566.9 -105.7,-172.5 -242.9,-314.3 -390.7,-428.52" /></g><g
         transform="scale(1.96655)"
         id="g178"><path
           id="path180"
           style="fill:#b2959b;fill-opacity:1;fill-rule:nonzero;stroke:none"
           d="m 16092.8,10370.7 c 71.4,167.3 115.3,355.1 120.6,563.9 0.5,20.4 0.7,40.5 0.7,60.2 -0.3,47.7 -2.4,94.4 -6.1,139.8 24.2,-2.8 48.7,-4.2 73.2,-4.2 6.2,0 12.5,0.1 18.8,0.3 0,-15.7 -0.2,-31.4 -0.6,-47.3 -7.2,-280.5 -86.4,-516.6 -206.6,-712.7 m -2283.6,3527.7 c -56.8,8 -115.2,11.9 -174.1,11.9 -41.6,0 -83.5,-1.9 -125.2,-5.8 -7,3.8 -14.1,7.4 -21.2,11 76,20.2 155.2,33.4 234.6,39.4 29.1,-18.4 57.7,-37.2 85.9,-56.5" /></g><g
         transform="scale(1.63126)"
         id="g182"><path
           id="path184"
           style="fill:#ae531e;fill-opacity:1;fill-rule:nonzero;stroke:none"
           d="M 12908.4,16019.5 12441.9,10488 c -288.5,-45.6 -649.3,-36.7 -1005.6,59.9 -529.6,143.6 -1050,480.7 -1311.5,1119.9 -485.8,1186.8 274.5,2105.4 527.5,2449.8 355.1,483.2 151.3,1103 579,1645.4 280.6,356 891.3,537 1353.1,447.3 107.5,-20.8 207,-56.3 292.4,-107.9 l 31.6,-82.9" /></g><g
         transform="scale(1.59929)"
         id="g186"><path
           id="path188"
           style="fill:#8b422f;fill-opacity:1;fill-rule:nonzero;stroke:none"
           d="m 11390.9,14611.9 c 56.9,185.9 114.2,372 171.3,557.7 53.8,175.3 108.2,352 196.1,513.1 140.1,256.4 359.9,461 608.1,617.3 -454.7,-521.7 -675.2,-1104.6 -736.5,-1492.4 -7.4,-45.9 -20.7,-95.4 -38.6,-148.3 -63.2,-5 -130.1,-20.8 -200.4,-47.4" /></g><g
         transform="scale(1.61244)"
         id="g190"><path
           id="path192"
           style="fill:#dfbaa5;fill-opacity:1;fill-rule:nonzero;stroke:none"
           d="m 10909.3,14263.6 c 157.6,241.6 201.3,507.5 243.7,765.2 49.1,298.2 95.4,579.8 303.6,844.1 194.3,246.4 574.2,403.3 931.4,427.1 -38.6,-39.7 -75.9,-80 -111.7,-120.6 -289.3,-72.3 -559.9,-220.1 -721.9,-425.5 -341.9,-433.7 -285,-916.2 -423.5,-1340.9 -70.8,-40.3 -144.7,-90.1 -221.6,-149.4" /></g><g
         transform="scale(1.99348)"
         id="g194"><path
           id="path196"
           style="fill:#000072;fill-opacity:1;fill-rule:nonzero;stroke:none"
           d="m 12875,13484 1924.8,-4015.98 c 470.9,123.66 1256.2,559.48 1279.4,1465.68 24.1,940.1 -707.9,1406 -1020.5,1604.9 -18.1,11.5 -34.9,22.2 -50.2,32.1 -214.9,139.1 -332.5,341.8 -446.3,537.8 -122.7,211.4 -238.5,411.1 -471.9,551.1 -341.7,205.1 -966,111.8 -1215.3,-175.6 m 1871.1,-4225.21 c -36.7,0 -71.1,20.92 -87.4,55.03 L 12695.4,13410 c -12.2,25.6 -12.3,53.9 -2.4,78.3 -12.6,31.1 -8.6,68 13.6,96.2 299.3,380.9 1047.9,502.7 1483.5,241.4 276.2,-165.7 416.3,-407.1 539.8,-620.1 107,-184.3 208.1,-358.5 384,-472.3 14.9,-9.7 31.2,-20.1 48.8,-31.3 340.3,-216.5 1137.3,-723.7 1110.4,-1773.5 -11.5,-448.2 -197.2,-851.2 -537.1,-1165.47 -266.4,-246.35 -620,-429.45 -970.1,-502.38 -6.6,-1.41 -13.2,-2.06 -19.8,-2.06" /></g><g
         transform="scale(1.65221)"
         id="g198"><path
           id="path200"
           style="fill:#000072;fill-opacity:1;fill-rule:nonzero;stroke:none"
           d="m 12181.6,15910.8 c -373.5,0 -794.4,-158.2 -1000.7,-420 -203.3,-257.9 -248.5,-532.8 -296.4,-823.8 -44.3,-269.8 -90.2,-548.8 -273.1,-797.7 -13,-17.8 -27.4,-37 -42.8,-57.7 -267.5,-358.2 -893.79,-1197.3 -464,-2247.4 414.2,-1012.3 1486.6,-1167.7 2070.7,-1105.5 L 12627,15813 c -124,66.7 -280.1,97.8 -445.4,97.8 m -246.4,-5699.5 c -320.6,0 -649.9,61.6 -942.3,179.6 -518,209 -900,584.1 -1104.86,1084.7 -479.84,1172.6 201.86,2085.9 493.06,2476 15,20.2 29,38.9 41.7,56.1 149.8,203.8 189.2,443.5 230.9,697.2 48.2,293.2 102.8,625.5 343.5,930.7 379.3,481.3 1276,664.4 1776.7,362.9 37.1,-22.4 57.4,-62.2 56.6,-102.7 21.5,-23.3 33.6,-55.2 30.7,-89.3 l -460.6,-5461.2 c -4.6,-53.7 -45.1,-97.3 -98.3,-105.7 -119.2,-19 -242.6,-28.2 -367.1,-28.3" /></g><g
         transform="scale(1.88594)"
         id="g202"><path
           id="path204"
           style="fill:#ff9331;fill-opacity:1;fill-rule:nonzero;stroke:none"
           d="m 16291.5,10593.8 c -76.8,-2075.23 -2843.8,-2536.38 -2843.8,-2536.38 0,0 -3048.7,-512.42 -3836.31,1589.71 -572.87,1528.47 268.52,2367.27 352.03,2893.77 83.28,526.5 622.78,1862.1 2305.78,2126.4 434.2,68.2 816.2,47.7 1149.3,-29.4 1042,-241.6 1602,-1038.4 1771.4,-1405.3 191.8,-415.3 910.3,-857.8 1071.9,-2007.5 26.6,-190.2 38.2,-399.5 29.7,-631.3" /></g><g
         transform="scale(1.88152)"
         id="g206"><path
           id="path208"
           style="fill:#ae531e;fill-opacity:1;fill-rule:nonzero;stroke:none"
           d="m 16300,11251.4 c -376.8,-292 -849.8,-465.8 -1363.4,-465.8 -1230.3,0 -2227.7,997.4 -2227.7,2227.7 0,658.9 286.1,1251.2 741.1,1658.9 1044.4,-242.1 1605.8,-1040.8 1775.6,-1408.5 192.2,-416.3 912.3,-859.8 1074.4,-2012.3" /></g><g
         transform="scale(1.68994)"
         id="g210"><path
           id="path212"
           style="fill:#ffd4ad;fill-opacity:1;fill-rule:nonzero;stroke:none"
           d="m 11292.4,14237.3 c 213.1,708.6 900.7,1779.8 2417.5,2018.1 189.3,29.7 374.9,44.6 555.9,44.6 209.5,0 412.8,-19.9 608.5,-59.6 -58,-58.2 -113.2,-119.1 -165.2,-182.7 -140.5,19.5 -287.9,30 -442.4,30 -181.6,0 -373.1,-14.5 -574.5,-46.1 -1414.5,-222.2 -2105.3,-1122.4 -2399.8,-1804.3" /></g><g
         transform="scale(1.85848)"
         id="g214"><path
           id="path216"
           style="fill:#dfbaa5;fill-opacity:1;fill-rule:nonzero;stroke:none"
           d="m 16300,11822.8 c -282.8,652.8 -738,988.4 -885.7,1308.1 -152.9,331.2 -619.3,1007.4 -1464.5,1325.4 0,-0.8 -0.3,-1.5 -0.5,-2.3 -11.5,-40.7 -67.9,-63.2 -142.8,-63.2 -38.5,0 -81.9,5.9 -126.6,18.5 -130.3,36.6 -222,115.4 -206.7,176.8 -32.2,5.6 -64.9,10.8 -98,15.4 47.3,57.8 97.4,113.2 150.2,166.1 22.7,-4.7 45.3,-9.6 67.8,-14.8 968,-224.5 1540.8,-965.7 1726.6,-1368.3 65.3,-141.2 179.2,-278.1 311.2,-436.5 232.1,-278.8 509.1,-611.4 669,-1125.2" /></g><g
         transform="scale(1.87089)"
         id="g218"><path
           id="path220"
           style="fill:#cc763e;fill-opacity:1;fill-rule:nonzero;stroke:none"
           d="m 12752.4,8170.29 c -243.3,0 -524.6,14.96 -816.4,60.61 -736.6,115.24 -1302.8,380.14 -1692.7,790.42 14.2,141.97 17.8,282.7 11.3,421.41 709.9,-702.45 1799.7,-839.28 2540.2,-839.28 471.8,0 801.9,55.48 801.9,55.48 0,0 2093.4,348.92 2703.3,1802.37 -100.7,-724.43 -565.3,-1312.92 -1383.9,-1751.59 -684.2,-366.57 -1370.4,-484.48 -1377.4,-485.6 -4.9,-0.8 -328.2,-53.82 -786.3,-53.82 M 10186,9084.07 c -2.6,3.05 -5.3,6.05 -7.9,9.09 11.2,144.16 11.5,287.03 1.4,427.61 21.4,-23.42 43.3,-46.18 65.5,-68.48 -4.8,-51.15 -11,-102.41 -18.7,-153.83 -10.9,-73.6 -24.4,-145.17 -40.3,-214.39" /></g><g
         transform="scale(1.89776)"
         id="g222"><path
           id="path224"
           style="fill:#000072;fill-opacity:1;fill-rule:nonzero;stroke:none"
           d="m 16190,10527.8 h 0.3 -0.3 m -3486.4,3987.3 c -161.1,0 -326.4,-13.3 -495.1,-39.8 -1529.6,-240.3 -2112.2,-1431.9 -2206.6,-2028.5 -23.88,-150.7 -100.39,-315.9 -188.97,-507.3 -241.23,-521 -571.62,-1234.6 -166.03,-2316.74 310.73,-829.4 1024,-1336.89 2120.1,-1508.41 829.3,-129.78 1572.7,-7.9 1580,-6.69 6.9,1.11 683.4,117.35 1357.9,478.72 887.7,475.72 1353.2,1130.18 1383.4,1945.22 v -0.1 c 7.7,213.4 -1.9,418.5 -28.6,609.5 -107.6,764.9 -465,1194.1 -752.2,1539 -129.2,155.2 -240.8,289.2 -304.7,427.4 -182,394.4 -742.9,1120.3 -1690.9,1340 -194.4,45.1 -397.8,67.7 -608.3,67.7 M 12576,7850.25 c -249,0 -538,15.55 -840.5,62.87 -1157.5,181.1 -1945.7,747.56 -2279.36,1638.19 -435.46,1161.89 -69.92,1951.39 171.94,2473.79 82.21,177.5 153.18,330.9 172.68,453.6 102.33,647.1 730.74,1939.3 2376.24,2197.9 414.6,65 811.9,54.7 1180.9,-30.7 1261.6,-292.5 1775.4,-1335.1 1829.8,-1453 52.6,-113.9 156.3,-238.4 276.3,-382.5 287.7,-345.6 681.7,-818.8 797.4,-1641.1 28.4,-202.8 38.6,-419.9 30.4,-645.2 v -0.1 c -32.6,-881.48 -549.8,-1614.45 -1495.5,-2119.67 -703.6,-375.92 -1386.9,-492.8 -1415.6,-497.59 -20.4,-3.42 -344.3,-56.49 -804.7,-56.49" /></g><g
         transform="scale(1.54897)"
         id="g226"><path
           id="path228"
           style="fill:#000072;fill-opacity:1;fill-rule:nonzero;stroke:none"
           d="m 15196,13577.7 929.6,104.8 c 105.1,11.9 174.4,-106.6 112.5,-192.4 l -415.3,-575.6 c -42.7,-59.2 -127.4,-67.8 -181.2,-18.6 l -514.3,470.7 c -77.2,70.7 -35.3,199.3 68.7,211.1" /></g><g
         transform="scale(1.50211)"
         id="g230"><path
           id="path232"
           style="fill:#000072;fill-opacity:1;fill-rule:nonzero;stroke:none"
           d="m 16225.2,13590.7 c 61.7,-135.4 74.8,-292.3 49.2,-443.7 -25.9,-151.7 -92.3,-297.8 -187.5,-421.6 -95.2,-124.4 -220.7,-224.3 -359,-295.9 -138.3,-72.6 -289.2,-115.8 -443.7,-137.3 -152,-17.7 -311.5,-8.7 -462.5,31.7 -151.3,39.5 -294.7,112.3 -415.4,212.2 -28.9,26.4 -58,52.7 -86.1,79.7 -26.1,29.1 -51.7,58.7 -76.2,88.9 -22.3,32 -45.8,63 -66.2,96 -18.7,34.1 -37.3,68.1 -53,103.3 -60.2,142.2 -81.2,301 -42.3,447.7 3.3,12.4 15.9,19.7 28.1,16.4 6.3,-1.6 11.3,-5.8 14.3,-11.1 l 0.2,-0.5 c 70,-128.2 133.6,-238.2 206.9,-338.3 18.4,-24.8 38.4,-48.4 55.9,-73.1 l 59.4,-69 c 21.3,-21.5 44,-41.6 64.9,-63.1 l 69.3,-57.7 c 95.4,-72.8 202.4,-129.8 316.8,-166.9 114.8,-36.6 236.1,-51.1 359.2,-38.7 119.6,13.8 238,51.6 341.5,113.9 103.8,61.9 193.4,143.8 271,235.3 77.6,91.8 141.7,195.4 193.1,309.3 52,114.1 89,238.2 119.5,377.8 l 0.1,0.2 c 2.7,12.1 14.7,19.9 26.8,17.2 7.2,-1.5 12.9,-6.5 15.7,-12.7" /></g><g
         transform="scale(1.69569)"
         id="g234"><path
           id="path236"
           style="fill:#000072;fill-opacity:1;fill-rule:nonzero;stroke:none"
           d="m 16233.4,12247.2 c 55.1,-121.8 66.6,-263.3 42.8,-399.4 -7.4,-33.6 -15.8,-67.4 -24.9,-101.1 -12.3,-32.4 -23.7,-65.7 -38.1,-97.5 -16.3,-30.8 -31.6,-62.6 -49.4,-92.8 -20,-28.7 -38.7,-58.7 -60.5,-86.2 -87.4,-110.7 -202.1,-198.4 -327.6,-260.5 -62.7,-31.3 -128.4,-56.2 -195.5,-75.3 -33.7,-8.1 -67.7,-19.6 -101.2,-24 l -50.3,-8.5 -25.3,-4.2 c -12.5,-1.3 -25.5,-2.3 -38.3,-2.9 l 10.4,0.5 c -9.6,-0.7 -21.1,-1.6 -29.3,-1.9 l -24.4,-0.8 -48.8,-1.7 c -8.2,-0.2 -16.2,-0.8 -24.4,-0.7 l -25.4,1.5 -50.8,3 c -67.7,5.6 -135,17.9 -200.6,36.4 -131.3,36.9 -255.3,101.9 -359.1,190.6 -25.8,22.3 -49.8,46.7 -74.5,70 -22.7,25.4 -44,52.1 -65.7,78.1 -19.4,27.8 -38.9,55.6 -56.9,84.1 -16.1,29.9 -31.3,60.1 -45.4,90.5 -51.5,124.3 -68.9,262.8 -34.9,390.6 2.8,10.9 14,17.3 24.9,14.5 5.6,-1.5 10,-5.2 12.6,-9.9 l 0.2,-0.4 c 61,-111.7 116.5,-207.7 180.2,-295.3 16.5,-21.5 33.3,-42.3 48.5,-64 18.1,-19.6 34.3,-40.4 51.5,-60.3 l 56.5,-55.2 c 20.3,-16.8 39.4,-34.7 59.9,-50.8 82.8,-63.8 175.2,-114.8 274.3,-148.5 49.6,-16.7 100.8,-28.7 152.9,-35.6 l 39.4,-4.1 19.6,-2 c 6.8,-0.3 13.8,-0.1 20.7,-0.1 h 41.6 l 20.8,0.1 15.8,0.6 9.8,0.4 0.6,0.1 c 2.8,0.5 5.2,0.6 8.2,0.6 l 20.9,3.2 41.7,6.4 c 28.5,2.7 53.4,13 80.1,19.4 52.4,15.2 102.4,37.6 149.7,64.2 94.7,53.7 176.3,126.5 246.8,208.2 18.1,20.1 33.4,42.5 50.6,63.5 16.3,21.7 30.6,44.9 46.4,67.3 l 41.3,71.4 c 12,24.7 24,49.8 37.1,74.9 46.8,102.5 80,213.8 107.8,339.4 v 0.3 c 2.4,10.8 13.1,17.6 23.8,15.2 6.4,-1.4 11.4,-5.8 13.9,-11.3" /></g><g
         transform="scale(1.59647)"
         id="g238"><path
           id="path240"
           style="fill:#000072;fill-opacity:1;fill-rule:nonzero;stroke:none"
           d="m 16300,11905.1 -308.1,-1494 -938.2,-60.5 -608,1348.4 c 505.4,96.2 858.6,566.8 800.5,1086.2 59.3,-531.2 526,-916.5 1053.8,-880.1" /></g><g
         transform="scale(1.60883)"
         id="g242"><path
           id="path244"
           style="fill:#000072;fill-opacity:1;fill-rule:nonzero;stroke:none"
           d="m 14502.5,11529.2 510.9,-1132.9 756.5,48.8 257.5,1248.7 c -349.7,24.6 -658.8,212.8 -843.7,495 -115.7,-304.7 -363,-552.2 -681.2,-659.6 z M 14938,10151 c -47,0 -90,27.5 -109.5,70.7 l -603.4,1338 c -15.1,33.5 -13.9,72.1 3,104.8 17,32.6 48,55.7 84.1,62.6 440.9,83.9 747.2,499.3 697.6,945.9 l -0.2,0.6 c -7.3,65.9 40.2,125.4 106.1,132.7 65.8,7.5 125.3,-40.1 132.7,-106 l 0.1,-0.6 c 51.8,-461.6 455.2,-798.4 918,-766.3 37.6,2.5 74,-12.5 98.8,-40.8 24.7,-28.3 34.7,-66.5 27.1,-103.3 l -305.7,-1482.4 c -10.9,-53 -55.9,-92.1 -109.9,-95.6 l -931,-60.1 c -2.6,-0.1 -5.2,-0.2 -7.8,-0.2" /></g><g
         transform="scale(1.57175)"
         id="g246"><path
           id="path248"
           style="fill:#ff48a0;fill-opacity:1;fill-rule:nonzero;stroke:none"
           d="m 15855.2,9920.7 v 0 c -260.9,-34.11 -500.1,149.8 -534.2,410.7 l -83.8,640.1 c -34.1,260.9 149.7,500.1 410.7,534.2 260.9,34.2 500.1,-149.7 534.3,-410.6 l 83.7,-640.2 c 34.1,-260.9 -149.8,-500.04 -410.7,-534.2" /></g><g
         transform="scale(1.58436)"
         id="g250"><path
           id="path252"
           style="fill:#000072;fill-opacity:1;fill-rule:nonzero;stroke:none"
           d="m 15585,11296.3 c -15.1,0 -30.3,-1 -45.8,-3 -191.7,-25.1 -327.3,-201.5 -302.2,-393.2 l 83,-635 c 12.2,-93 59.8,-175.6 134.1,-232.6 74.2,-57.15 166.3,-81.89 259.2,-69.78 v 0 c 191.7,25.13 327.4,201.58 302.3,393.28 l -83.1,635 c -23.1,176.4 -174.2,305.3 -347.5,305.3 z m 144.1,-1454.51 h 0.3 z m -62.5,-126.04 c -130.3,0 -256.2,42.54 -361.2,123.26 -125.9,96.83 -206.6,236.89 -227.2,394.39 l -83.1,635 c -42.5,325.1 187.4,624.3 512.5,666.8 325.1,42.4 624.3,-187.4 666.8,-512.5 l 83.1,-635.1 c 42.5,-325.1 -187.4,-624.2 -512.6,-666.74 v 0 c -26.1,-3.47 -52.3,-5.11 -78.3,-5.11" /></g><g
         transform="scale(1.46926)"
         id="g254"><path
           id="path256"
           style="fill:#000072;fill-opacity:1;fill-rule:nonzero;stroke:none"
           d="m 16068.8,3758.5 c -1.1,28.92 0.5,63.77 2.4,95.9 1.3,32.94 3.8,65.81 6.4,98.82 4.7,65.95 11.9,132.38 16,199.42 4.4,67.04 7,134.69 7,203.1 2,68.94 -2.4,137.55 -3.4,209.7 v 0.67 c -0.2,8.31 6.5,15.12 14.8,15.25 5.5,0.07 10.3,-2.79 12.9,-7.08 38.6,-61.73 71.1,-128.16 95.5,-197.17 24.8,-69.02 44,-140.35 56.9,-212.69 13,-72.29 22.7,-145.79 22,-219.37 -0.2,-36.82 -1.9,-73.64 -6.6,-110.32 -4.6,-37.37 -10.7,-72.01 -22.9,-112.03 -16.6,-54.18 -73.9,-84.74 -128.1,-68.13 -43,13.07 -71.1,51.79 -72.6,94.26 l -0.3,9.67" /></g><g
         transform="scale(1.52626)"
         id="g258"><path
           id="path260"
           style="fill:#000072;fill-opacity:1;fill-rule:nonzero;stroke:none"
           d="m 16087,3704.28 c -2.8,25.68 -3.3,57.52 -3.3,86.61 -0.8,29.88 0,59.82 0.6,89.89 l 6.4,182.22 c 1.3,61.25 2.3,123.24 0.9,185.81 0.3,63.03 -3.5,125.99 -3.8,191.9 v 0.53 c 0,7.99 6.5,14.54 14.5,14.61 5.1,0 9.7,-2.69 12.3,-6.62 72.7,-111.38 121.2,-237.24 152.2,-366.78 15.6,-64.86 27.8,-130.97 31.1,-197.74 1.9,-33.41 2.1,-66.96 -0.3,-100.57 -2.3,-34.33 -6.1,-65.91 -15.5,-103.39 -13.3,-52.94 -66.9,-85.04 -119.9,-71.74 -41.2,10.42 -69.8,45.21 -74.2,85.11 l -1,10.16" /></g><g
         transform="scale(1.75243)"
         id="g262"><path
           id="path264"
           style="fill:#000072;fill-opacity:1;fill-rule:nonzero;stroke:none"
           d="m 16135,4414.44 c -15.8,26.6 -25.1,48.79 -34,73.9 -8.8,24.37 -15.6,49.3 -20.7,74.35 -10.8,50.17 -14.5,101.46 -15.6,152.42 -1.5,101.86 9.5,203.78 41.3,300.96 2.3,6.79 9.5,10.44 16.2,8.21 4,-1.25 6.9,-4.28 8.1,-7.93 l 0.2,-0.4 c 16.6,-47.99 29.3,-94.78 44.1,-140.66 13.4,-45.99 28.4,-90.9 42.4,-135.36 14.4,-44.39 30.7,-87.65 43.5,-131.13 6.5,-21.74 13.2,-43.25 18.5,-65.05 5.6,-20.94 11.6,-44.57 13.8,-62.83 l 1.5,-12.15 c 5.7,-47.14 -27.8,-89.99 -74.9,-95.75 -34.9,-4.28 -67.5,13.06 -84.4,41.42" /></g><g
         transform="scale(1.81526)"
         id="g266"><path
           id="path268"
           style="fill:#000072;fill-opacity:1;fill-rule:nonzero;stroke:none"
           d="m 16148.9,4330.83 c -11.6,13.22 -18.8,22.81 -26.7,34.32 -7.6,11.24 -14.5,22.37 -20.8,33.99 -12.8,22.97 -23.6,46.83 -32.4,71.17 -18.3,48.65 -29,99.6 -35.6,150.51 -6.4,50.95 -9.2,102.08 -6,152.87 2.7,50.73 10.8,100.97 24.5,149.62 1.9,6.55 8.7,10.35 15.3,8.48 3.9,-1.1 6.8,-3.91 8.1,-7.44 l 0.3,-0.49 c 17.6,-46.88 31.8,-92.17 49.2,-135.96 15.8,-44.02 34.3,-86.27 52.2,-127.7 18.2,-41.42 39.3,-80.87 57.6,-120.53 9.3,-19.89 18.9,-39.28 27.3,-59.16 4.8,-9.53 8.6,-19.73 13,-29.14 3.7,-9.43 8.8,-20.39 10.3,-27.11 l 4.9,-21.81 c 9.9,-44.02 -17.8,-87.7 -61.8,-97.57 -30.2,-6.77 -60.3,4.25 -79.4,25.95" /></g><g
         transform="scale(1.40377)"
         id="g270"><path
           id="path272"
           style="fill:#000072;fill-opacity:1;fill-rule:nonzero;stroke:none"
           d="m 15157.1,15599.1 c -49.1,-402.1 133,-755.1 407,-788.6 273.8,-33.5 535.7,265.4 584.8,667.4 49.2,402.1 -133.1,755.1 -406.9,788.6 -273.9,33.5 -535.8,-265.3 -584.9,-667.4" /></g><g
         transform="scale(1.37363)"
         id="g274"><path
           id="path276"
           style="fill:#ffffff;fill-opacity:1;fill-rule:nonzero;stroke:none"
           d="m 15989.3,16019.5 c -14.7,-120 39.7,-225.4 121.4,-235.4 81.8,-10 160,79.2 174.6,199.2 14.7,120.1 -39.7,225.4 -121.4,235.4 -81.8,10 -160,-79.2 -174.6,-199.2" /></g><g
         transform="scale(1.65577)"
         id="g278"><path
           id="path280"
           style="fill:#000072;fill-opacity:1;fill-rule:nonzero;stroke:none"
           d="m 16218.8,13605.9 c 81.2,-333.7 -37.3,-649 -264.6,-704.3 -227.3,-55.2 -477.3,170.5 -558.5,504.2 -81.1,333.6 37.4,649 264.7,704.2 227.3,55.3 477.3,-170.4 558.4,-504.1" /></g><g
         transform="scale(1.60736)"
         id="g282"><path
           id="path284"
           style="fill:#ffffff;fill-opacity:1;fill-rule:nonzero;stroke:none"
           d="m 16275.6,14032.1 c 24.4,-100.4 -11.2,-195.3 -79.6,-211.9 -68.5,-16.6 -143.7,51.3 -168.1,151.7 -24.4,100.4 11.2,195.2 79.7,211.9 68.3,16.6 143.6,-51.3 168,-151.7" /></g><g
         transform="scale(1.45248)"
         id="g286"><path
           id="path288"
           style="fill:#d5b3f5;fill-opacity:1;fill-rule:nonzero;stroke:none"
           d="m 11123.8,14570.2 c 0,0 1230.8,1729.8 1862.8,1397.1 632.1,-332.6 -133,-3359.7 -133,-3359.7 l -1729.8,1962.6" /></g><g
         transform="scale(1.51379)"
         id="g290"><path
           id="path292"
           style="fill:#d5b3f5;fill-opacity:1;fill-rule:nonzero;stroke:none"
           d="M 8415.07,14372.4 6197.39,13195.9 c 0,0 73.73,648.6 221.51,1348.9 168.85,799.9 434.12,1667.4 796.66,1712.7 341.52,42.5 642.23,-432.7 857.32,-916.6 213.23,-479.7 342.19,-968.5 342.19,-968.5" /></g><g
         transform="scale(1.14792)"
         id="g294"><path
           id="path296"
           style="fill:#d5b3f5;fill-opacity:1;fill-rule:nonzero;stroke:none"
           d="m 16148.5,5600.22 c -3453.2,366.13 -6451.31,2256.08 -8308.83,4984.88 83.35,116.2 168.79,237.8 254.24,364.1 213.39,314.4 428.9,657 628.38,1014.8 210.04,377.5 402.47,771.9 554.4,1168.4 l 5177.21,-463 266.5,-1181.9 407,-1806.6 c 0,0 763.9,-763.91 1033.3,-2107.9 112.8,-561.1 139.3,-1223.17 -12.2,-1972.78" /></g><g
         id="g298"><g
           clip-path="url(#clipPath304)"
           id="g300"><g
             transform="scale(1.13276)"
             id="g306"><path
               id="path308"
               style="fill:#aa8fdb;fill-opacity:1;fill-rule:nonzero;stroke:none"
               d="m 8152.9,10936.2 h 8184.5 V 5862.49 H 8152.9" /></g></g></g><g
         transform="scale(1.18329)"
         id="g310"><path
           id="path312"
           style="fill:#000072;fill-opacity:1;fill-rule:nonzero;stroke:none"
           d="M 7804.72,10266.9 C 9608.09,7674.59 12412.2,5986.25 15533.2,5612.13 c 390.1,2268.67 -959.6,3649.89 -973.5,3663.92 -21.9,21.81 -37.1,49.44 -43.9,79.61 l -627.1,2782.94 -4782.09,427.7 c -132.93,-329.6 -301.61,-678.6 -502.33,-1039.4 -226.96,-407.2 -495.67,-830.5 -799.56,-1260 M 15665.9,5269.44 c -5.7,0 -11.6,0.26 -17.4,0.93 -3314.1,351.39 -6294.95,2139.71 -8178.21,4906.33 -38.59,56.7 -37.65,131.5 2.35,187.2 324.19,451.4 608.91,896.2 846.28,1321.9 216.66,389.6 394.3,763.9 527.9,1112.5 26.12,68.2 94.15,110.7 167.08,104.2 l 5022.4,-449.1 c 70.8,-6.4 129.2,-57.6 144.9,-126.8 l 643.3,-2855.08 c 230.6,-249.13 1475.5,-1725.01 1001.3,-4071.09 -15.4,-76.9 -83.1,-130.99 -159.9,-130.99" /></g><g
         transform="scale(1.03667)"
         id="g314"><path
           id="path316"
           style="fill:#ff0068;fill-opacity:1;fill-rule:nonzero;stroke:none"
           d="m 16300,12720.2 c -750.9,-748.1 -2181.3,-1126 -3735.2,-887.8 -1237.4,189.6 -2283.4,728.9 -2906.52,1415.4 232.58,418.1 445.62,854.8 613.92,1293.9 l 5732.7,-512.7 295.1,-1308.8" /></g><g
         transform="scale(1.04914)"
         id="g318"><path
           id="path320"
           style="fill:#000072;fill-opacity:1;fill-rule:nonzero;stroke:none"
           d="m 9769.76,13119.6 c 620.14,-627.6 1585.74,-1078.9 2673.74,-1245.7 1377.2,-211.1 2719.9,85.5 3460.2,756.7 l -239,1060.2 -5393.6,482.4 c -135.3,-335.5 -303.46,-688.9 -501.34,-1053.6 m 3564.64,-1683 c -308.7,0 -625.8,24 -946.8,73.1 -1223.9,187.7 -2310.3,718.7 -2980.38,1457 -53.12,58.5 -63,144.3 -24.6,213.3 244.45,439.5 444.81,861.7 595.5,1254.8 29.48,77 106.18,125 188.48,117.7 l 5664.6,-506.6 c 79.8,-7.2 145.8,-65 163.4,-143 l 291.5,-1293.3 c 13.9,-61.7 -4.9,-126.3 -49.7,-171 -647.2,-644.8 -1710.7,-1002 -2902,-1002" /></g><path
         id="path322"
         style="fill:#ffb012;fill-opacity:1;fill-rule:nonzero;stroke:none"
         d="m 14031.1,11837.7 c 0,-453.6 -367.7,-821.4 -821.4,-821.4 -453.6,0 -821.4,367.8 -821.4,821.4 0,453.7 367.8,821.4 821.4,821.4 453.7,0 821.4,-367.7 821.4,-821.4" /><path
         id="path324"
         style="fill:#eee1fb;fill-opacity:1;fill-rule:nonzero;stroke:none"
         d="m 12389.5,11793.5 c -0.9,14.6 -1.2,29.3 -1.2,44.2 0,-14.8 0.4,-29.5 1.2,-44.2 m 1641.5,31.8 c 0,0.1 0,0.3 0,0.4 0,-0.1 0,-0.3 0,-0.4 m 0,2.4 c 0,0.2 0,0.5 0,0.7 0,-0.2 0,-0.5 0,-0.7 m 0.1,2.5 c 0,0.3 0,0.6 0,1 0,-0.4 0,-0.7 0,-1 m 0,2.4 c 0,0.5 0,1 0,1.5 0,-0.5 0,-1 0,-1.5 m 0,2.6 c 0,0.8 0,1.6 0,2.5 0,-0.8 0,-1.7 0,-2.5 m -1642.8,2.5 c 0,0.9 0,1.8 0,2.7 v 0 c 0,-0.9 0,-1.8 0,-2.7 m 1642.8,2.4 v 0 c 0,0.1 0,0.3 0,0.5 v 0 c 0,-0.2 0,-0.4 0,-0.5 m -1642.8,0.7 c 0,0.8 0,1.5 0,2.3 v 0 c 0,-0.7 0,-1.5 0,-2.3 v 0 m 1642.8,2.2 v 0 0.1 0 -0.1 m -1642.8,0.5 c 0,0.8 0,1.6 0.1,2.3 v 0 c -0.1,-0.7 -0.1,-1.5 -0.1,-2.3 v 0 m 0.1,2.4 c 0.9,97.6 18.9,191.1 51,277.7 -1.8,-4.8 -3.5,-9.6 -5.2,-14.5 -28.9,-82.5 -44.9,-171 -45.8,-263.1 0,0 0,0 0,-0.1 m 67.6,318.8 v 0 c 2.1,5 4.3,9.9 6.6,14.9 v 0 c -2.2,-5 -4.5,-9.9 -6.6,-14.9" /><path
         id="path326"
         style="fill:#ff99c3;fill-opacity:1;fill-rule:nonzero;stroke:none"
         d="m 12742.4,12513.3 h -0.1 c 132.7,91.9 293.8,145.8 467.4,145.8 -173.6,0 -334.7,-53.9 -467.3,-145.8" /><path
         id="path328"
         style="fill:#9999c7;fill-opacity:1;fill-rule:nonzero;stroke:none"
         d="m 12462.6,12179.6 v 0 c 61.8,134.8 159,250 279.7,333.7 h 0.1 c -120.7,-83.7 -218,-198.9 -279.8,-333.7" /><path
         id="path330"
         style="fill:#ffdfa0;fill-opacity:1;fill-rule:nonzero;stroke:none"
         d="m 12388.3,11837.7 v 0 0 c 0,0.9 0,1.8 0,2.7 0,-0.9 0,-1.8 0,-2.7 m 1642.8,2.4 c 0,0.1 0,0.3 0,0.5 0,-0.2 0,-0.4 0,-0.5 m -1642.8,0.7 c 0,0.8 0,1.6 0,2.3 0,-0.8 0,-1.5 0,-2.3 m 1642.8,2.2 v 0.1 -0.1 m -1642.8,0.5 c 0,0.8 0,1.6 0.1,2.3 -0.1,-0.7 -0.1,-1.5 -0.1,-2.3 m 0.1,2.5 c 0.9,92.1 16.9,180.6 45.8,263.1 -28.8,-82.7 -44.9,-171.2 -45.8,-263.1 m 1494.9,3.4 c -137.8,259.8 -411.2,436.7 -725.8,436.7 -254.4,0 -482,-116 -632.6,-297.8 -29.4,55.3 -52.7,114.4 -68.9,176.4 2.1,5 4.4,9.9 6.6,14.9 61.8,134.8 159.1,250 279.8,333.7 132.6,91.9 293.7,145.8 467.3,145.8 v 0 c 381.2,0 702.2,-260.1 794.6,-612.7 -31,-71.6 -71.9,-137.8 -121,-197" /><path
         id="path332"
         style="fill:#aa8fdb;fill-opacity:1;fill-rule:nonzero;stroke:none"
         d="m 13209.7,11016.3 c -438.9,0 -797.3,344.1 -820.2,777.2 v 0 c 23,-433.1 381.4,-777.2 820.2,-777.2 449.5,0 814.7,361.1 821.3,809 v 0 c -6.6,-448 -371.7,-809 -821.3,-809 m 821.3,809.4 v 0 c 0,0.7 0,1.3 0,2 v 0 c 0,-0.7 0,-1.3 0,-2 m 0,2.7 v 0 c 0.1,0.6 0.1,1.2 0.1,1.8 v 0 c 0,-0.6 0,-1.2 -0.1,-1.8 m 0.1,2.8 v 0 c 0,0.5 0,0.9 0,1.4 v 0 c 0,-0.5 0,-0.9 0,-1.4 m 0,2.9 v 0 c 0,0.3 0,0.7 0,1.1 v 0 c 0,-0.4 0,-0.8 0,-1.1 m 0,3.6 c 0,0.8 0,1.6 0,2.4 0,-0.8 0,-1.6 0,-2.4 m -1642.8,2.7 c 0,0.1 0,0.3 0,0.4 0,-0.1 0,-0.3 0,-0.4 m 1642.8,0.2 c 0,0.8 0,1.6 0,2.4 0,-0.8 0,-1.6 0,-2.4 m 0,2.5 c 0,0.1 0,0.2 0,0.3 -0.4,53.1 -5.8,104.9 -15.7,155.2 0,0 0.1,0 0.2,0 9.8,-50.4 15.1,-102.5 15.5,-155.5 m -1642.8,0 c 0,0.1 0,0.3 0,0.4 0,-0.2 0,-0.3 0,-0.4 m 0.1,2.7 c 0,0.1 0,0.1 0,0.1 0,0 0,0 0,-0.1 m 51,277.8 c 5.2,13.9 10.7,27.7 16.6,41.2 0,0 0,0 0,-0.1 -5.9,-13.5 -11.4,-27.2 -16.6,-41.1" /><path
         id="path334"
         style="fill:#000072;fill-opacity:1;fill-rule:nonzero;stroke:none"
         d="m 14015.4,11998.6 c -3.2,16.1 -6.9,32.1 -11.1,47.9 0.1,0.1 0.2,0.3 0.2,0.4 4.2,-15.9 7.9,-32 11.1,-48.3 -0.1,0 -0.2,0 -0.2,0" /><path
         id="path336"
         style="fill:#cc8d25;fill-opacity:1;fill-rule:nonzero;stroke:none"
         d="m 13209.7,11016.3 c -438.8,0 -797.2,344.1 -820.2,777.2 0.6,-10.5 1.5,-20.9 2.7,-31.2 32,82.7 77.1,158.8 132.7,226 138.1,-259.6 411.3,-436.2 725.9,-436.2 254.5,0 481.9,115.6 632.5,297.3 49.7,-93.8 81.8,-198.4 91.8,-309.3 34.8,88.6 54.4,184.8 55.9,285.2 -6.6,-447.9 -371.8,-809 -821.3,-809 m 821.3,809.4 c 0,0.7 0,1.3 0,2 0,-0.7 0,-1.3 0,-2 m 0,2.7 c 0.1,0.6 0.1,1.2 0.1,1.8 0,-0.6 0,-1.2 -0.1,-1.8 m 0.1,2.8 c 0,0.5 0,0.9 0,1.4 0,-0.5 0,-0.9 0,-1.4 m 0,2.9 c 0,0.3 0,0.7 0,1.1 0,-0.4 0,-0.8 0,-1.1 m 0,9.3 c -0.5,70.1 -9.8,138.1 -26.8,203 v 0.1 c 4.2,-15.8 7.9,-31.8 11.1,-47.9 9.9,-50.3 15.3,-102.1 15.7,-155.2" /><path
         id="path338"
         style="fill:#beb4e0;fill-opacity:1;fill-rule:nonzero;stroke:none"
         d="m 12389.5,11793.5 v 0 c -0.8,14.7 -1.2,29.4 -1.2,44.2 v 0 0 c 0,-14.8 0.4,-29.6 1.2,-44.2 m 1641.5,31.8 c 0,0.1 0,0.3 0,0.4 v 0 c 0,-0.1 0,-0.3 0,-0.4 v 0 m 0,2.4 c 0,0.3 0,0.5 0,0.7 v 0 c 0,-0.2 0,-0.5 0,-0.7 v 0 m 0.1,2.5 c 0,0.3 0,0.6 0,1 v 0 c 0,-0.4 0,-0.7 0,-1 v 0 m 0,2.4 c 0,0.5 0,1 0,1.5 v 0 c 0,-0.5 0,-1 0,-1.5 v 0 m 0,2.6 c 0,0.8 0,1.6 0,2.5 v 0 0 c 0,-0.9 0,-1.7 0,-2.5 v 0 m 0,2.5 c 0,0.8 0,1.6 0,2.4 v 0 c 0,-0.8 0,-1.6 0,-2.4 v 0 m -1642.8,2.7 v 0 c 0,0.1 0,0.3 0,0.4 v 0 c 0,-0.1 0,-0.3 0,-0.4 m 1642.8,0.2 c 0,0.8 0,1.6 0,2.4 v 0 c 0,-0.8 0,-1.6 0,-2.4 v 0 m 0,2.5 c 0,0.1 0,0.2 0,0.3 0,-0.1 0,-0.2 0,-0.3 v 0 m -1642.8,0 v 0 c 0,0.1 0,0.2 0,0.4 v 0 c 0,-0.1 0,-0.3 0,-0.4 m 0.1,2.7 v 0 c 0,0.1 0,0.1 0,0.1 0,0.1 0,0.1 0,0.1 0,-0.1 0,-0.1 0,-0.2 m 45.8,263.3 c 1.7,4.9 3.4,9.7 5.2,14.5 5.2,13.9 10.7,27.6 16.6,41.1 v 0 c -7.9,-18.2 -15.2,-36.8 -21.8,-55.6" /><path
         id="path340"
         style="fill:#ccb297;fill-opacity:1;fill-rule:nonzero;stroke:none"
         d="m 13975.1,11540.1 c -10,110.9 -42.1,215.5 -91.8,309.3 49.1,59.2 90,125.4 121,197 17,-64.9 26.3,-132.9 26.8,-203 0,-0.1 0,-0.2 0,-0.3 v -0.1 c 0,-0.8 0,-1.6 0,-2.4 0,-0.2 0,-0.4 0,-0.5 0,-0.8 0,-1.6 0,-2.4 v 0 c 0,-0.9 0,-1.7 0,-2.5 0,-0.4 0,-0.8 0,-1.1 0,-0.5 0,-1 0,-1.5 0,-0.5 0,-0.9 0,-1.4 0,-0.4 0,-0.7 0,-1 0,-0.6 0,-1.2 -0.1,-1.8 0,-0.2 0,-0.4 0,-0.7 0,-0.7 0,-1.3 0,-2 0,-0.1 0,-0.3 0,-0.4 -1.5,-100.4 -21.1,-196.6 -55.9,-285.2 m -1582.9,222.2 c -1.2,10.3 -2.1,20.7 -2.7,31.2 -0.8,14.6 -1.2,29.4 -1.2,44.2 0,0.9 0,1.8 0,2.7 0,0.1 0,0.3 0,0.4 0,0.8 0,1.5 0,2.3 0,0.1 0,0.3 0,0.4 0,0.8 0,1.6 0.1,2.3 0,0.1 0,0.1 0,0.2 0.9,91.9 17,180.4 45.8,263.1 6.6,18.8 13.9,37.4 21.8,55.6 16.2,-62 39.5,-121.1 68.9,-176.4 -55.6,-67.2 -100.7,-143.3 -132.7,-226" /><path
         id="path342"
         style="fill:#000072;fill-opacity:1;fill-rule:nonzero;stroke:none"
         d="m 13209.7,12465.8 c -346.3,0 -628.1,-281.7 -628.1,-628.1 0,-346.4 281.8,-628.1 628.1,-628.1 346.4,0 628.1,281.7 628.1,628.1 0,346.4 -281.7,628.1 -628.1,628.1 z m 0,-1642.8 c -559.5,0 -1014.7,455.2 -1014.7,1014.7 0,559.5 455.2,1014.7 1014.7,1014.7 559.5,0 1014.7,-455.2 1014.7,-1014.7 0,-559.5 -455.2,-1014.7 -1014.7,-1014.7" /><path
         id="path344"
         style="fill:#d5b3f5;fill-opacity:1;fill-rule:nonzero;stroke:none"
         d="m 13250.8,8314.9 c -59.9,-428.6 -237.8,-816.1 -572.6,-1067.4 -1159.6,-869.7 -1809,1303.2 -1484.3,2415 l -574,538.2 c 0,0 10.6,13.5 31.4,36.7 130.5,145 661.9,662.5 1495.4,537.3 687.6,-102.9 1252.4,-1404.6 1104.1,-2459.8" /><path
         id="path346"
         style="fill:#aa8fdb;fill-opacity:1;fill-rule:nonzero;stroke:none"
         d="m 12162,7046.9 c -655.4,0 -1051.5,1057.6 -1051.6,1961 0,235.9 27,461.2 83.5,654.6 v 0 0 l -454.7,426.3 c 59.3,37.8 125.1,74.7 197.2,108.4 239.2,-57 502.5,-181.6 745.5,-430.4 0,0 -310.7,-1740.4 458.1,-1988.7 71,-23 140.9,-33.4 209.1,-33.4 244.3,0 468.4,133.4 654.7,302.9 -14.6,-217.4 -56.9,-428.2 -131.8,-620.3 211.5,239.7 331.3,551.1 378.7,887.5 0,0 0,0 0.1,0.1 -15.8,-112.6 -39.6,-222.3 -72.3,-327.4 -91.9,-295.3 -253.4,-554.7 -500.3,-740 -185.8,-139.3 -358.5,-200.6 -516.2,-200.6 m -1541.9,3153.6 -0.2,0.2 c 0,0 10.6,13.5 31.4,36.7 0.2,0 0.3,0 0.5,0 -19.5,-21.6 -30.2,-35.1 -31.7,-36.9" /><path
         id="path348"
         style="fill:#ddd2f1;fill-opacity:1;fill-rule:nonzero;stroke:none"
         d="m 13274.6,8665.8 c 0,0.7 0,1.5 0,2.2 0,-0.7 0,-1.5 0,-2.2 m 0,2.3 c -0.5,972.5 -515.5,2015 -1127.9,2106.6 -35.1,5.3 -69.7,9.4 -103.8,12.5 34.1,-3.1 68.8,-7.2 103.9,-12.5 612.2,-91.7 1127.5,-1133.9 1127.8,-2106.6" /><path
         id="path350"
         style="fill:#9999c7;fill-opacity:1;fill-rule:nonzero;stroke:none"
         d="m 10738.8,10088.6 -118.8,111.6 c 0,0 0,0.1 0.1,0.3 l 119.1,-111.7 c -0.1,0 -0.3,-0.1 -0.4,-0.2" /><path
         id="path352"
         style="fill:#eee1fb;fill-opacity:1;fill-rule:nonzero;stroke:none"
         d="m 13003.8,8047.6 c 68.2,1019.3 -472.4,2187 -1122.3,2284.5 -88.4,13.3 -173.5,19.3 -255,19.3 -270.1,0 -501.5,-66 -690.1,-154.2 -100.2,23.9 -196.2,35.9 -284.6,40.2 117.2,130.1 554.2,556.6 1240,556.6 49.2,0 99.4,-2.2 151.1,-6.8 34.1,-3.1 68.7,-7.2 103.8,-12.5 612.4,-91.6 1127.4,-1134.1 1127.9,-2106.6 v -0.1 c 0,-0.7 0,-1.5 0,-2.2 0,-118.8 -7.7,-236.2 -23.9,-351 -71.5,-90 -154.6,-183.1 -246.9,-267.2" /><path
         id="path354"
         style="fill:#ddd2f1;fill-opacity:1;fill-rule:nonzero;stroke:none"
         d="m 12872,7427.3 c 74.9,192.1 117.2,402.9 131.8,620.3 92.3,84.1 175.4,177.2 246.9,267.2 -47.4,-336.4 -167.2,-647.8 -378.7,-887.5 m -2132.8,2661.5 -119.1,111.7 c 1.5,1.8 12.2,15.3 31.7,36.9 88.4,-4.3 184.4,-16.3 284.6,-40.2 -72.1,-33.7 -137.9,-70.6 -197.2,-108.4" /><path
         id="path356"
         style="fill:#000072;fill-opacity:1;fill-rule:nonzero;stroke:none"
         d="m 10867.6,10208.2 446,-417.8 c 48.1,-45.1 66.8,-113.5 48.3,-176.8 -223.7,-766.2 56.7,-1971.8 535.7,-2303.5 200.3,-138.8 421.2,-113.4 675.6,77.4 581.8,436.4 598.8,1341.7 436.5,1984.3 -169.4,671 -535,1176.8 -888.9,1229.9 -628,94.2 -1061.7,-215.5 -1253.2,-393.5 z M 12160,6872.7 c -161.5,0 -317.4,49.7 -461.6,149.6 -626.1,433.6 -893.2,1742.6 -699.9,2583.7 l -498.3,466.8 c -66,61.9 -74,163.9 -18.4,235.3 25.5,32.6 635.5,797.7 1690.9,639.7 505.2,-75.8 966.9,-660.7 1176.4,-1490.3 197.6,-782.7 152.7,-1811 -565.9,-2349.9 -208.3,-156.3 -420.1,-234.9 -623.2,-234.9" /><g
         transform="scale(1.06593)"
         id="g358"><path
           id="path360"
           style="fill:#d5b3f5;fill-opacity:1;fill-rule:nonzero;stroke:none"
           d="m 16300,6195.89 -1252,315.5 c 0,0 -479.5,-890.68 -1250.2,-482.77 -297.3,157.32 -489.5,559.88 -554.4,1025.86 -135.9,967.33 273.9,2208.87 1415.7,2101.82 888.4,-83.3 1304.1,-1175.31 1493.1,-2008.94 119.2,-527.61 147.8,-951.47 147.8,-951.47" /></g><g
         transform="scale(1.0652)"
         id="g362"><path
           id="path364"
           style="fill:#aa8fdb;fill-opacity:1;fill-rule:nonzero;stroke:none"
           d="m 14206.9,5925.86 c -122.3,0 -255.9,30.88 -399.6,106.93 -297.5,157.43 -489.8,560.27 -554.7,1026.57 13.1,-19.06 425.3,-612.38 911.7,-612.38 1,0 1.8,0 2.8,0 495.7,2.25 1019.2,395.52 1107.2,855.06 0,0 142.1,-355.15 450.2,-355.15 96.2,0 208.7,34.73 338.2,125.8 93.1,-313.56 152.9,-618.48 190.5,-857.87 l -1194.8,301.07 c 0,0 -36.6,-67.78 -105.6,-157.44 -134.7,-174.8 -393.1,-432.59 -745.9,-432.59 m 2093.1,397.95 c -17,163.35 -56.2,472.31 -136.8,828.3 l 0.2,0.19 c 80.5,-356.18 119.6,-665.14 136.6,-828.49" /></g><g
         transform="scale(1.03282)"
         id="g366"><path
           id="path368"
           style="fill:#eee1fb;fill-opacity:1;fill-rule:nonzero;stroke:none"
           d="m 16300,8468.26 -0.1,0.09 c -230.1,464.65 -558.5,852.42 -1024.7,958.25 466.3,-105.73 794.7,-493.6 1024.8,-958.34 m -2313.1,448.57 h -0.1 c 220,322.81 549.7,539.78 1001.9,539.78 14.3,0 28.7,-0.29 43.2,-0.67 -14.4,0.38 -28.7,0.58 -42.9,0.58 -452.3,0 -782.1,-216.88 -1002.1,-539.69 m 1287.9,509.87 c -0.5,0.1 -1,0.28 -1.7,0.38 0.6,-0.1 1.2,-0.28 1.7,-0.38 m -2.7,0.58 c -0.3,0.09 -0.6,0.19 -1,0.29 0.4,-0.1 0.7,-0.2 1,-0.29" /></g><g
         transform="scale(1.03905)"
         id="g370"><path
           id="path372"
           style="fill:#ddd2f1;fill-opacity:1;fill-rule:nonzero;stroke:none"
           d="m 13560.5,7634.38 c -0.2,0.1 -0.1,0 -0.3,0.1 4.2,440.5 113.7,892.55 342.8,1228.91 h 0.1 c -229.2,-336.46 -338.7,-788.7 -342.6,-1229.01 m 2739.5,567.93 c -0.1,0.29 -0.2,0.58 -0.4,0.86 0.2,-0.19 0.3,-0.57 0.4,-0.86 m -0.5,1.25 c -30.3,72.66 -62.6,144.17 -97.3,214.04 l 0.1,-0.09 c 34.6,-69.78 66.9,-141.38 97.2,-213.95" /></g><g
         transform="scale(1.06593)"
         id="g374"><path
           id="path376"
           style="fill:#9999c7;fill-opacity:1;fill-rule:nonzero;stroke:none"
           d="m 16300,6195.89 -58.1,14.54 v 0.09 l 58.1,-14.63 v 0 0 0 c 0,0 -3,44.84 -11.3,123.55 8.3,-78.71 11.3,-123.55 11.3,-123.55 m -3072,988.62 c -7.4,84.71 -10.7,170.83 -9.8,257.43 0.2,-0.1 0.1,0 0.3,-0.1 -0.8,-85.56 2.6,-170.55 9.8,-254.14 -0.1,-1.03 -0.2,-2.16 -0.3,-3.19" /></g><g
         transform="scale(1.05626)"
         id="g378"><path
           id="path380"
           style="fill:#eee1fb;fill-opacity:1;fill-rule:nonzero;stroke:none"
           d="m 16198.6,7132.54 c -224.8,757.48 -642.4,1565.34 -1405.2,1636.91 -46.9,4.45 -92.5,6.53 -136.9,6.53 -829.9,0 -1238,-746.31 -1307,-1522.45 -7.3,84.36 -10.7,170.13 -10,256.47 3.9,433.14 111.6,878.01 337.1,1208.99 215.1,315.64 537.5,527.71 979.9,527.71 13.8,0 27.8,-0.19 41.9,-0.57 31.1,-0.94 62.7,-2.93 95,-5.96 47.6,-4.45 93.9,-11.84 138.8,-21.78 0.4,-0.09 0.8,-0.18 1.1,-0.28 0.4,-0.09 0.7,-0.09 0.9,-0.19 0.7,-0.1 1.2,-0.28 1.7,-0.38 0.1,0 0.3,-0.09 0.4,-0.09 455.9,-103.48 776.9,-482.65 1002,-936.99 34,-68.73 65.8,-139.08 95.7,-210.56 0,-0.18 0.1,-0.18 0.1,-0.37 0.2,-0.28 0.2,-0.57 0.3,-0.85 118.2,-283.74 203.9,-583.57 265.6,-856.04 l -0.3,-0.29 c -34.7,-30.39 -68.4,-56.9 -101.1,-79.81" /></g><g
         transform="scale(1.06593)"
         id="g382"><path
           id="path384"
           style="fill:#ddd2f1;fill-opacity:1;fill-rule:nonzero;stroke:none"
           d="m 16300,6195.89 -58.1,14.63 c -37.5,239.23 -97.3,543.94 -190.3,857.28 32.3,22.71 65.7,48.97 100.2,79.09 l 0.3,0.28 c 80.4,-355.75 119.7,-664.49 136.6,-827.73 8.3,-78.71 11.3,-123.55 11.3,-123.55" /></g><g
         transform="scale(1.07687)"
         id="g386"><path
           id="path388"
           style="fill:#000072;fill-opacity:1;fill-rule:nonzero;stroke:none"
           d="m 14376,8907.34 c -664.3,0 -933.2,-554.76 -1035.8,-898.72 -223.9,-749.77 -32.6,-1671.9 393.6,-1897.55 609.2,-322.6 1002.3,381.57 1018.7,411.66 35.5,65.19 110.7,98.34 182.6,80.23 l 1013.8,-255.55 c -79.4,644.64 -396.2,2454.99 -1453.8,2554.17 -41,3.9 -80.8,5.76 -119.1,5.76 z m -322.8,-3208.76 c -146.5,0 -304.5,36.86 -471.5,125.27 -627.5,332.17 -795,1467.04 -553,2277.81 233.3,781.35 778.8,1190.68 1496.7,1123.54 1555.6,-145.88 1763,-2961.37 1771.1,-3081.17 3.5,-51.9 -18,-102.33 -58,-135.66 -39.9,-33.34 -93.4,-45.5 -143.8,-32.79 l -1122.8,282.86 c -173.6,-257.41 -499,-559.86 -918.7,-559.86" /></g><g
         transform="scale(1.00115)"
         id="g390"><path
           id="path392"
           style="fill:#000072;fill-opacity:1;fill-rule:nonzero;stroke:none"
           d="m 15806.2,6949.59 c 25.5,32.06 54.3,74.31 80.2,113.36 26.4,39.86 52.2,80.81 76.6,122.36 48.8,83.2 95.3,168.91 134.7,257.5 78.8,177 140.9,365.29 137.3,568.55 33.9,-95.39 51.3,-198.77 58.5,-303.15 6.5,-104.58 1.1,-209.66 -9.1,-314.64 -10.6,-104.98 -29,-208.76 -51.2,-312.34 -11.1,-51.84 -23.8,-103.28 -37.8,-154.82 -14.4,-52.44 -27.8,-100.88 -48.1,-157.62 l -2.7,-7.79 c -36.6,-102.08 -148.9,-155.32 -251,-118.86 -102.2,36.45 -155.5,148.82 -119,250.91 7.5,20.78 18.6,40.16 31.6,56.54" /></g><g
         transform="scale(1.44835)"
         id="g394"><path
           id="path396"
           style="fill:#000072;fill-opacity:1;fill-rule:nonzero;stroke:none"
           d="m 11326.3,14619.9 1493.5,-1694.6 c 65.4,287.5 171.1,786.6 243,1298.3 196.4,1398 -27.9,1632.7 -101.3,1671.2 -350.5,184.5 -1143.3,-609.3 -1635.2,-1274.9 m 1564,-2109.8 c -37.9,0 -74.5,16.1 -100.2,45.2 l -1734.7,1968.3 c -41,46.4 -44.6,115.1 -8.6,165.5 12.8,18.1 319.3,447.1 710.2,842.2 560.8,566.9 1007.9,768.7 1328.9,599.7 205.6,-108.3 454.5,-427.8 240.9,-1946.4 -112.3,-798.6 -305.2,-1566.1 -307.2,-1573.8 -12.1,-47.9 -49.8,-85.3 -98,-97 -10.4,-2.5 -20.9,-3.7 -31.3,-3.7" /></g><g
         transform="scale(1.37747)"
         id="g398"><path
           id="path400"
           style="fill:#000072;fill-opacity:1;fill-rule:nonzero;stroke:none"
           d="m 12610,15271.3 549.7,-597.5 c 129.2,614.4 183.1,1165.1 122.2,1294.9 -110.5,-14.5 -411.7,-327.2 -671.9,-697.4 m 627.9,-1030.1 c -38.7,0 -76.3,16.1 -103.3,45.3 l -806.7,877 c -43.8,47.6 -49.4,119 -13.5,172.8 6.6,10 164.9,246.7 361.3,474.3 306.8,355.6 534.6,489.4 716.6,421.1 200,-74.9 241.1,-379.3 142.3,-1050.6 -61.7,-418 -156.3,-815.4 -160.3,-832.1 -12,-50.5 -50.9,-90.2 -101.1,-103.2 -11.7,-3.1 -23.6,-4.6 -35.3,-4.6" /></g><g
         transform="scale(1.44835)"
         id="g402"><path
           id="path404"
           style="fill:#000072;fill-opacity:1;fill-rule:nonzero;stroke:none"
           d="m 11326.3,14619.9 1493.5,-1694.6 c 65.4,287.5 171.1,786.6 243,1298.3 196.4,1398 -27.9,1632.7 -101.3,1671.2 -350.5,184.5 -1143.3,-609.3 -1635.2,-1274.9 m 1564,-2109.8 c -37.9,0 -74.5,16.1 -100.2,45.2 l -1734.7,1968.3 c -41,46.4 -44.6,115.1 -8.6,165.5 12.8,18.1 319.3,447.1 710.2,842.2 560.8,566.9 1007.9,768.7 1328.9,599.7 205.6,-108.3 454.5,-427.8 240.9,-1946.4 -112.3,-798.6 -305.2,-1566.1 -307.2,-1573.8 -12.1,-47.9 -49.8,-85.3 -98,-97 -10.4,-2.5 -20.9,-3.7 -31.3,-3.7" /></g><g
         transform="scale(1.52558)"
         id="g406"><path
           id="path408"
           style="fill:#000072;fill-opacity:1;fill-rule:nonzero;stroke:none"
           d="m 7201.58,16007.6 c -8.72,0 -17.37,-0.5 -26.03,-1.6 -78.13,-9.7 -355.93,-143.1 -649.83,-1450.6 -107.59,-478.6 -180.92,-957.5 -219.15,-1234.7 l 1894.49,1004.9 c -209.1,738.6 -632.22,1682 -999.48,1682 M 6149.62,12967.3 c -25.01,0 -49.92,7.4 -71.34,22 -38.85,26.4 -59.86,72.3 -54.55,118.9 0.85,7.5 86.59,753.9 254.38,1500.9 319.11,1420.6 647.11,1621.1 866.18,1648.4 341.57,42.5 671.15,-286.6 979.42,-978 214.87,-481.9 343.42,-965.6 348.79,-986 15.01,-56.9 -11.14,-116.6 -63.12,-144.2 l -2200.4,-1167.2 c -18.62,-9.9 -39.03,-14.8 -59.36,-14.8" /></g><g
         transform="scale(1.45298)"
         id="g410"><path
           id="path412"
           style="fill:#000072;fill-opacity:1;fill-rule:nonzero;stroke:none"
           d="m 7591.9,16029 c -97.31,-96.6 -233.38,-602 -324.09,-1188.8 l 687.56,346.2 c -106.34,412.8 -267.66,788.7 -363.47,842.6 m -491.19,-1554.8 c -26.98,0 -53.89,8.2 -76.74,24.3 -40.19,28.4 -61.39,76.6 -55.2,125.4 2,16.1 51.07,400.4 136.27,791.7 136.69,628.1 275.03,884.4 477.16,884.4 h 0.42 c 184.44,-0.3 341.71,-195.3 494.84,-613.4 98.07,-267.5 159.33,-530.5 161.87,-541.5 13.84,-59.7 -15,-121.2 -69.79,-148.8 l -1009.02,-508 c -18.86,-9.5 -39.37,-14.1 -59.81,-14.1" /></g><g
         transform="scale(1.52558)"
         id="g414"><path
           id="path416"
           style="fill:#000072;fill-opacity:1;fill-rule:nonzero;stroke:none"
           d="m 7201.58,16007.6 c -8.72,0 -17.37,-0.5 -26.03,-1.6 -78.13,-9.7 -355.93,-143.1 -649.83,-1450.6 -107.59,-478.6 -180.92,-957.5 -219.15,-1234.7 l 1894.49,1004.9 c -209.1,738.6 -632.22,1682 -999.48,1682 M 6149.62,12967.3 c -25.01,0 -49.92,7.4 -71.34,22 -38.85,26.4 -59.86,72.3 -54.55,118.9 0.85,7.5 86.59,753.9 254.38,1500.9 319.11,1420.6 647.11,1621.1 866.18,1648.4 341.57,42.5 671.15,-286.6 979.42,-978 214.87,-481.9 343.42,-965.6 348.79,-986 15.01,-56.9 -11.14,-116.6 -63.12,-144.2 l -2200.4,-1167.2 c -18.62,-9.9 -39.03,-14.8 -59.36,-14.8" /></g><g
         transform="scale(1.36948)"
         id="g418"><path
           id="path420"
           style="fill:#fa509c;fill-opacity:1;fill-rule:nonzero;stroke:none"
           d="m 12503.5,15347.4 c 0,0 635.1,952.6 917.4,846.8 282.2,-105.9 -105.9,-1728.8 -105.9,-1728.8 l -811.5,882" /></g><g
         transform="scale(1.44117)"
         id="g422"><path
           id="path424"
           style="fill:#fa509c;fill-opacity:1;fill-rule:nonzero;stroke:none"
           d="m 8176.19,15239 c 0,0 -245.21,1060 -531.65,1060.5 -286.5,0.5 -485.64,-1572.6 -485.64,-1572.6 l 1017.29,512.1" /></g><g
         transform="scale(1.378)"
         id="g426"><path
           id="path428"
           style="fill:#000072;fill-opacity:1;fill-rule:nonzero;stroke:none"
           d="m 12541.7,15261.1 640.4,-696.2 c 32.2,149.2 78.7,379.4 114.4,615 112.9,746.1 9.2,829.2 8.2,829.9 -118.3,44.6 -486.6,-348.6 -763,-748.7 m 691,-975.8 c -25,0 -49.3,10.3 -66.7,29.3 l -806.5,876.5 c -28.3,30.8 -31.9,77 -8.7,111.8 157.5,236.1 696.2,997.1 1019,876.1 120.6,-45.2 228,-199 110.5,-996.6 -61.3,-415.6 -158.4,-823.5 -159.3,-827.5 -7.8,-32.6 -33,-58.3 -65.4,-66.7 -7.6,-2 -15.3,-2.9 -22.9,-2.9" /></g><g
         transform="scale(1.4488)"
         id="g430"><path
           id="path432"
           style="fill:#000072;fill-opacity:1;fill-rule:nonzero;stroke:none"
           d="m 7604.1,16127.4 c 0.27,-0.2 -119.89,-39.3 -269.74,-741.2 -47.35,-221.6 -83.24,-442.2 -104.71,-585.7 l 803.63,404.6 c -111.75,448.9 -307.7,922.1 -429.18,922.3 m -482.89,-1564.3 c -17.53,0 -34.92,5.3 -49.76,15.8 -26.09,18.4 -39.82,49.6 -35.82,81.3 0.48,4 51.01,399.5 135.97,789.9 162.89,748.4 309.98,849.9 432.43,849.9 h 0.41 c 327.93,-0.6 551.91,-858.8 612.79,-1121.8 8.97,-38.7 -9.73,-78.6 -45.28,-96.5 L 7160,14572.3 c -12.21,-6.2 -25.53,-9.2 -38.79,-9.2" /></g><g
         transform="scale(1.37641)"
         id="g434"><path
           id="path436"
           style="fill:#aa8fdb;fill-opacity:1;fill-rule:nonzero;stroke:none"
           d="m 7085.84,15383.3 c 39.21,228.2 87.19,481.4 143.85,734.8 85.67,59.5 178.38,120.9 276.53,181.9 -1.96,-8.9 -3.92,-17.8 -5.88,-26.7 -49.26,-226.4 -87.11,-450.5 -111.6,-609.7 -105.78,-88 -206.8,-181.5 -302.9,-280.3" /></g><g
         transform="scale(1.37947)"
         id="g438"><path
           id="path440"
           style="fill:#000072;fill-opacity:1;fill-rule:nonzero;stroke:none"
           d="m 7372.35,15628.9 c 24.42,158.8 62.19,382.4 111.34,608.3 1.96,8.9 3.92,17.8 5.87,26.6 19.36,12.1 39.01,24.2 58.87,36.2 -5.44,-23.8 -10.95,-48.3 -16.39,-73.4 -43.13,-197.9 -77.71,-397.1 -102.14,-550.7 -19.35,-15.5 -38.49,-31.2 -57.55,-47" /></g><g
         transform="scale(1.36105)"
         id="g442"><path
           id="path444"
           style="fill:#000072;fill-opacity:1;fill-rule:nonzero;stroke:none"
           d="m 6989.51,15363 c 38.43,240.3 88.33,523.1 149.72,814 53.53,39.5 111.04,80.8 172.03,123 -57.3,-256.3 -105.83,-512.3 -145.47,-743.2 -60.81,-62.6 -119.61,-127.2 -176.28,-193.8" /></g><g
         transform="scale(1.42234)"
         id="g446"><path
           id="path448"
           style="fill:#aa8fdb;fill-opacity:1;fill-rule:nonzero;stroke:none"
           d="m 8320.25,15821.1 c -20.18,64.8 -43.24,134 -68.76,203.5 -25.95,71 -52.1,135.7 -78.46,194.2 93.5,32 187.85,59.5 282.35,81.2 57.16,-124.9 111.29,-256.1 161.14,-388.7 -100.33,-26.1 -198.97,-56.1 -296.27,-90.2" /></g><g
         transform="scale(1.41525)"
         id="g450"><path
           id="path452"
           style="fill:#000072;fill-opacity:1;fill-rule:nonzero;stroke:none"
           d="m 8318.59,15884.9 c -39.92,129.5 -90.02,271.5 -149.3,399.5 14.84,5.3 29.75,10.5 44.66,15.6 26.49,-58.8 52.78,-123.8 78.85,-195.2 25.65,-69.8 48.83,-139.4 69.1,-204.4 -14.41,-5.1 -28.89,-10.3 -43.31,-15.5" /></g><g
         transform="scale(1.42471)"
         id="g454"><path
           id="path456"
           style="fill:#000072;fill-opacity:1;fill-rule:nonzero;stroke:none"
           d="m 8602.16,15884.8 c -49.76,132.3 -103.81,263.4 -160.87,388 45.48,10.4 90.89,19.5 136.31,27.2 57.9,-130.3 109.91,-261.1 155.32,-383.7 -43.79,-9.8 -87.45,-20.2 -130.76,-31.5" /></g><g
         transform="scale(1.40831)"
         id="g458"><path
           id="path460"
           style="fill:#c84094;fill-opacity:1;fill-rule:nonzero;stroke:none"
           d="m 7483.39,15508.5 c 17.6,100.6 38.34,210.2 61.84,320.1 21.16,99.2 41.75,185.5 61.56,260.6 139.04,76.2 285.52,148.3 435.85,210.8 52.19,-115 104.02,-254.8 149.96,-402 -250.15,-104.6 -487.96,-235.5 -709.21,-389.5" /></g><g
         transform="scale(1.4139)"
         id="g462"><path
           id="path464"
           style="fill:#000072;fill-opacity:1;fill-rule:nonzero;stroke:none"
           d="m 7248.98,15294.2 c 23.83,149.8 57.57,344.2 99.65,537.3 5.31,24.5 10.68,48.4 15.99,71.6 68.32,41.4 139.19,82.5 212.11,122.5 -19.74,-74.8 -40.25,-160.8 -61.32,-259.6 -23.41,-109.4 -44.07,-218.6 -61.61,-318.8 -69.95,-48.8 -138.27,-99.7 -204.82,-153 m 911.24,540.9 c -45.76,146.6 -97.39,285.9 -149.37,400.5 54.95,22.8 110.4,44.4 166.27,64.4 59.34,-128.2 109.49,-270.2 149.45,-399.9 -56.02,-20.4 -111.54,-42.1 -166.35,-65" /></g><g
         transform="scale(1.29828)"
         id="g466"><path
           id="path468"
           style="fill:#aa8fdb;fill-opacity:1;fill-rule:nonzero;stroke:none"
           d="m 14405.2,14901.9 c -56,145.3 -120,287.1 -191.7,424.5 34.5,154.4 99.6,461.9 146.6,780.6 9.9,67.8 18.6,132.1 25.8,193 74.6,-94.4 144,-187.6 207.6,-276.9 -6.4,-50.3 -13.3,-102.1 -20.8,-155.4 -48.2,-343 -110,-681 -167.5,-965.8" /></g><g
         transform="scale(1.30291)"
         id="g470"><path
           id="path472"
           style="fill:#000072;fill-opacity:1;fill-rule:nonzero;stroke:none"
           d="m 14163.1,15272 c -12.4,23.9 -25.2,47.7 -38.1,71.4 36,165.9 91.6,438.4 132.2,714 13,88.1 23.4,168.7 31.4,242.6 15.6,-19.3 31.1,-38.6 46.3,-57.9 -7.3,-60.7 -15.9,-124.7 -25.8,-192.3 -46.8,-317.5 -111.7,-623.9 -146,-777.8" /></g><g
         transform="scale(1.27623)"
         id="g474"><path
           id="path476"
           style="fill:#000072;fill-opacity:1;fill-rule:nonzero;stroke:none"
           d="m 14774.7,14798.1 c -34.8,122.5 -75,243.1 -120.6,361.3 58.6,289.7 121.4,633.6 170.5,982.5 7.6,54.2 14.6,106.9 21.1,158.1 59.2,-83.1 113.5,-162.9 162.6,-237.6 -73.5,-498.9 -168.5,-966.7 -233.6,-1264.3" /></g><g
         transform="scale(1.37178)"
         id="g478"><path
           id="path480"
           style="fill:#aa8fdb;fill-opacity:1;fill-rule:nonzero;stroke:none"
           d="m 12547.8,15653 c -81.4,70.9 -166,138.5 -253.4,202.8 135.4,156.8 278.7,309 421.6,444.2 83.4,-56.7 164.6,-118.7 243.2,-184.6 -71.7,-64.1 -148.5,-143.7 -231,-239.3 -65.8,-76.3 -127.4,-153.6 -180.4,-223.1" /></g><g
         transform="scale(1.35625)"
         id="g482"><path
           id="path484"
           style="fill:#000072;fill-opacity:1;fill-rule:nonzero;stroke:none"
           d="m 12727.8,15800.2 c -12,10.8 -24.1,21.5 -36.3,32 53.6,70.4 115.9,148.5 182.5,225.7 83.4,96.7 161.1,177.3 233.7,242.1 12.9,-10.9 25.9,-21.9 38.7,-33 -151.7,-131.6 -301.7,-311.8 -418.6,-466.8" /></g><g
         transform="scale(1.38024)"
         id="g486"><path
           id="path488"
           style="fill:#000072;fill-opacity:1;fill-rule:nonzero;stroke:none"
           d="m 12219,15758.6 c -44.9,32.9 -90.4,64.8 -136.8,96 113.2,137.8 249.2,294.3 396.4,445.4 54,-30.9 107.2,-64.4 159.5,-99.9 -142.1,-134.4 -284.5,-285.7 -419.1,-441.5" /></g><g
         transform="scale(1.34321)"
         id="g490"><path
           id="path492"
           style="fill:#c84094;fill-opacity:1;fill-rule:nonzero;stroke:none"
           d="m 13560.7,15120.6 c -163.3,255.4 -355.2,491.9 -572,704.5 143.1,189.1 296.6,363 423.1,474.9 97.7,-92.7 190.8,-190.1 278.4,-288.7 -6.8,-113 -21.8,-256.5 -49.3,-438.2 -24.4,-160.9 -53.7,-319.4 -80.2,-452.5" /></g><g
         transform="scale(1.3535)"
         id="g494"><path
           id="path496"
           style="fill:#000072;fill-opacity:1;fill-rule:nonzero;stroke:none"
           d="m 13597,14769.8 c -43.8,80.3 -90.3,158.9 -139.5,235.8 26.4,132.1 55.4,289.4 79.7,449 27.2,180.4 42.1,322.8 48.9,434.9 58.6,-66 114.8,-132.5 168.4,-198.8 -7.7,-71.2 -17.8,-148.7 -30.3,-233.5 -39,-265.4 -92.5,-527.6 -127.2,-687.4 m -707.1,934.9 c -44.4,43.5 -89.9,86.1 -136.3,127.6 117.1,155.2 267.4,335.8 419.5,467.7 46.5,-40.2 92.1,-81.6 136.7,-124 -125.6,-111 -277.8,-283.6 -419.9,-471.3" /></g><g
         transform="scale(1.42107)"
         id="g498"><path
           id="path500"
           style="fill:#d5b3f5;fill-opacity:1;fill-rule:nonzero;stroke:none"
           d="M 13369.9,11707 C 13064,9645.17 11244.4,8894.4 9182.57,9200.3 c -2061.76,305.89 -3585,1552.7 -3279.09,3614.4 305.9,2061.9 2225.3,3485.3 4287.12,3179.4 2061.8,-305.9 3485.2,-2225.3 3179.3,-4287.1" /></g><g
         transform="scale(1.26399)"
         id="g502"><path
           id="path504"
           style="fill:#9af0ff;fill-opacity:1;fill-rule:nonzero;stroke:none"
           d="m 6538.74,14211.7 c 6.5,68.4 15.29,137.6 25.61,207.6 104.51,704.7 376.78,1343.1 770.26,1880.7 -7.59,-51.7 -14.54,-100.3 -20.79,-145 -251.65,-373.3 -446.57,-791 -570.47,-1242.7 -86.95,-223.9 -155.85,-458 -204.61,-700.6" /></g><g
         transform="scale(1.28281)"
         id="g506"><path
           id="path508"
           style="fill:#9999c7;fill-opacity:1;fill-rule:nonzero;stroke:none"
           d="m 7206.51,15917.9 c 6.16,44.1 13,92 20.48,142.9 60.08,82.1 123.17,162 188.82,239.2 -6.74,-42.1 -13.13,-82.9 -19.2,-122.4 -66.51,-83.9 -129.98,-170.5 -190.1,-259.7" /></g><g
         transform="scale(1.39891)"
         id="g510"><path
           id="path512"
           style="fill:#9af0ff;fill-opacity:1;fill-rule:nonzero;stroke:none"
           d="m 9039.08,16215.9 c -2.64,7.2 -5.22,14.4 -7.93,21.6 223.96,41.1 453.85,62.5 687.24,62.5 187.29,0 376.61,-13.7 567.51,-42 24.5,-3.7 48.8,-7.5 73.1,-11.6 -2.3,0.3 -4.7,0.7 -7,1.1 -190.8,28.3 -380.27,42 -567.48,42 -253.7,0 -503.11,-25.2 -745.44,-73.6" /></g><g
         transform="scale(1.39355)"
         id="g514"><path
           id="path516"
           style="fill:#9999c7;fill-opacity:1;fill-rule:nonzero;stroke:none"
           d="m 8936.95,16248.3 c -2.87,7.9 -5.82,15.9 -8.76,23.9 45.71,10.1 91.56,19.3 137.71,27.8 2.72,-7.2 5.31,-14.5 7.96,-21.7 -45.85,-9.2 -91.56,-19.1 -136.91,-30" /></g><g
         transform="scale(1.32267)"
         id="g518"><path
           id="path520"
           style="fill:#ddd2f1;fill-opacity:1;fill-rule:nonzero;stroke:none"
           d="m 7356.2,15904.5 c 5.64,34 11.47,68.5 17.52,103.7 100,102.9 205.12,200.2 315.21,291.8 -4.54,-29.3 -8.55,-56.5 -12.18,-81.1 -112.35,-98.7 -219.49,-203.7 -320.55,-314.4" /></g><g
         transform="scale(1.32665)"
         id="g522"><path
           id="path524"
           style="fill:#9999c7;fill-opacity:1;fill-rule:nonzero;stroke:none"
           d="m 7653.71,16170.2 c 3.62,24.6 7.62,51.7 12.14,80.9 19.82,16.5 39.72,32.8 59.85,48.9 -4.37,-27.6 -8.44,-53.8 -12.14,-78.3 -20.2,-17.1 -40.02,-34.1 -59.85,-51.5" /></g><g
         transform="scale(1.29899)"
         id="g526"><path
           id="path528"
           style="fill:#9999c7;fill-opacity:1;fill-rule:nonzero;stroke:none"
           d="m 7304.45,15976.1 c 6,38.9 12.31,79.2 18.96,120.8 59.37,69.8 120.99,137.5 184.7,203.1 -6.16,-35.9 -12.09,-71.1 -17.84,-105.6 -64.41,-70.6 -126.27,-143.3 -185.82,-218.3" /></g><g
         transform="scale(1.38842)"
         id="g530"><path
           id="path532"
           style="fill:#ddd2f1;fill-opacity:1;fill-rule:nonzero;stroke:none"
           d="m 8533.17,16176.6 c -3.17,10.3 -6.34,20.6 -9.65,31.1 99.68,34.8 200.73,65.6 303.51,92.3 3.24,-8.6 6.48,-17.2 9.65,-25.8 -102.85,-28.4 -203.97,-61 -303.51,-97.6" /></g><g
         transform="scale(1.38055)"
         id="g534"><path
           id="path536"
           style="fill:#9999c7;fill-opacity:1;fill-rule:nonzero;stroke:none"
           d="m 8537.46,16252.2 c -3.19,10.5 -6.45,21.2 -9.78,31.9 14.77,5.4 29.62,10.7 44.4,15.9 3.33,-10.5 6.52,-20.9 9.7,-31.2 -14.84,-5.5 -29.62,-11 -44.32,-16.6" /></g><g
         transform="scale(1.39117)"
         id="g538"><path
           id="path540"
           style="fill:#9999c7;fill-opacity:1;fill-rule:nonzero;stroke:none"
           d="m 8819.18,16242 c -3.16,8.5 -6.39,17.2 -9.63,25.7 44.35,11.6 89.06,22.3 133.92,32.3 2.94,-8 5.89,-16 8.77,-23.9 -44.64,-10.6 -88.92,-22 -133.06,-34.1" /></g><g
         transform="scale(1.37357)"
         id="g542"><path
           id="path544"
           style="fill:#e9b3d4;fill-opacity:1;fill-rule:nonzero;stroke:none"
           d="m 7661.05,15833.7 c 3.72,21.8 7.57,44.1 11.58,67 226.85,157.9 470.67,292.1 727.15,399.3 3.57,-11.6 7.14,-23.2 10.71,-34.9 -265.44,-116 -516.98,-261 -749.44,-431.4" /></g><g
         transform="scale(1.37921)"
         id="g546"><path
           id="path548"
           style="fill:#9999c7;fill-opacity:1;fill-rule:nonzero;stroke:none"
           d="m 7419.62,15603.5 c 3.55,23.6 7.46,48.8 11.67,75.3 68.23,54.6 138.27,106.9 209.98,156.9 -3.99,-22.8 -7.83,-45 -11.53,-66.7 -71.93,-52.7 -141.97,-107.9 -210.12,-165.5 m 956.49,595.1 c -3.56,11.6 -7.11,23.2 -10.66,34.8 56.19,23.5 113.11,45.7 170.53,66.6 3.34,-10.7 6.6,-21.5 9.79,-32 -57.21,-21.8 -113.76,-44.9 -169.66,-69.4" /></g><g
         transform="scale(1.39801)"
         id="g550"><path
           id="path552"
           style="fill:#eee1fb;fill-opacity:1;fill-rule:nonzero;stroke:none"
           d="m 13490.9,11719.1 c 197.7,2021.5 -1224.2,3864 -3255.7,4165.3 -190.8,28.3 -380.42,42.1 -567.76,42.1 -112.59,0 -224.32,-5 -334.98,-14.8 v -0.3 c 10.73,-97.8 -142.05,-194.9 -341.48,-216.7 -27.25,-3 -54.01,-4.4 -79.9,-4.4 -129.04,0 -236.05,35.8 -279.54,92.5 -1143.77,-322.5 -2094.97,-1168 -2534.66,-2300.1 112.02,408.4 288.25,786.1 515.78,1123.5 v 0 c 55.16,81.9 113.41,161.3 174.43,238.3 55.33,69.7 112.81,137.3 172.66,202.9 95.61,104.7 196.98,204 303.28,297.4 18.81,16.5 37.62,32.7 56.79,48.8 67.24,56.8 136.34,111.3 207.29,163.3 228.4,167.4 475.54,309.9 736.34,423.9 55.15,24.1 110.94,46.9 167.38,68.4 14.52,5.5 29.11,11 43.77,16.4 98.86,36.3 199.29,68.7 301.43,96.9 43.92,12.1 87.98,23.4 132.4,34 45.21,10.8 90.77,20.7 136.48,29.8 v 0 c 242.49,48.4 492.06,73.7 745.92,73.7 187.34,0 376.97,-13.7 567.87,-42.1 2.3,-0.3 4.7,-0.7 6.9,-1 2056.3,-344.7 3466.3,-2275 3158.8,-4346.3 -9.6,-65 -20.7,-128.9 -33.5,-191.5" /></g><g
         transform="scale(1.17158)"
         id="g554"><path
           id="path556"
           style="fill:#02aee3;fill-opacity:1;fill-rule:nonzero;stroke:none"
           d="m 14524.5,11555.8 -14.8,65.4 c 869.2,483.3 1490.2,1298.7 1691.7,2480.6 32.3,-31.8 65.1,-62.9 98.6,-93.7 -223.8,-1181.6 -875.3,-1987.2 -1775.5,-2452.3" /></g><g
         transform="scale(1.17701)"
         id="g558"><path
           id="path560"
           style="fill:#cc763e;fill-opacity:1;fill-rule:nonzero;stroke:none"
           d="m 16300,15009.5 c -5.2,5.2 -10,10 -15.2,15.2 3.1,33.1 5.9,66.1 8.4,99.1 2.7,-38 5,-76 6.8,-114.3" /></g><g
         transform="scale(1.17775)"
         id="g562"><path
           id="path564"
           style="fill:#a35e48;fill-opacity:1;fill-rule:nonzero;stroke:none"
           d="m 16271.6,14330.6 c -31,32.7 -61.3,65.9 -90.9,99.7 25.2,109.9 46.6,223.6 64,340.5 12.3,81.7 22,163.1 29.7,244.4 5.2,-5.2 10.1,-10 15.2,-15.2 10.4,-220.4 4.7,-443.9 -18,-669.4" /></g><g
         transform="scale(1.17571)"
         id="g566"><path
           id="path568"
           style="fill:#000072;fill-opacity:1;fill-rule:nonzero;stroke:none"
           d="m 16242.8,13959 c -33.3,30.6 -66,61.7 -98.2,93.3 5.5,32.3 10.7,65.1 15.6,97.9 10.6,71.5 19.4,142.9 26.7,214 7.6,30.3 14.9,60.5 22,91.2 29.7,-33.8 60.1,-67.1 91.1,-99.8 -7.2,-72.4 -16.2,-145.1 -27,-217.9 -9,-60.4 -19,-120 -30.2,-178.7" /></g><g
         transform="scale(1.02194)"
         id="g570"><path
           id="path572"
           style="fill:#cc006a;fill-opacity:1;fill-rule:nonzero;stroke:none"
           d="m 14096.8,12687.8 c -311.6,0 -630.5,19.6 -954.7,58.5 279.7,-29.3 555.3,-44 825.3,-44 846.6,0 1636.8,145.5 2318.2,447.1 l 14.4,-63.6 c -654.8,-268.4 -1403.9,-398 -2203.2,-398" /></g><g
         transform="scale(1.04396)"
         id="g574"><path
           id="path576"
           style="fill:#000072;fill-opacity:1;fill-rule:nonzero;stroke:none"
           d="m 15956.2,12809.8 -14.1,62.3 c 117.1,51.8 231.1,108.4 341.3,169.7 l 16.6,-73.3 c -111.2,-57.4 -226.2,-110.4 -343.8,-158.7" /></g><g
         transform="scale(1.16755)"
         id="g578"><path
           id="path580"
           style="fill:#aa8fdb;fill-opacity:1;fill-rule:nonzero;stroke:none"
           d="m 12225.6,11118.2 c -236.4,0 -477.6,12.9 -722.4,38.5 -70.8,8.5 -141.7,18.1 -212.9,28.6 -2412.28,358 -4218.66,1773.8 -4024.56,4111.9 167.6,-1943 1849.88,-3125.7 4024.56,-3448.5 356.9,-52.9 708,-79.8 1048.5,-79.8 1910,0 3492.2,846.1 3961.2,2695.7 -7.3,-71.6 -16.2,-143.5 -26.9,-215.5 -4.9,-33 -10.1,-66 -15.7,-98.6 -202.2,-1186 -825.4,-2004.2 -1697.5,-2489.1 -98.6,-54.8 -200.6,-105.5 -305.2,-151.8 -596.5,-264 -1288.1,-391.4 -2029.1,-391.4" /></g><g
         transform="scale(1.43371)"
         id="g582"><path
           id="path584"
           style="fill:#000072;fill-opacity:1;fill-rule:nonzero;stroke:none"
           d="m 13252,11603.8 h 0.4 z m -3702.59,4155.3 c -1756.35,0 -3299.29,-1288.8 -3564.63,-3077.1 -317.25,-2138.3 1412.31,-3173.6 3136.65,-3429.44 1724.37,-255.91 3680.07,232.68 3997.27,2371.04 291.8,1966.8 -1070.9,3804.3 -3037.7,4096.2 -178.52,26.5 -356.24,39.3 -531.59,39.3 z m 411.45,-6840.43 c -282.62,0 -576.34,22.32 -878.98,67.17 -1087.25,161.33 -1979.82,568.45 -2581.29,1177.26 -660.97,669.1 -931.55,1553.8 -782.49,2558.5 313.63,2113.9 2288.53,3578.4 4402.4,3264.9 2113.9,-313.7 3578.6,-2288.6 3264.9,-4402.5 -149.1,-1004.7 -664.8,-1772.75 -1491.7,-2221.03 -542.8,-294.41 -1200.3,-444.3 -1932.84,-444.3" /></g><g
         transform="scale(1.08718)"
         id="g586"><path
           id="path588"
           style="fill:#000072;fill-opacity:1;fill-rule:nonzero;stroke:none"
           d="m 12233.9,16292.5 808.8,-67.2 c 91.4,-7.6 130.4,-120.1 63.4,-182.8 l -450.4,-419.8 c -46.2,-43.2 -119.8,-36.4 -157.3,14.6 l -358.4,487.1 c -53.8,73.1 3.5,175.6 93.9,168.1" /></g><g
         transform="scale(1.06218)"
         id="g590"><path
           id="path592"
           style="fill:#000072;fill-opacity:1;fill-rule:nonzero;stroke:none"
           d="m 11123.8,16274.3 c 55.5,-119.9 103.5,-216.4 157.7,-303 53.4,-86.3 109.7,-162.5 173.6,-231.1 63.5,-68.4 133,-131.7 214.2,-180.2 81.8,-48.1 172.4,-78.1 271.7,-83.9 l 29.9,-0.3 38.2,1 c 26.4,-0.8 48.5,4.7 72.2,7 46.7,7.1 92.3,19.6 136,36.1 87.1,33.6 168.2,80.1 241.4,137.6 74.6,56.7 138.8,125.5 201.4,202.1 64.9,76.4 129.1,159.3 216.5,266.9 l 0.8,1 c 12.4,15.4 35,17.7 50.4,5.3 3.8,-3.2 7,-7.2 9.2,-11.4 67.2,-129.6 65,-280.3 20.4,-415.5 -46.8,-135.1 -134.6,-255.6 -242.2,-352.2 -108.8,-95.8 -240.1,-166.7 -379.8,-205 -69.7,-19.7 -141.1,-32.5 -212.8,-37.9 -35.5,-1.8 -72.5,-6.2 -105.9,-3.7 l -51,1.6 -26.6,0.7 -32.7,2.1 c -138.1,14.7 -280.9,51.4 -410.6,112.7 -130.5,60.7 -250.7,148.7 -341.1,262.3 -89.7,113.4 -150.9,249.6 -169.6,390.3 -18.3,140.3 3.3,285 78.3,402.6 10.2,15.9 31.4,20.6 47.3,10.4 5.7,-3.6 10,-8.7 12.7,-14.5 l 0.4,-1" /></g><g
         transform="scale(1.05221)"
         id="g594"><path
           id="path596"
           style="fill:#000072;fill-opacity:1;fill-rule:nonzero;stroke:none"
           d="m 13059.5,16274.1 c 55.1,-119.1 102.7,-215.2 156.7,-301.6 52.9,-85.9 108.6,-162 171.8,-230.6 62.4,-68.6 131.1,-131.4 210.6,-181.2 79.5,-49.2 170.9,-81.8 265.7,-89.6 l 14.2,-2.1 c 0.9,0.4 1.3,0.5 2.3,0.1 l 18.8,-0.2 37.7,-0.5 c 25.3,-1.5 48.8,4.1 73.1,5.7 48.1,6 95.1,18.1 140.3,34 90,33.1 173.8,79.8 249.3,138.4 77,57.3 143.1,127.6 207.4,205.8 66.2,78.2 131.8,162.8 221.4,273.1 l 0.9,1.1 c 12.6,15.5 35.3,17.8 50.8,5.2 4,-3.2 7.1,-7.2 9.3,-11.4 68.9,-133.1 65.6,-287.7 18.4,-425.9 -49.3,-138.2 -140.9,-260.7 -252.5,-358.2 -113.1,-96.5 -248.9,-167.1 -392.9,-203.5 -71.7,-19 -145.2,-30.3 -218.6,-34.6 -36.7,-0.9 -74,-5.1 -109.6,-1.6 l -53.9,2.6 -27,1.3 c -14.1,1.5 -28.9,3.5 -43.2,5.7 l 14.2,-2.1 c -140.4,18 -279.2,56.3 -408,119.4 -128.6,62.5 -246.3,152.4 -334.3,266.5 -87.4,114 -146.4,249.8 -163.9,389.7 -16.8,139.5 5.3,282.9 80,399.7 10.2,16 31.7,20.7 47.8,10.4 5.8,-3.7 10.1,-8.8 12.7,-14.6 l 0.5,-1" /></g><g
         transform="scale(1.06307)"
         id="g598"><path
           id="path600"
           style="fill:#000072;fill-opacity:1;fill-rule:nonzero;stroke:none"
           d="m 12104.1,15101.7 c -26.3,-342.5 2.5,-678.5 82.4,-953.7 102.8,-353.5 277.3,-576.1 466.6,-595.6 190.6,-19.6 407.6,165.7 580.4,495.3 135.7,258.9 232,589.6 273.4,936.4 -289.1,79.4 -524.2,270.6 -662.1,521.2 -178.1,-224.2 -442.4,-373.8 -740.7,-403.6 z m 577.5,-1914.4 c -21.8,0 -43.6,1.2 -65.5,3.4 -347.1,35.6 -630.9,347.6 -778.8,855.9 -100.4,345.8 -130.7,751.8 -87.6,1174.1 2.8,27.5 5.7,54.1 9,81.1 11.7,95.1 95.1,165.1 190.9,159.2 395.4,-22.3 731.4,268.9 765.1,663.8 v 1 c 8.6,100 96.5,174.2 196.5,165.7 100,-8.4 174.3,-96.3 165.9,-196.4 l -0.1,-0.9 c -33.1,-396 250.3,-739.4 645.6,-782.1 96.8,-10.3 168.1,-95.1 162,-192.2 -2.4,-38.1 -5.8,-76.5 -9.6,-115.5 -42.6,-418.9 -153,-807.8 -319.5,-1125.5 -232.3,-443.4 -547.7,-691.6 -873.9,-691.6" /></g><path
         id="path602"
         style="fill:#000072;fill-opacity:1;fill-rule:nonzero;stroke:none"
         d="m 12979.9,14961.4 c 111.3,-329.8 284.5,-535 471.3,-554.2 188,-19.3 400.2,148.9 576.6,453.2 -95.3,215 -312.6,359.5 -552.3,359.5 -199.6,0 -383.4,-97.4 -495.6,-258.5 z m 501.6,-942.3 c -23.2,0 -46.4,1.2 -69.6,3.6 -369.1,37.8 -670.8,369.5 -828,909.9 -13.9,48.1 -8.7,99.6 14.6,143.9 171.8,326.9 507.9,530 877,530 435.3,0 825.6,-291 949.1,-707.5 14.4,-48.2 9.3,-100.2 -14.1,-144.7 -247,-471.4 -582.3,-735.2 -929,-735.2" /><g
         transform="scale(1.43371)"
         id="g604"><path
           id="path606"
           style="fill:#000072;fill-opacity:1;fill-rule:nonzero;stroke:none"
           d="m 13252,11603.8 h 0.4 z m -3702.59,4155.3 c -1756.35,0 -3299.29,-1288.8 -3564.63,-3077.1 -317.25,-2138.3 1412.31,-3173.6 3136.65,-3429.44 1724.37,-255.91 3680.07,232.68 3997.27,2371.04 291.8,1966.8 -1070.9,3804.3 -3037.7,4096.2 -178.52,26.5 -356.24,39.3 -531.59,39.3 z m 411.45,-6840.43 c -282.62,0 -576.34,22.32 -878.98,67.17 -1087.25,161.33 -1979.82,568.45 -2581.29,1177.26 -660.97,669.1 -931.55,1553.8 -782.49,2558.5 313.63,2113.9 2288.53,3578.4 4402.4,3264.9 2113.9,-313.7 3578.6,-2288.6 3264.9,-4402.5 -149.1,-1004.7 -664.8,-1772.75 -1491.7,-2221.03 -542.8,-294.41 -1200.3,-444.3 -1932.84,-444.3" /></g><g
         transform="scale(1.08718)"
         id="g608"><path
           id="path610"
           style="fill:#000072;fill-opacity:1;fill-rule:nonzero;stroke:none"
           d="m 12233.9,16292.5 808.8,-67.2 c 91.4,-7.6 130.4,-120.1 63.4,-182.8 l -450.4,-419.8 c -46.2,-43.2 -119.8,-36.4 -157.3,14.6 l -358.4,487.1 c -53.8,73.1 3.5,175.6 93.9,168.1" /></g><g
         transform="scale(1.05071)"
         id="g612"><path
           id="path614"
           style="fill:#000072;fill-opacity:1;fill-rule:nonzero;stroke:none"
           d="m 13864.4,15309.5 c -2.3,-36.3 -5.5,-73.1 -9.1,-110.4 -41.9,-412 -152.3,-783.5 -303.1,-1071.5 -205.1,-391.3 -485.2,-627.6 -768.9,-598.7 -282.4,29 -507.6,313.7 -630,734.5 -91,313.6 -124.6,702.6 -82.4,1117.9 2.8,26.2 5.6,51.9 8.8,78.1 495.8,-28.5 926.1,343 968,840.6 -42.2,-498.9 321.9,-937.2 816.7,-990.5" /></g><path
         id="path616"
         style="fill:#ff48a0;fill-opacity:1;fill-rule:nonzero;stroke:none"
         d="m 14239.4,14844 c -215.5,-411.2 -509.8,-659.5 -807.9,-629.1 -296.7,30.5 -533.4,329.6 -662,771.7 133.4,253.6 399.6,426.6 706,426.6 360.9,0 666.3,-240.1 763.9,-569.2" /><g
         transform="scale(1.06307)"
         id="g618"><path
           id="path620"
           style="fill:#000072;fill-opacity:1;fill-rule:nonzero;stroke:none"
           d="m 12104.1,15101.7 c -26.3,-342.5 2.5,-678.5 82.4,-953.7 102.8,-353.5 277.3,-576.1 466.6,-595.6 190.6,-19.6 407.6,165.7 580.4,495.3 135.7,258.9 232,589.6 273.4,936.4 -289.1,79.4 -524.2,270.6 -662.1,521.2 -178.1,-224.2 -442.4,-373.8 -740.7,-403.6 z m 577.5,-1914.4 c -21.8,0 -43.6,1.2 -65.5,3.4 -347.1,35.6 -630.9,347.6 -778.8,855.9 -100.4,345.8 -130.7,751.8 -87.6,1174.1 2.8,27.5 5.7,54.1 9,81.1 11.7,95.1 95.1,165.1 190.9,159.2 395.4,-22.3 731.4,268.9 765.1,663.8 v 1 c 8.6,100 96.5,174.2 196.5,165.7 100,-8.4 174.3,-96.3 165.9,-196.4 l -0.1,-0.9 c -33.1,-396 250.3,-739.4 645.6,-782.1 96.8,-10.3 168.1,-95.1 162,-192.2 -2.4,-38.1 -5.8,-76.5 -9.6,-115.5 -42.6,-418.9 -153,-807.8 -319.5,-1125.5 -232.3,-443.4 -547.7,-691.6 -873.9,-691.6" /></g><g
         transform="scale(1.11895)"
         id="g622"><path
           id="path624"
           style="fill:#000072;fill-opacity:1;fill-rule:nonzero;stroke:none"
           d="m 8307.78,15847.3 c -138.89,29.1 -268.03,63.4 -396.38,97.2 -127.99,34 -254.03,66.7 -379.8,97.9 -125.74,32.5 -251.74,57.2 -379.66,83.2 -128.57,26.4 -257.77,41.2 -398.69,67.2 126.64,63 268.32,96.4 409.64,102.2 141.21,5 284.05,-7.5 420.1,-42.9 136.45,-34.1 268.19,-84.4 391.22,-150.5 122.26,-67.2 238.77,-147.4 333.57,-254.3" /></g><g
         transform="scale(1.0334)"
         id="g626"><path
           id="path628"
           style="fill:#000072;fill-opacity:1;fill-rule:nonzero;stroke:none"
           d="m 9017.85,16089.6 c -153.21,-11.2 -297.89,-14 -441.54,-17.1 -143.37,-2.8 -284.34,-6.2 -424.56,-11.3 -140.56,-3.6 -279.1,-15.4 -419.97,-26.6 -141.74,-10.8 -280.6,-34 -435.07,-48.9 113.04,103.3 250.55,180.4 395.96,228.5 145.49,47.3 297.9,76.9 450.08,80.6 152.19,5.2 304.31,-7.9 452.12,-40.1 147.28,-33.4 292.45,-82.1 422.98,-165.1" /></g><path
         id="path630"
         style="fill:#000072;fill-opacity:1;fill-rule:nonzero;stroke:none"
         d="m 9709.73,15630.3 c -140.22,-74.4 -275.91,-137.2 -410.48,-200 -134.44,-62.4 -266.32,-124.3 -396.83,-187.5 -131.41,-62 -257.53,-130.9 -386.1,-200.1 -129.57,-69.2 -251.23,-149 -391.14,-227.4 63.89,144.8 161.86,274.9 279.35,381 117.88,105.3 249.72,196.8 392.12,263.6 141.74,68.4 291.07,119.3 444.25,150.5 153.23,29.7 310.82,44 468.83,19.9" /><g
         transform="scale(1.22359)"
         id="g632"><path
           id="path634"
           style="fill:#000072;fill-opacity:1;fill-rule:nonzero;stroke:none"
           d="m 14853.1,13832.1 c 113.9,64.2 238.5,98.7 364.2,120.3 126.1,20.5 255,24.7 383,13.5 128.3,-10 255.4,-41.8 376.1,-88.2 120.4,-47.2 232.9,-118.3 323.6,-210.5 -129.6,19.5 -245.7,45.3 -364.7,60.8 -118.3,15.7 -234.7,31.8 -353,41.3 -118,10.6 -236.8,19.8 -357.6,28.6 -121,9.1 -242.9,17.9 -371.6,34.2" /></g><g
         transform="scale(1.19253)"
         id="g636"><path
           id="path638"
           style="fill:#000072;fill-opacity:1;fill-rule:nonzero;stroke:none"
           d="m 14919.4,13322.4 c 130.4,31.1 263.1,30 393.2,15.7 130.1,-15.4 258.5,-47.6 381.7,-94.9 123.6,-46 240.1,-113.4 345.9,-193.2 105.5,-80.5 196.4,-182.5 259.8,-299 -122.3,55.8 -229.5,114 -342.5,162.9 -112.3,49 -222.4,97.8 -336.6,140.5 -113.4,43.7 -228,86.4 -344.6,129.2 -116.8,43.2 -234.6,86.3 -356.9,138.8" /></g><g
         transform="scale(1.12452)"
         id="g640"><path
           id="path642"
           style="fill:#000072;fill-opacity:1;fill-rule:nonzero;stroke:none"
           d="m 15204.2,13403.5 c 139.8,-25.5 268.2,-83.3 388.4,-152.7 119.7,-70.6 230.5,-156.7 329.8,-255.3 100.3,-97.5 184.6,-212.6 253.2,-335.4 68,-123.1 112.7,-261 124.4,-401.2 -94.9,106.5 -174,208.8 -262.9,304.6 -88,95.5 -174.1,189.9 -266.6,280.2 -91.4,90.9 -184.2,181.2 -279.2,272.6 -94.9,91.8 -190.7,184 -287.1,287.2" /></g><path
         id="path644"
         style="fill:#000072;fill-opacity:1;fill-rule:nonzero;stroke:none"
         d="m 14639.6,6348.4 c -9.2,15.3 -12.8,21.2 -17.9,30.9 -4.5,9 -8.6,17.2 -12.5,26 -6.8,17 -13.6,34 -18.5,50.9 -10.4,34 -16.4,67.8 -20.5,101.7 -8.2,67.5 -2.9,134.5 5.5,199.5 8,65.2 23.9,128.6 42.6,190.3 20.3,61.5 44.6,121.3 76.8,178.3 5.2,9.1 16.8,12.4 26,7.2 4.7,-2.7 7.9,-7.1 9.1,-12 l 0.2,-0.6 c 7.8,-31.6 14.1,-62.6 19.2,-93 7,-30.6 11.3,-60.7 17.3,-90.4 11.3,-59.4 21.6,-117.4 34.1,-173.5 l 37.4,-162.8 c 6.2,-25.9 11.4,-51.8 16.4,-76.5 l 6.6,-36.6 c 1.2,-5.5 1.7,-11.8 2.6,-16.9 0.3,-4.5 2.3,-12.7 -0.5,-11.2 30.7,-61.8 5.5,-136.8 -56.3,-167.6 -61.8,-30.7 -136.8,-5.5 -167.6,56.3" /><path
         id="path646"
         style="fill:#000072;fill-opacity:1;fill-rule:nonzero;stroke:none"
         d="m 15305.4,6335.7 c -31.6,70.8 -41.8,133 -47.4,200.7 -5.3,66.4 -0.2,133.1 8,198.7 17.7,131.2 51.9,259.8 114.2,378 4.9,9.3 16.4,12.8 25.7,7.9 5,-2.6 8.3,-7.1 9.6,-12.1 l 0.1,-0.6 c 16,-64.4 26.5,-126.2 39.6,-187.1 11.1,-60.8 24.4,-120.3 36.1,-178.9 12.1,-58.6 26.9,-116 36.3,-172.9 9.7,-55.7 19.2,-116.5 18.5,-166.1 l -0.3,-18.3 c -1,-69.3 -58.1,-124.8 -127.5,-123.8 -50.4,0.8 -93.6,31.3 -112.9,74.5" /><path
         id="path648"
         style="fill:#000072;fill-opacity:1;fill-rule:nonzero;stroke:none"
         d="m 11481.3,7527.5 c -8.2,-4.3 -2.1,3 -1.6,5.5 l 7.1,13.2 c 5.5,9 10.8,19.7 17.3,29.6 11.7,21.6 25,43.2 38.1,66.8 25.5,46.9 55.7,95.7 81.9,148.8 27.3,52.4 53.2,107.7 80.1,164.2 13.1,28.4 26.3,57.1 40.7,86.1 13.1,29.2 27.5,58.5 43.6,88 l 0.3,0.5 c 5,9.2 16.5,12.6 25.8,7.6 4.9,-2.7 8.1,-7.3 9.4,-12.3 15.6,-65.6 23,-131.7 26.3,-198.5 1.6,-66.6 -0.5,-134.1 -10.7,-201.7 -9.5,-67.5 -24.7,-136.4 -54.1,-202.5 -14.1,-33.2 -32.2,-66 -54.5,-97.4 -11.3,-16 -23.9,-31.1 -38.3,-46.4 -6.8,-7.6 -15.7,-15.2 -23.6,-22.6 -10.4,-8.8 -15.2,-12.9 -35.5,-27.2 -54.8,-42 -133.3,-31.7 -175.3,23 -42.1,54.8 -31.8,133.3 23,175.3" /><path
         id="path650"
         style="fill:#000072;fill-opacity:1;fill-rule:nonzero;stroke:none"
         d="m 12033.6,7159.2 c -7.9,-2.2 0.1,4.2 1.9,7.3 l 11.2,13.1 25.7,30 c 17.3,21.6 35.8,44.1 54,68.4 35.7,48.7 74.6,100.8 108.8,158.6 35.6,56.8 68.2,118 101.6,180.7 l 49.3,96.2 c 15.6,32.8 32.5,65.6 51.1,98.8 l 0.4,0.7 c 5.1,9 16.4,12.2 25.4,7.1 5.3,-3 8.6,-8.3 9.4,-13.9 4.8,-37.7 7.9,-75.5 9.7,-113.6 1.3,-37.9 -0.6,-75.7 -1.6,-114.1 -6.1,-75.9 -16.2,-152.7 -37.2,-228.6 -19.9,-75.9 -47.5,-152.7 -92.2,-223.7 -21.8,-35.7 -47.9,-70.1 -79.2,-101.8 -15.4,-16.1 -32.9,-31 -51.7,-45.5 -9.7,-7.3 -20.1,-13.9 -30.9,-20.8 -12.8,-7.4 -19.5,-11.5 -43.4,-22.3 -61.6,-31 -136.8,-6.1 -167.8,55.5 -31,61.7 -6.1,136.9 55.5,167.9" /><g
         transform="scale(1.21674)"
         id="g652"><path
           id="path654"
           style="fill:#000072;fill-opacity:1;fill-rule:nonzero;stroke:none"
           d="m 9293.09,15605.9 c -123.52,-420.9 8.8,-830.4 295.54,-914.5 286.75,-84.2 619.37,188.8 742.97,609.8 123.5,421 -8.8,830.5 -295.5,914.6 -286.79,84.2 -619.48,-188.8 -743.01,-609.9" /></g><g
         transform="scale(1.17971)"
         id="g656"><path
           id="path658"
           style="fill:#ffffff;fill-opacity:1;fill-rule:nonzero;stroke:none"
           d="m 10137.5,16090.9 c -37.2,-126.8 2.6,-250.2 89,-275.5 86.4,-25.4 186.6,56.9 223.8,183.7 37.3,126.8 -2.7,250.2 -89,275.6 -86.4,25.3 -186.6,-57 -223.8,-183.8" /></g><g
         transform="scale(1.15731)"
         id="g660"><path
           id="path662"
           style="fill:#000072;fill-opacity:1;fill-rule:nonzero;stroke:none"
           d="m 14249.1,16150.8 c -107,-14.5 -216.3,-33.6 -319,-60.4 -103.3,-26.6 -202.4,-60.5 -296,-101.8 -47.5,-19.5 -91.6,-44.5 -136.7,-67.3 l -64.2,-39.7 c -21.8,-12.4 -42.2,-26.9 -62.2,-42.1 -83.3,-55.8 -153.7,-127.6 -223.2,-200.4 l -149,229 c 33,8.1 55,11.4 81.4,14.7 25.2,3.6 50.2,5.4 75.1,7.3 49.8,3.4 99.3,2.3 148.5,-0.5 98.4,-6.3 195.8,-25.4 288.5,-57.2 92.1,-33.2 181.7,-73.7 259.7,-130.7 80.6,-52.5 148.3,-121.4 208.2,-192.5 17.6,-20.7 14.9,-51.8 -5.9,-69.4 -15.5,-12.9 -36.7,-14.9 -53.7,-6.4 l -5.3,2.6 c -39.1,19.5 -74.6,42.4 -112.8,60.3 -38.5,17.2 -75.1,36.2 -114.2,49.5 -76.5,29.5 -154.5,51.1 -233.5,62.6 -78.4,13.7 -157.9,18.1 -236.4,15.1 -39.3,-1.3 -78.4,-5.3 -116.8,-10.1 -19.1,-2.8 -38.2,-5.5 -56.6,-9.5 -9.5,-1.6 -18.2,-3.8 -27,-5.9 l -12.6,-3 -9.3,-2.5 -3.5,-1 c -76,-20.3 -154.2,24.7 -174.6,100.7 -12.5,46.8 0.3,95 29.3,129.4 81.3,95.4 169.7,188.1 276.1,257.3 50.2,38.8 107.9,65.6 162.7,96.2 57.9,24.4 114.8,51.1 175,67.3 118.9,36.7 241.5,56.2 363.1,57.5 122.2,0.1 240.8,-12.7 359,-52.3 26,-8.8 39.9,-36.9 31.3,-62.8 -6.2,-18.5 -22.2,-30.8 -40.3,-33.3 l -5.1,-0.7" /></g></g></g></svg>